<svg width="252" height="143" viewBox="0 0 252 143" fill="none" xmlns="http://www.w3.org/2000/svg">
<path d="M0 71.767L71.3592 0L123.961 50.9709C123.961 50.9709 118.252 56.6796 112.951 57.4951C107.65 58.3107 99.4951 55.4563 99.4951 55.4563L71.3592 30.5825L30.1748 71.767L71.3592 114.175C79.6199 124.968 79.3605 131.229 71.3592 142.718L0 71.767Z" fill="#4CBA64"/>
<circle cx="92.9709" cy="87.2621" r="15.4951" fill="#4CBA64"/>
<path d="M252 71.767L180.641 0L128.039 50.9709C128.039 50.9709 133.748 56.6796 139.049 57.4951C144.35 58.3107 152.505 55.4563 152.505 55.4563L180.641 30.5825L221.825 71.767L180.641 114.175C172.38 124.968 172.64 131.229 180.641 142.718L252 71.767Z" fill="#4CBA64"/>
<circle cx="15.4951" cy="15.4951" r="15.4951" transform="matrix(-1 0 0 1 174.524 71.767)" fill="#4CBA64"/>
</svg>
