<svg width="35" height="35" viewBox="0 0 35 35" fill="none" xmlns="http://www.w3.org/2000/svg">
<path d="M30.625 17.5001C30.625 17.7902 30.5098 18.0684 30.3047 18.2735C30.0995 18.4786 29.8213 18.5939 29.5313 18.5939H8.10879L16.0863 26.57C16.188 26.6717 16.2686 26.7923 16.3236 26.9251C16.3786 27.0579 16.4069 27.2002 16.4069 27.3439C16.4069 27.4876 16.3786 27.6299 16.3236 27.7627C16.2686 27.8954 16.188 28.0161 16.0863 28.1177C15.9847 28.2193 15.8641 28.2999 15.7313 28.3549C15.5985 28.4099 15.4562 28.4382 15.3125 28.4382C15.1688 28.4382 15.0265 28.4099 14.8937 28.3549C14.7609 28.2999 14.6403 28.2193 14.5387 28.1177L4.69493 18.2739C4.59323 18.1724 4.51256 18.0517 4.45752 17.919C4.40248 17.7862 4.37415 17.6439 4.37415 17.5001C4.37415 17.3564 4.40248 17.2141 4.45752 17.0813C4.51256 16.9485 4.59323 16.8279 4.69493 16.7263L14.5387 6.88254C14.7439 6.67731 15.0223 6.56201 15.3125 6.56201C15.6027 6.56201 15.8811 6.67731 16.0863 6.88254C16.2916 7.08777 16.4069 7.36613 16.4069 7.65637C16.4069 7.94661 16.2916 8.22497 16.0863 8.4302L8.10879 16.4064H29.5313C29.8213 16.4064 30.0995 16.5216 30.3047 16.7267C30.5098 16.9318 30.625 17.21 30.625 17.5001Z" fill="white"/>
</svg>
