<svg width="1440" height="145" viewBox="0 0 1440 145" fill="none" xmlns="http://www.w3.org/2000/svg">
<g clip-path="url(#clip0_235_27117)">
<rect width="1440" height="145" fill="#A78BFA"/>
<g opacity="0.8" filter="url(#filter0_f_235_27117)">
<circle cx="321.5" cy="312.5" r="434.5" transform="rotate(-90 321.5 312.5)" fill="url(#paint0_diamond_235_27117)"/>
</g>
<g opacity="0.8" filter="url(#filter1_f_235_27117)">
<ellipse cx="1334" cy="-615" rx="837" ry="837" transform="rotate(-90 1334 -615)" fill="url(#paint1_diamond_235_27117)"/>
</g>
<path d="M29.5664 126.2C28.6464 126.2 27.7864 126.027 26.9864 125.68C26.1864 125.333 25.4797 124.86 24.8664 124.26C24.2664 123.647 23.7931 122.94 23.4464 122.14C23.0997 121.34 22.9264 120.48 22.9264 119.56C22.9264 118.64 23.0997 117.78 23.4464 116.98C23.7931 116.18 24.2664 115.48 24.8664 114.88C25.4797 114.267 26.1864 113.787 26.9864 113.44C27.7864 113.093 28.6464 112.92 29.5664 112.92C30.4864 112.92 31.3464 113.093 32.1464 113.44C32.9464 113.787 33.6464 114.267 34.2464 114.88C34.8597 115.48 35.3397 116.18 35.6864 116.98C36.0331 117.78 36.2064 118.64 36.2064 119.56C36.2064 120.48 36.0331 121.34 35.6864 122.14C35.3397 122.94 34.8597 123.647 34.2464 124.26C33.6464 124.86 32.9464 125.333 32.1464 125.68C31.3464 126.027 30.4864 126.2 29.5664 126.2ZM29.5664 124.86C30.5664 124.86 31.4597 124.633 32.2464 124.18C33.0464 123.727 33.6731 123.1 34.1264 122.3C34.5797 121.5 34.8064 120.587 34.8064 119.56C34.8064 118.547 34.5797 117.647 34.1264 116.86C33.6731 116.06 33.0464 115.433 32.2464 114.98C31.4597 114.513 30.5664 114.28 29.5664 114.28C28.5797 114.28 27.6931 114.513 26.9064 114.98C26.1197 115.433 25.4997 116.06 25.0464 116.86C24.5931 117.647 24.3664 118.547 24.3664 119.56C24.3664 120.587 24.5931 121.5 25.0464 122.3C25.4997 123.1 26.1197 123.727 26.9064 124.18C27.6931 124.633 28.5797 124.86 29.5664 124.86ZM29.5664 124.02C28.2331 124.02 27.1797 123.627 26.4064 122.84C25.6331 122.04 25.2464 120.953 25.2464 119.58C25.2464 118.593 25.4464 117.773 25.8464 117.12C26.2464 116.467 26.7797 115.973 27.4464 115.64C28.1264 115.307 28.8731 115.14 29.6864 115.14C30.2464 115.14 30.7331 115.2 31.1464 115.32C31.5597 115.44 31.9264 115.6 32.2464 115.8V117.02C31.8997 116.833 31.5397 116.7 31.1664 116.62C30.8064 116.527 30.4264 116.48 30.0264 116.48C29.4131 116.48 28.8597 116.58 28.3664 116.78C27.8864 116.98 27.5064 117.307 27.2264 117.76C26.9464 118.213 26.8064 118.82 26.8064 119.58C26.8064 120.713 27.0731 121.52 27.6064 122C28.1531 122.467 28.9331 122.7 29.9464 122.7C30.3331 122.7 30.7331 122.647 31.1464 122.54C31.5731 122.433 31.9464 122.287 32.2664 122.1V123.38C31.9064 123.58 31.4931 123.74 31.0264 123.86C30.5597 123.967 30.0731 124.02 29.5664 124.02ZM42.5553 126V124.92C42.902 124.107 43.382 123.373 43.9953 122.72C44.622 122.067 45.2886 121.433 45.9953 120.82C46.5286 120.353 46.9686 119.96 47.3153 119.64C47.6753 119.307 47.9553 119.007 48.1553 118.74C48.3553 118.473 48.4953 118.2 48.5753 117.92C48.6553 117.627 48.6953 117.287 48.6953 116.9C48.6953 116.207 48.4953 115.68 48.0953 115.32C47.6953 114.96 47.0286 114.78 46.0953 114.78C45.5886 114.78 45.0686 114.833 44.5353 114.94C44.0153 115.047 43.5153 115.193 43.0353 115.38V113.46C43.502 113.3 44.0553 113.173 44.6953 113.08C45.3353 112.973 45.942 112.92 46.5153 112.92C47.9553 112.92 49.042 113.273 49.7753 113.98C50.5086 114.687 50.8753 115.653 50.8753 116.88C50.8753 117.493 50.7686 118.04 50.5553 118.52C50.342 118.987 50.0486 119.433 49.6753 119.86C49.302 120.273 48.8686 120.7 48.3753 121.14C47.762 121.673 47.182 122.193 46.6353 122.7C46.102 123.193 45.6686 123.733 45.3353 124.32H51.0153V126H42.5553ZM58.3911 126.36C57.0311 126.36 55.9378 126.1 55.1111 125.58C54.2844 125.047 53.6778 124.287 53.2911 123.3C52.9178 122.3 52.7311 121.107 52.7311 119.72C52.7311 118.28 52.9111 117.053 53.2711 116.04C53.6444 115.027 54.2444 114.253 55.0711 113.72C55.8978 113.187 57.0044 112.92 58.3911 112.92C59.7778 112.92 60.8778 113.187 61.6911 113.72C62.5178 114.253 63.1111 115.027 63.4711 116.04C63.8444 117.053 64.0311 118.28 64.0311 119.72C64.0311 121.107 63.8444 122.3 63.4711 123.3C63.0978 124.287 62.4978 125.047 61.6711 125.58C60.8444 126.1 59.7511 126.36 58.3911 126.36ZM58.3911 124.5C59.6711 124.5 60.5644 124.08 61.0711 123.24C61.5778 122.387 61.8311 121.213 61.8311 119.72C61.8311 118.133 61.5844 116.913 61.0911 116.06C60.5978 115.207 59.6978 114.78 58.3911 114.78C57.0844 114.78 56.1778 115.207 55.6711 116.06C55.1778 116.913 54.9311 118.133 54.9311 119.72C54.9311 121.213 55.1844 122.387 55.6911 123.24C56.1978 124.08 57.0978 124.5 58.3911 124.5ZM65.7584 126V124.92C66.1051 124.107 66.5851 123.373 67.1984 122.72C67.8251 122.067 68.4918 121.433 69.1984 120.82C69.7318 120.353 70.1718 119.96 70.5184 119.64C70.8784 119.307 71.1584 119.007 71.3584 118.74C71.5584 118.473 71.6984 118.2 71.7784 117.92C71.8584 117.627 71.8984 117.287 71.8984 116.9C71.8984 116.207 71.6984 115.68 71.2984 115.32C70.8984 114.96 70.2318 114.78 69.2984 114.78C68.7918 114.78 68.2718 114.833 67.7384 114.94C67.2184 115.047 66.7184 115.193 66.2384 115.38V113.46C66.7051 113.3 67.2584 113.173 67.8984 113.08C68.5384 112.973 69.1451 112.92 69.7184 112.92C71.1584 112.92 72.2451 113.273 72.9784 113.98C73.7118 114.687 74.0784 115.653 74.0784 116.88C74.0784 117.493 73.9718 118.04 73.7584 118.52C73.5451 118.987 73.2518 119.433 72.8784 119.86C72.5051 120.273 72.0718 120.7 71.5784 121.14C70.9651 121.673 70.3851 122.193 69.8384 122.7C69.3051 123.193 68.8718 123.733 68.5384 124.32H74.2184V126H65.7584ZM81.9742 126V123.18H75.5342V121.64L82.2342 113.12H84.1342V121.42H85.4542V123.18H84.1342V126H81.9742ZM77.6542 121.48H82.3142V115.6L77.6542 121.48Z" fill="#E5E7EB"/>
<path d="M1026.96 54.2C1024.84 54.2 1023.24 53.6267 1022.16 52.48C1021.09 51.3333 1020.56 49.78 1020.56 47.82C1020.56 46.4067 1020.79 45.1867 1021.26 44.16C1021.73 43.12 1022.43 42.32 1023.38 41.76C1024.34 41.2 1025.55 40.92 1027.02 40.92C1027.78 40.92 1028.47 40.9733 1029.08 41.08C1029.71 41.1733 1030.29 41.3133 1030.84 41.5V43.38C1029.75 42.98 1028.53 42.78 1027.2 42.78C1025.56 42.78 1024.41 43.2133 1023.74 44.08C1023.09 44.9467 1022.76 46.1933 1022.76 47.82C1022.76 49.3 1023.11 50.4267 1023.8 51.2C1024.49 51.9733 1025.57 52.36 1027.02 52.36C1028.17 52.36 1029.09 52.2267 1029.8 51.96V48.36H1026.58V46.94H1031.66V53.14C1031.25 53.4067 1030.65 53.6533 1029.88 53.88C1029.12 54.0933 1028.15 54.2 1026.96 54.2ZM1033.77 54V44.52H1035.77L1035.87 45.52C1036.34 45.1467 1036.85 44.8533 1037.41 44.64C1037.97 44.4267 1038.57 44.32 1039.21 44.32C1039.89 44.32 1040.42 44.4333 1040.79 44.66C1041.18 44.8733 1041.47 45.1733 1041.67 45.56C1042.11 45.2 1042.62 44.9067 1043.19 44.68C1043.77 44.44 1044.45 44.32 1045.25 44.32C1046.35 44.32 1047.15 44.6 1047.67 45.16C1048.19 45.72 1048.45 46.58 1048.45 47.74V54H1046.31V47.96C1046.31 47.2267 1046.16 46.7133 1045.85 46.42C1045.55 46.1267 1045.05 45.98 1044.35 45.98C1043.9 45.98 1043.47 46.06 1043.05 46.22C1042.65 46.38 1042.31 46.62 1042.01 46.94C1042.05 47.0867 1042.08 47.24 1042.09 47.4C1042.11 47.56 1042.11 47.7333 1042.11 47.92V54H1040.09V47.98C1040.09 47.2867 1039.97 46.78 1039.73 46.46C1039.49 46.14 1039.04 45.98 1038.37 45.98C1037.91 45.98 1037.46 46.0933 1037.03 46.32C1036.62 46.5333 1036.25 46.7933 1035.91 47.1V54H1033.77ZM1053.57 54.2C1052.97 54.2 1052.41 54.0933 1051.89 53.88C1051.38 53.6667 1050.97 53.3467 1050.67 52.92C1050.36 52.48 1050.21 51.94 1050.21 51.3C1050.21 50.3933 1050.51 49.6667 1051.13 49.12C1051.75 48.56 1052.71 48.28 1054.01 48.28H1057.05V47.86C1057.05 47.4067 1056.97 47.0467 1056.83 46.78C1056.69 46.5133 1056.44 46.32 1056.07 46.2C1055.71 46.08 1055.17 46.02 1054.47 46.02C1053.35 46.02 1052.3 46.1867 1051.33 46.52V44.9C1051.75 44.7267 1052.27 44.5867 1052.89 44.48C1053.5 44.3733 1054.16 44.32 1054.87 44.32C1056.25 44.32 1057.31 44.6 1058.03 45.16C1058.76 45.72 1059.13 46.6333 1059.13 47.9V54H1057.27L1057.13 53.04C1056.74 53.4133 1056.26 53.7 1055.69 53.9C1055.13 54.1 1054.42 54.2 1053.57 54.2ZM1054.15 52.64C1054.8 52.64 1055.37 52.5333 1055.85 52.32C1056.34 52.0933 1056.74 51.7933 1057.05 51.42V49.76H1054.05C1053.41 49.76 1052.94 49.8867 1052.65 50.14C1052.37 50.38 1052.23 50.7533 1052.23 51.26C1052.23 51.7533 1052.39 52.1067 1052.73 52.32C1053.06 52.5333 1053.53 52.64 1054.15 52.64ZM1062.35 42.54V40.74H1064.73V42.54H1062.35ZM1062.53 54V46.18H1061.09L1061.29 44.52H1064.71V54H1062.53ZM1069.61 54.2C1068.83 54.2 1068.25 54.0133 1067.85 53.64C1067.45 53.2533 1067.25 52.62 1067.25 51.74V40.52H1069.43V51.54C1069.43 51.9133 1069.49 52.1667 1069.63 52.3C1069.76 52.4333 1069.96 52.5 1070.23 52.5C1070.55 52.5 1070.85 52.46 1071.15 52.38V53.96C1070.89 54.0533 1070.65 54.1133 1070.41 54.14C1070.18 54.18 1069.91 54.2 1069.61 54.2ZM1077.06 47.48V45.76H1078.9V47.48H1077.06ZM1077.06 53.5V51.78H1078.9V53.5H1077.06ZM1085.65 54V41.12H1091.39C1092.37 41.12 1093.19 41.3067 1093.83 41.68C1094.47 42.0533 1094.94 42.5667 1095.25 43.22C1095.55 43.86 1095.71 44.5933 1095.71 45.42C1095.71 46.7 1095.31 47.7267 1094.51 48.5C1093.72 49.2733 1092.65 49.66 1091.31 49.66H1087.83V54H1085.65ZM1087.83 47.94H1090.91C1091.77 47.94 1092.43 47.7133 1092.87 47.26C1093.31 46.8067 1093.53 46.1933 1093.53 45.42C1093.53 44.5933 1093.31 43.9533 1092.89 43.5C1092.47 43.0467 1091.85 42.82 1091.01 42.82H1087.83V47.94ZM1101.98 54.2C1100.28 54.2 1099.02 53.7733 1098.22 52.92C1097.44 52.0667 1097.04 50.8467 1097.04 49.26C1097.04 47.6733 1097.44 46.4533 1098.24 45.6C1099.04 44.7467 1100.29 44.32 1101.98 44.32C1103.69 44.32 1104.94 44.7467 1105.74 45.6C1106.54 46.4533 1106.94 47.6733 1106.94 49.26C1106.94 50.8467 1106.54 52.0667 1105.74 52.92C1104.96 53.7733 1103.7 54.2 1101.98 54.2ZM1101.98 52.36C1102.98 52.36 1103.69 52.12 1104.1 51.64C1104.53 51.1467 1104.74 50.3533 1104.74 49.26C1104.74 48.1667 1104.53 47.38 1104.1 46.9C1103.69 46.42 1102.98 46.18 1101.98 46.18C1101 46.18 1100.29 46.42 1099.86 46.9C1099.45 47.38 1099.24 48.1667 1099.24 49.26C1099.24 50.3533 1099.45 51.1467 1099.86 51.64C1100.29 52.12 1101 52.36 1101.98 52.36ZM1113.6 54.2C1111.9 54.2 1110.64 53.7733 1109.84 52.92C1109.06 52.0667 1108.66 50.8467 1108.66 49.26C1108.66 47.6733 1109.06 46.4533 1109.86 45.6C1110.66 44.7467 1111.91 44.32 1113.6 44.32C1115.31 44.32 1116.56 44.7467 1117.36 45.6C1118.16 46.4533 1118.56 47.6733 1118.56 49.26C1118.56 50.8467 1118.16 52.0667 1117.36 52.92C1116.58 53.7733 1115.32 54.2 1113.6 54.2ZM1113.6 52.36C1114.6 52.36 1115.31 52.12 1115.72 51.64C1116.15 51.1467 1116.36 50.3533 1116.36 49.26C1116.36 48.1667 1116.15 47.38 1115.72 46.9C1115.31 46.42 1114.6 46.18 1113.6 46.18C1112.62 46.18 1111.91 46.42 1111.48 46.9C1111.07 47.38 1110.86 48.1667 1110.86 49.26C1110.86 50.3533 1111.07 51.1467 1111.48 51.64C1111.91 52.12 1112.62 52.36 1113.6 52.36ZM1120.69 54V44.52H1122.69L1122.79 45.52C1123.25 45.1467 1123.77 44.8533 1124.33 44.64C1124.89 44.4267 1125.49 44.32 1126.13 44.32C1126.81 44.32 1127.33 44.4333 1127.71 44.66C1128.09 44.8733 1128.39 45.1733 1128.59 45.56C1129.03 45.2 1129.53 44.9067 1130.11 44.68C1130.68 44.44 1131.37 44.32 1132.17 44.32C1133.26 44.32 1134.07 44.6 1134.59 45.16C1135.11 45.72 1135.37 46.58 1135.37 47.74V54H1133.23V47.96C1133.23 47.2267 1133.07 46.7133 1132.77 46.42C1132.46 46.1267 1131.96 45.98 1131.27 45.98C1130.81 45.98 1130.38 46.06 1129.97 46.22C1129.57 46.38 1129.22 46.62 1128.93 46.94C1128.97 47.0867 1128.99 47.24 1129.01 47.4C1129.02 47.56 1129.03 47.7333 1129.03 47.92V54H1127.01V47.98C1127.01 47.2867 1126.89 46.78 1126.65 46.46C1126.41 46.14 1125.95 45.98 1125.29 45.98C1124.82 45.98 1124.37 46.0933 1123.95 46.32C1123.53 46.5333 1123.16 46.7933 1122.83 47.1V54H1120.69ZM1140.48 54.2C1139.88 54.2 1139.32 54.0933 1138.8 53.88C1138.3 53.6667 1137.89 53.3467 1137.58 52.92C1137.28 52.48 1137.12 51.94 1137.12 51.3C1137.12 50.3933 1137.43 49.6667 1138.04 49.12C1138.67 48.56 1139.63 48.28 1140.92 48.28H1143.96V47.86C1143.96 47.4067 1143.89 47.0467 1143.74 46.78C1143.61 46.5133 1143.36 46.32 1142.98 46.2C1142.62 46.08 1142.09 46.02 1141.38 46.02C1140.26 46.02 1139.22 46.1867 1138.24 46.52V44.9C1138.67 44.7267 1139.19 44.5867 1139.8 44.48C1140.42 44.3733 1141.08 44.32 1141.78 44.32C1143.17 44.32 1144.22 44.6 1144.94 45.16C1145.68 45.72 1146.04 46.6333 1146.04 47.9V54H1144.18L1144.04 53.04C1143.66 53.4133 1143.18 53.7 1142.6 53.9C1142.04 54.1 1141.34 54.2 1140.48 54.2ZM1141.06 52.64C1141.72 52.64 1142.28 52.5333 1142.76 52.32C1143.26 52.0933 1143.66 51.7933 1143.96 51.42V49.76H1140.96C1140.32 49.76 1139.86 49.8867 1139.56 50.14C1139.28 50.38 1139.14 50.7533 1139.14 51.26C1139.14 51.7533 1139.31 52.1067 1139.64 52.32C1139.98 52.5333 1140.45 52.64 1141.06 52.64ZM1148.46 54V44.52H1150.46L1150.58 45.62C1151.03 45.3267 1151.57 45.06 1152.2 44.82C1152.83 44.58 1153.45 44.4133 1154.06 44.32V45.98C1153.69 46.0467 1153.28 46.1467 1152.84 46.28C1152.41 46.4 1152.01 46.54 1151.62 46.7C1151.23 46.8467 1150.91 47 1150.64 47.16V54H1148.46ZM1160.06 54.2C1158.4 54.2 1157.12 53.7933 1156.22 52.98C1155.31 52.1667 1154.86 50.92 1154.86 49.24C1154.86 47.72 1155.24 46.52 1156.02 45.64C1156.79 44.76 1157.96 44.32 1159.54 44.32C1160.98 44.32 1162.06 44.7 1162.78 45.46C1163.51 46.2067 1163.88 47.1733 1163.88 48.36V50.12H1156.94C1157.04 51.04 1157.38 51.6733 1157.94 52.02C1158.5 52.3667 1159.35 52.54 1160.5 52.54C1160.98 52.54 1161.47 52.4933 1161.98 52.4C1162.48 52.3067 1162.92 52.1867 1163.3 52.04V53.64C1162.87 53.8267 1162.38 53.9667 1161.82 54.06C1161.27 54.1533 1160.68 54.2 1160.06 54.2ZM1156.94 48.7H1161.96V48.04C1161.96 47.3867 1161.78 46.88 1161.42 46.52C1161.06 46.1467 1160.45 45.96 1159.6 45.96C1158.58 45.96 1157.88 46.18 1157.5 46.62C1157.12 47.06 1156.94 47.7533 1156.94 48.7ZM1170.8 54.2C1169.14 54.2 1167.86 53.7933 1166.96 52.98C1166.05 52.1667 1165.6 50.92 1165.6 49.24C1165.6 47.72 1165.98 46.52 1166.76 45.64C1167.53 44.76 1168.7 44.32 1170.28 44.32C1171.72 44.32 1172.8 44.7 1173.52 45.46C1174.25 46.2067 1174.62 47.1733 1174.62 48.36V50.12H1167.68C1167.78 51.04 1168.12 51.6733 1168.68 52.02C1169.24 52.3667 1170.09 52.54 1171.24 52.54C1171.72 52.54 1172.21 52.4933 1172.72 52.4C1173.22 52.3067 1173.66 52.1867 1174.04 52.04V53.64C1173.61 53.8267 1173.12 53.9667 1172.56 54.06C1172.01 54.1533 1171.42 54.2 1170.8 54.2ZM1167.68 48.7H1172.7V48.04C1172.7 47.3867 1172.52 46.88 1172.16 46.52C1171.8 46.1467 1171.19 45.96 1170.34 45.96C1169.32 45.96 1168.62 46.18 1168.24 46.62C1167.86 47.06 1167.68 47.7533 1167.68 48.7ZM1176.34 54V52.3H1178.18V54H1176.34ZM1180.31 54V44.52H1182.31L1182.41 45.52C1182.84 45.1867 1183.35 44.9067 1183.93 44.68C1184.53 44.44 1185.19 44.32 1185.91 44.32C1187.14 44.32 1188.03 44.6067 1188.59 45.18C1189.15 45.7533 1189.43 46.6467 1189.43 47.86V54H1187.27V47.96C1187.27 47.2267 1187.12 46.7133 1186.81 46.42C1186.52 46.1267 1185.96 45.98 1185.13 45.98C1184.64 45.98 1184.15 46.08 1183.67 46.28C1183.21 46.48 1182.81 46.74 1182.49 47.06V54H1180.31ZM1194.54 54.2C1193.94 54.2 1193.38 54.0933 1192.86 53.88C1192.36 53.6667 1191.95 53.3467 1191.64 52.92C1191.34 52.48 1191.18 51.94 1191.18 51.3C1191.18 50.3933 1191.49 49.6667 1192.1 49.12C1192.73 48.56 1193.69 48.28 1194.98 48.28H1198.02V47.86C1198.02 47.4067 1197.95 47.0467 1197.8 46.78C1197.67 46.5133 1197.42 46.32 1197.04 46.2C1196.68 46.08 1196.15 46.02 1195.44 46.02C1194.32 46.02 1193.28 46.1867 1192.3 46.52V44.9C1192.73 44.7267 1193.25 44.5867 1193.86 44.48C1194.48 44.3733 1195.14 44.32 1195.84 44.32C1197.23 44.32 1198.28 44.6 1199 45.16C1199.74 45.72 1200.1 46.6333 1200.1 47.9V54H1198.24L1198.1 53.04C1197.72 53.4133 1197.24 53.7 1196.66 53.9C1196.1 54.1 1195.4 54.2 1194.54 54.2ZM1195.12 52.64C1195.78 52.64 1196.34 52.5333 1196.82 52.32C1197.32 52.0933 1197.72 51.7933 1198.02 51.42V49.76H1195.02C1194.38 49.76 1193.92 49.8867 1193.62 50.14C1193.34 50.38 1193.2 50.7533 1193.2 51.26C1193.2 51.7533 1193.37 52.1067 1193.7 52.32C1194.04 52.5333 1194.51 52.64 1195.12 52.64ZM1202.52 54V44.52H1204.52L1204.62 45.52C1205.09 45.1467 1205.6 44.8533 1206.16 44.64C1206.72 44.4267 1207.32 44.32 1207.96 44.32C1208.64 44.32 1209.17 44.4333 1209.54 44.66C1209.93 44.8733 1210.22 45.1733 1210.42 45.56C1210.86 45.2 1211.37 44.9067 1211.94 44.68C1212.52 44.44 1213.2 44.32 1214 44.32C1215.1 44.32 1215.9 44.6 1216.42 45.16C1216.94 45.72 1217.2 46.58 1217.2 47.74V54H1215.06V47.96C1215.06 47.2267 1214.91 46.7133 1214.6 46.42C1214.3 46.1267 1213.8 45.98 1213.1 45.98C1212.65 45.98 1212.22 46.06 1211.8 46.22C1211.4 46.38 1211.06 46.62 1210.76 46.94C1210.8 47.0867 1210.83 47.24 1210.84 47.4C1210.86 47.56 1210.86 47.7333 1210.86 47.92V54H1208.84V47.98C1208.84 47.2867 1208.72 46.78 1208.48 46.46C1208.24 46.14 1207.79 45.98 1207.12 45.98C1206.66 45.98 1206.21 46.0933 1205.78 46.32C1205.37 46.5333 1205 46.7933 1204.66 47.1V54H1202.52ZM1219.65 54V44.52H1221.65L1221.75 45.52C1222.18 45.1867 1222.68 44.9067 1223.27 44.68C1223.87 44.44 1224.53 44.32 1225.25 44.32C1226.48 44.32 1227.37 44.6067 1227.93 45.18C1228.49 45.7533 1228.77 46.6467 1228.77 47.86V54H1226.61V47.96C1226.61 47.2267 1226.46 46.7133 1226.15 46.42C1225.86 46.1267 1225.3 45.98 1224.47 45.98C1223.98 45.98 1223.49 46.08 1223.01 46.28C1222.54 46.48 1222.15 46.74 1221.83 47.06V54H1219.65ZM1237.75 56.64C1236.43 56.64 1235.25 56.4333 1234.19 56.02C1233.15 55.6067 1232.33 54.9333 1231.71 54C1231.11 53.0533 1230.81 51.8 1230.81 50.24C1230.81 47.9067 1231.45 46.2 1232.71 45.12C1233.99 44.04 1235.75 43.5 1237.97 43.5C1240.05 43.5 1241.63 43.9733 1242.71 44.92C1243.81 45.8533 1244.35 47.1933 1244.35 48.94C1244.35 50.22 1244.05 51.24 1243.45 52C1242.85 52.7467 1241.92 53.12 1240.65 53.12H1240.03C1239.7 53.4533 1239.29 53.7133 1238.79 53.9C1238.31 54.0867 1237.72 54.18 1237.01 54.18C1236.2 54.18 1235.53 53.98 1234.99 53.58C1234.47 53.1667 1234.21 52.5733 1234.21 51.8C1234.21 51.08 1234.44 50.48 1234.89 50C1235.35 49.52 1236.11 49.28 1237.19 49.28H1239.59V48.84C1239.59 48.24 1239.46 47.8267 1239.19 47.6C1238.93 47.36 1238.38 47.24 1237.55 47.24C1236.71 47.24 1235.91 47.3733 1235.13 47.64V46.52C1235.48 46.3733 1235.9 46.2667 1236.39 46.2C1236.89 46.12 1237.39 46.08 1237.91 46.08C1238.98 46.08 1239.76 46.3067 1240.25 46.76C1240.76 47.2133 1241.01 47.9333 1241.01 48.92V51.86C1241.61 51.86 1242.05 51.6333 1242.31 51.18C1242.59 50.7133 1242.73 49.9867 1242.73 49C1242.73 47.64 1242.35 46.6267 1241.57 45.96C1240.81 45.28 1239.61 44.94 1237.97 44.94C1236.15 44.94 1234.77 45.3533 1233.83 46.18C1232.91 46.9933 1232.45 48.3533 1232.45 50.26C1232.45 51.5267 1232.68 52.52 1233.13 53.24C1233.59 53.96 1234.21 54.4667 1234.99 54.76C1235.79 55.0667 1236.7 55.22 1237.71 55.22C1239.18 55.22 1240.33 55.0933 1241.17 54.84V56.28C1240.76 56.3733 1240.26 56.4533 1239.67 56.52C1239.09 56.6 1238.45 56.64 1237.75 56.64ZM1237.37 53.06C1238.35 53.06 1239.09 52.74 1239.59 52.1V50.36H1237.49C1236.8 50.36 1236.33 50.4867 1236.09 50.74C1235.85 50.9933 1235.73 51.3467 1235.73 51.8C1235.73 52.2533 1235.87 52.58 1236.15 52.78C1236.43 52.9667 1236.84 53.06 1237.37 53.06ZM1246.49 54V44.52H1248.49L1248.59 45.52C1249.05 45.1467 1249.57 44.8533 1250.13 44.64C1250.69 44.4267 1251.29 44.32 1251.93 44.32C1252.61 44.32 1253.13 44.4333 1253.51 44.66C1253.89 44.8733 1254.19 45.1733 1254.39 45.56C1254.83 45.2 1255.33 44.9067 1255.91 44.68C1256.48 44.44 1257.17 44.32 1257.97 44.32C1259.06 44.32 1259.87 44.6 1260.39 45.16C1260.91 45.72 1261.17 46.58 1261.17 47.74V54H1259.03V47.96C1259.03 47.2267 1258.87 46.7133 1258.57 46.42C1258.26 46.1267 1257.76 45.98 1257.07 45.98C1256.61 45.98 1256.18 46.06 1255.77 46.22C1255.37 46.38 1255.02 46.62 1254.73 46.94C1254.77 47.0867 1254.79 47.24 1254.81 47.4C1254.82 47.56 1254.83 47.7333 1254.83 47.92V54H1252.81V47.98C1252.81 47.2867 1252.69 46.78 1252.45 46.46C1252.21 46.14 1251.75 45.98 1251.09 45.98C1250.62 45.98 1250.17 46.0933 1249.75 46.32C1249.33 46.5333 1248.96 46.7933 1248.63 47.1V54H1246.49ZM1266.28 54.2C1265.68 54.2 1265.12 54.0933 1264.6 53.88C1264.1 53.6667 1263.69 53.3467 1263.38 52.92C1263.08 52.48 1262.92 51.94 1262.92 51.3C1262.92 50.3933 1263.23 49.6667 1263.84 49.12C1264.47 48.56 1265.43 48.28 1266.72 48.28H1269.76V47.86C1269.76 47.4067 1269.69 47.0467 1269.54 46.78C1269.41 46.5133 1269.16 46.32 1268.78 46.2C1268.42 46.08 1267.89 46.02 1267.18 46.02C1266.06 46.02 1265.02 46.1867 1264.04 46.52V44.9C1264.47 44.7267 1264.99 44.5867 1265.6 44.48C1266.22 44.3733 1266.88 44.32 1267.58 44.32C1268.97 44.32 1270.02 44.6 1270.74 45.16C1271.48 45.72 1271.84 46.6333 1271.84 47.9V54H1269.98L1269.84 53.04C1269.46 53.4133 1268.98 53.7 1268.4 53.9C1267.84 54.1 1267.14 54.2 1266.28 54.2ZM1266.86 52.64C1267.52 52.64 1268.08 52.5333 1268.56 52.32C1269.06 52.0933 1269.46 51.7933 1269.76 51.42V49.76H1266.76C1266.12 49.76 1265.66 49.8867 1265.36 50.14C1265.08 50.38 1264.94 50.7533 1264.94 51.26C1264.94 51.7533 1265.11 52.1067 1265.44 52.32C1265.78 52.5333 1266.25 52.64 1266.86 52.64ZM1275.06 42.54V40.74H1277.44V42.54H1275.06ZM1275.24 54V46.18H1273.8L1274 44.52H1277.42V54H1275.24ZM1282.32 54.2C1281.55 54.2 1280.96 54.0133 1280.56 53.64C1280.16 53.2533 1279.96 52.62 1279.96 51.74V40.52H1282.14V51.54C1282.14 51.9133 1282.21 52.1667 1282.34 52.3C1282.48 52.4333 1282.68 52.5 1282.94 52.5C1283.26 52.5 1283.57 52.46 1283.86 52.38V53.96C1283.61 54.0533 1283.36 54.1133 1283.12 54.14C1282.9 54.18 1282.63 54.2 1282.32 54.2ZM1285.17 54V52.3H1287.01V54H1285.17ZM1289.14 54V40.52H1291.32V48.32L1295.3 44.52H1297.8L1293.94 48.34L1298.02 54H1295.72L1292.58 49.5L1291.32 50.7V54H1289.14ZM1299.89 54V44.52H1301.89L1301.99 45.52C1302.45 45.1467 1302.97 44.8533 1303.53 44.64C1304.09 44.4267 1304.69 44.32 1305.33 44.32C1306.01 44.32 1306.53 44.4333 1306.91 44.66C1307.29 44.8733 1307.59 45.1733 1307.79 45.56C1308.23 45.2 1308.73 44.9067 1309.31 44.68C1309.88 44.44 1310.57 44.32 1311.37 44.32C1312.46 44.32 1313.27 44.6 1313.79 45.16C1314.31 45.72 1314.57 46.58 1314.57 47.74V54H1312.43V47.96C1312.43 47.2267 1312.27 46.7133 1311.97 46.42C1311.66 46.1267 1311.16 45.98 1310.47 45.98C1310.01 45.98 1309.58 46.06 1309.17 46.22C1308.77 46.38 1308.42 46.62 1308.13 46.94C1308.17 47.0867 1308.19 47.24 1308.21 47.4C1308.22 47.56 1308.23 47.7333 1308.23 47.92V54H1306.21V47.98C1306.21 47.2867 1306.09 46.78 1305.85 46.46C1305.61 46.14 1305.15 45.98 1304.49 45.98C1304.02 45.98 1303.57 46.0933 1303.15 46.32C1302.73 46.5333 1302.36 46.7933 1302.03 47.1V54H1299.89ZM1320.43 54.2C1319.3 54.2 1318.43 53.8867 1317.81 53.26C1317.21 52.6333 1316.91 51.7133 1316.91 50.5V44.52H1319.09V50.5C1319.09 51.2067 1319.27 51.7267 1319.61 52.06C1319.96 52.3933 1320.49 52.56 1321.21 52.56C1321.75 52.56 1322.24 52.46 1322.69 52.26C1323.15 52.06 1323.54 51.7933 1323.87 51.46V44.52H1326.03V54H1324.05L1323.95 53.02C1323.53 53.3533 1323.02 53.6333 1322.43 53.86C1321.85 54.0867 1321.18 54.2 1320.43 54.2ZM1332.2 54.2C1331.18 54.2 1330.42 53.9333 1329.92 53.4C1329.42 52.8533 1329.18 52.1133 1329.18 51.18V46.22H1327.78V44.52H1329.18V42.34L1331.34 41.68V44.52H1333.86L1333.72 46.22H1331.34V51.06C1331.34 51.6067 1331.46 51.9933 1331.72 52.22C1331.97 52.4333 1332.38 52.54 1332.96 52.54C1333.32 52.54 1333.7 52.4733 1334.1 52.34V53.88C1333.58 54.0933 1332.94 54.2 1332.2 54.2ZM1339.38 54.2C1338.37 54.2 1337.61 53.9333 1337.1 53.4C1336.61 52.8533 1336.36 52.1133 1336.36 51.18V46.22H1334.96V44.52H1336.36V42.34L1338.52 41.68V44.52H1341.04L1340.9 46.22H1338.52V51.06C1338.52 51.6067 1338.65 51.9933 1338.9 52.22C1339.16 52.4333 1339.57 52.54 1340.14 52.54C1340.5 52.54 1340.88 52.4733 1341.28 52.34V53.88C1340.76 54.0933 1340.13 54.2 1339.38 54.2ZM1342.55 54V52.3H1344.39V54H1342.55ZM1349.49 54.2C1348.89 54.2 1348.33 54.0933 1347.81 53.88C1347.3 53.6667 1346.89 53.3467 1346.59 52.92C1346.28 52.48 1346.13 51.94 1346.13 51.3C1346.13 50.3933 1346.43 49.6667 1347.05 49.12C1347.67 48.56 1348.63 48.28 1349.93 48.28H1352.97V47.86C1352.97 47.4067 1352.89 47.0467 1352.75 46.78C1352.61 46.5133 1352.36 46.32 1351.99 46.2C1351.63 46.08 1351.09 46.02 1350.39 46.02C1349.27 46.02 1348.22 46.1867 1347.25 46.52V44.9C1347.67 44.7267 1348.19 44.5867 1348.81 44.48C1349.42 44.3733 1350.08 44.32 1350.79 44.32C1352.17 44.32 1353.23 44.6 1353.95 45.16C1354.68 45.72 1355.05 46.6333 1355.05 47.9V54H1353.19L1353.05 53.04C1352.66 53.4133 1352.18 53.7 1351.61 53.9C1351.05 54.1 1350.34 54.2 1349.49 54.2ZM1350.07 52.64C1350.72 52.64 1351.29 52.5333 1351.77 52.32C1352.26 52.0933 1352.66 51.7933 1352.97 51.42V49.76H1349.97C1349.33 49.76 1348.86 49.8867 1348.57 50.14C1348.29 50.38 1348.15 50.7533 1348.15 51.26C1348.15 51.7533 1348.31 52.1067 1348.65 52.32C1348.98 52.5333 1349.45 52.64 1350.07 52.64ZM1362.12 54.2C1360.46 54.2 1359.2 53.78 1358.34 52.94C1357.49 52.0867 1357.06 50.86 1357.06 49.26C1357.06 47.5933 1357.53 46.3533 1358.46 45.54C1359.41 44.7267 1360.67 44.32 1362.24 44.32C1362.9 44.32 1363.44 44.3667 1363.88 44.46C1364.34 44.5533 1364.77 44.7 1365.18 44.9V46.52C1364.49 46.1733 1363.65 46 1362.66 46C1361.57 46 1360.73 46.2467 1360.14 46.74C1359.56 47.22 1359.26 48.06 1359.26 49.26C1359.26 50.3933 1359.52 51.2267 1360.04 51.76C1360.56 52.28 1361.42 52.54 1362.62 52.54C1363.57 52.54 1364.43 52.36 1365.2 52V53.66C1364.76 53.8333 1364.29 53.9667 1363.78 54.06C1363.29 54.1533 1362.74 54.2 1362.12 54.2ZM1366.54 54V52.3H1368.38V54H1366.54ZM1374.13 54.2C1373.12 54.2 1372.36 53.9333 1371.85 53.4C1371.36 52.8533 1371.11 52.1133 1371.11 51.18V46.22H1369.71V44.52H1371.11V42.34L1373.27 41.68V44.52H1375.79L1375.65 46.22H1373.27V51.06C1373.27 51.6067 1373.4 51.9933 1373.65 52.22C1373.9 52.4333 1374.32 52.54 1374.89 52.54C1375.25 52.54 1375.63 52.4733 1376.03 52.34V53.88C1375.51 54.0933 1374.88 54.2 1374.13 54.2ZM1377.7 54V40.52H1379.88V45.44C1380.29 45.1067 1380.78 44.84 1381.36 44.64C1381.93 44.4267 1382.58 44.32 1383.3 44.32C1384.5 44.32 1385.38 44.6067 1385.96 45.18C1386.53 45.7533 1386.82 46.6467 1386.82 47.86V54H1384.66V47.96C1384.66 47.2267 1384.5 46.7133 1384.18 46.42C1383.87 46.1267 1383.33 45.98 1382.56 45.98C1382.08 45.98 1381.59 46.0867 1381.1 46.3C1380.6 46.5 1380.2 46.7667 1379.88 47.1V54H1377.7ZM1206.86 104.2C1204.74 104.2 1203.14 103.62 1202.04 102.46C1200.96 101.3 1200.42 99.7333 1200.42 97.76C1200.42 96.3467 1200.65 95.1333 1201.1 94.12C1201.57 93.0933 1202.28 92.3067 1203.22 91.76C1204.17 91.2 1205.38 90.92 1206.84 90.92C1207.59 90.92 1208.27 90.98 1208.88 91.1C1209.51 91.2067 1210.09 91.3533 1210.62 91.54V93.44C1210.09 93.2267 1209.52 93.0667 1208.9 92.96C1208.3 92.84 1207.67 92.78 1207 92.78C1205.4 92.78 1204.27 93.2067 1203.6 94.06C1202.95 94.9133 1202.62 96.1467 1202.62 97.76C1202.62 99.2667 1202.98 100.413 1203.7 101.2C1204.42 101.973 1205.54 102.36 1207.04 102.36C1207.66 102.36 1208.27 102.313 1208.88 102.22C1209.51 102.113 1210.1 101.953 1210.64 101.74V103.66C1210.11 103.833 1209.53 103.967 1208.9 104.06C1208.29 104.153 1207.61 104.2 1206.86 104.2ZM1217.24 104.2C1215.53 104.2 1214.28 103.773 1213.48 102.92C1212.69 102.067 1212.3 100.847 1212.3 99.26C1212.3 97.6733 1212.7 96.4533 1213.5 95.6C1214.3 94.7467 1215.54 94.32 1217.24 94.32C1218.94 94.32 1220.2 94.7467 1221 95.6C1221.8 96.4533 1222.2 97.6733 1222.2 99.26C1222.2 100.847 1221.8 102.067 1221 102.92C1220.21 103.773 1218.96 104.2 1217.24 104.2ZM1217.24 102.36C1218.24 102.36 1218.94 102.12 1219.36 101.64C1219.78 101.147 1220 100.353 1220 99.26C1220 98.1667 1219.78 97.38 1219.36 96.9C1218.94 96.42 1218.24 96.18 1217.24 96.18C1216.25 96.18 1215.54 96.42 1215.12 96.9C1214.7 97.38 1214.5 98.1667 1214.5 99.26C1214.5 100.353 1214.7 101.147 1215.12 101.64C1215.54 102.12 1216.25 102.36 1217.24 102.36ZM1224.32 104V94.52H1226.32L1226.42 95.52C1226.85 95.1867 1227.35 94.9067 1227.94 94.68C1228.54 94.44 1229.2 94.32 1229.92 94.32C1231.15 94.32 1232.04 94.6067 1232.6 95.18C1233.16 95.7533 1233.44 96.6467 1233.44 97.86V104H1231.28V97.96C1231.28 97.2267 1231.13 96.7133 1230.82 96.42C1230.53 96.1267 1229.97 95.98 1229.14 95.98C1228.65 95.98 1228.16 96.08 1227.68 96.28C1227.21 96.48 1226.82 96.74 1226.5 97.06V104H1224.32ZM1239.5 104.2C1238.49 104.2 1237.73 103.933 1237.22 103.4C1236.73 102.853 1236.48 102.113 1236.48 101.18V96.22H1235.08V94.52H1236.48V92.34L1238.64 91.68V94.52H1241.16L1241.02 96.22H1238.64V101.06C1238.64 101.607 1238.77 101.993 1239.02 102.22C1239.27 102.433 1239.69 102.54 1240.26 102.54C1240.62 102.54 1241 102.473 1241.4 102.34V103.88C1240.88 104.093 1240.25 104.2 1239.5 104.2ZM1246.03 104.2C1245.43 104.2 1244.87 104.093 1244.35 103.88C1243.84 103.667 1243.44 103.347 1243.13 102.92C1242.82 102.48 1242.67 101.94 1242.67 101.3C1242.67 100.393 1242.98 99.6667 1243.59 99.12C1244.22 98.56 1245.18 98.28 1246.47 98.28H1249.51V97.86C1249.51 97.4067 1249.44 97.0467 1249.29 96.78C1249.16 96.5133 1248.9 96.32 1248.53 96.2C1248.17 96.08 1247.64 96.02 1246.93 96.02C1245.81 96.02 1244.76 96.1867 1243.79 96.52V94.9C1244.22 94.7267 1244.74 94.5867 1245.35 94.48C1245.96 94.3733 1246.62 94.32 1247.33 94.32C1248.72 94.32 1249.77 94.6 1250.49 95.16C1251.22 95.72 1251.59 96.6333 1251.59 97.9V104H1249.73L1249.59 103.04C1249.2 103.413 1248.72 103.7 1248.15 103.9C1247.59 104.1 1246.88 104.2 1246.03 104.2ZM1246.61 102.64C1247.26 102.64 1247.83 102.533 1248.31 102.32C1248.8 102.093 1249.2 101.793 1249.51 101.42V99.76H1246.51C1245.87 99.76 1245.4 99.8867 1245.11 100.14C1244.83 100.38 1244.69 100.753 1244.69 101.26C1244.69 101.753 1244.86 102.107 1245.19 102.32C1245.52 102.533 1246 102.64 1246.61 102.64ZM1258.67 104.2C1257 104.2 1255.74 103.78 1254.89 102.94C1254.03 102.087 1253.61 100.86 1253.61 99.26C1253.61 97.5933 1254.07 96.3533 1255.01 95.54C1255.95 94.7267 1257.21 94.32 1258.79 94.32C1259.44 94.32 1259.99 94.3667 1260.43 94.46C1260.88 94.5533 1261.31 94.7 1261.73 94.9V96.52C1261.03 96.1733 1260.19 96 1259.21 96C1258.11 96 1257.27 96.2467 1256.69 96.74C1256.1 97.22 1255.81 98.06 1255.81 99.26C1255.81 100.393 1256.07 101.227 1256.59 101.76C1257.11 102.28 1257.97 102.54 1259.17 102.54C1260.11 102.54 1260.97 102.36 1261.75 102V103.66C1261.31 103.833 1260.83 103.967 1260.33 104.06C1259.83 104.153 1259.28 104.2 1258.67 104.2ZM1267.1 104.2C1266.09 104.2 1265.33 103.933 1264.82 103.4C1264.33 102.853 1264.08 102.113 1264.08 101.18V96.22H1262.68V94.52H1264.08V92.34L1266.24 91.68V94.52H1268.76L1268.62 96.22H1266.24V101.06C1266.24 101.607 1266.37 101.993 1266.62 102.22C1266.87 102.433 1267.29 102.54 1267.86 102.54C1268.22 102.54 1268.6 102.473 1269 102.34V103.88C1268.48 104.093 1267.85 104.2 1267.1 104.2ZM1274.88 97.48V95.76H1276.72V97.48H1274.88ZM1274.88 103.5V101.78H1276.72V103.5H1274.88ZM1288.72 104.36C1287.36 104.36 1286.27 104.1 1285.44 103.58C1284.61 103.047 1284.01 102.287 1283.62 101.3C1283.25 100.3 1283.06 99.1067 1283.06 97.72C1283.06 96.28 1283.24 95.0533 1283.6 94.04C1283.97 93.0267 1284.57 92.2533 1285.4 91.72C1286.23 91.1867 1287.33 90.92 1288.72 90.92C1290.11 90.92 1291.21 91.1867 1292.02 91.72C1292.85 92.2533 1293.44 93.0267 1293.8 94.04C1294.17 95.0533 1294.36 96.28 1294.36 97.72C1294.36 99.1067 1294.17 100.3 1293.8 101.3C1293.43 102.287 1292.83 103.047 1292 103.58C1291.17 104.1 1290.08 104.36 1288.72 104.36ZM1288.72 102.5C1290 102.5 1290.89 102.08 1291.4 101.24C1291.91 100.387 1292.16 99.2133 1292.16 97.72C1292.16 96.1333 1291.91 94.9133 1291.42 94.06C1290.93 93.2067 1290.03 92.78 1288.72 92.78C1287.41 92.78 1286.51 93.2067 1286 94.06C1285.51 94.9133 1285.26 96.1333 1285.26 97.72C1285.26 99.2133 1285.51 100.387 1286.02 101.24C1286.53 102.08 1287.43 102.5 1288.72 102.5ZM1298.17 104V93.04L1296.09 93.4V91.58L1300.33 90.92V104H1298.17ZM1302.47 104V102.92C1302.82 102.107 1303.3 101.373 1303.91 100.72C1304.54 100.067 1305.21 99.4333 1305.91 98.82C1306.45 98.3533 1306.89 97.96 1307.23 97.64C1307.59 97.3067 1307.87 97.0067 1308.07 96.74C1308.27 96.4733 1308.41 96.2 1308.49 95.92C1308.57 95.6267 1308.61 95.2867 1308.61 94.9C1308.61 94.2067 1308.41 93.68 1308.01 93.32C1307.61 92.96 1306.95 92.78 1306.01 92.78C1305.51 92.78 1304.99 92.8333 1304.45 92.94C1303.93 93.0467 1303.43 93.1933 1302.95 93.38V91.46C1303.42 91.3 1303.97 91.1733 1304.61 91.08C1305.25 90.9733 1305.86 90.92 1306.43 90.92C1307.87 90.92 1308.96 91.2733 1309.69 91.98C1310.43 92.6867 1310.79 93.6533 1310.79 94.88C1310.79 95.4933 1310.69 96.04 1310.47 96.52C1310.26 96.9867 1309.97 97.4333 1309.59 97.86C1309.22 98.2733 1308.79 98.7 1308.29 99.14C1307.68 99.6733 1307.1 100.193 1306.55 100.7C1306.02 101.193 1305.59 101.733 1305.25 102.32H1310.93V104H1302.47ZM1316.31 104.2C1315.92 104.2 1315.5 104.173 1315.03 104.12C1314.56 104.08 1314.12 104.013 1313.69 103.92C1313.28 103.827 1312.93 103.727 1312.65 103.62V101.72C1313.18 101.933 1313.73 102.093 1314.29 102.2C1314.86 102.293 1315.44 102.34 1316.01 102.34C1317.05 102.34 1317.82 102.187 1318.33 101.88C1318.84 101.573 1319.09 101.033 1319.09 100.26C1319.09 99.5667 1318.86 99.0667 1318.39 98.76C1317.94 98.4533 1317.28 98.3 1316.43 98.3H1314.49L1314.67 96.68H1316.29C1317.98 96.68 1318.83 96.0133 1318.83 94.68C1318.83 94.0267 1318.6 93.5467 1318.15 93.24C1317.71 92.9333 1317 92.78 1316.01 92.78C1315.46 92.78 1314.91 92.8333 1314.35 92.94C1313.8 93.0467 1313.32 93.1933 1312.89 93.38V91.52C1313.29 91.36 1313.81 91.22 1314.45 91.1C1315.09 90.98 1315.72 90.92 1316.35 90.92C1317.92 90.92 1319.09 91.2533 1319.85 91.92C1320.62 92.5867 1321.01 93.44 1321.01 94.48C1321.01 95.12 1320.85 95.72 1320.53 96.28C1320.22 96.84 1319.74 97.24 1319.07 97.48C1319.84 97.68 1320.4 98.04 1320.75 98.56C1321.11 99.08 1321.29 99.6933 1321.29 100.4C1321.29 101.693 1320.84 102.653 1319.93 103.28C1319.02 103.893 1317.82 104.2 1316.31 104.2ZM1329.06 104V101.18H1322.62V99.64L1329.32 91.12H1331.22V99.42H1332.54V101.18H1331.22V104H1329.06ZM1324.74 99.48H1329.4V93.6L1324.74 99.48ZM1337.52 104.2C1336.95 104.2 1336.32 104.153 1335.64 104.06C1334.96 103.967 1334.39 103.82 1333.94 103.62V101.72C1334.41 101.92 1334.94 102.073 1335.54 102.18C1336.14 102.287 1336.71 102.34 1337.24 102.34C1338.27 102.34 1339.02 102.167 1339.5 101.82C1339.99 101.46 1340.24 100.873 1340.24 100.06C1340.24 99.3133 1340.07 98.76 1339.72 98.4C1339.37 98.04 1338.69 97.86 1337.68 97.86H1333.88V96.54L1334.22 91.12H1341.54L1341.36 92.8H1336.06L1335.84 96.18H1338.02C1339.55 96.18 1340.67 96.5067 1341.38 97.16C1342.09 97.8133 1342.44 98.7933 1342.44 100.1C1342.44 101.367 1342.03 102.367 1341.2 103.1C1340.37 103.833 1339.15 104.2 1337.52 104.2ZM1349.05 104.2C1347.44 104.2 1346.22 103.8 1345.39 103C1344.58 102.2 1344.17 100.94 1344.17 99.22V96.32C1344.17 95.2533 1344.39 94.3133 1344.83 93.5C1345.27 92.6867 1345.9 92.0533 1346.71 91.6C1347.53 91.1467 1348.49 90.92 1349.61 90.92C1350.27 90.92 1350.83 90.96 1351.31 91.04C1351.81 91.12 1352.26 91.2333 1352.67 91.38V93.24C1352.26 93.0933 1351.81 92.98 1351.33 92.9C1350.87 92.82 1350.34 92.78 1349.75 92.78C1348.55 92.78 1347.67 93.0667 1347.09 93.64C1346.52 94.2 1346.23 94.9533 1346.23 95.9V96.7C1346.7 96.3533 1347.23 96.1 1347.83 95.94C1348.45 95.7667 1349 95.68 1349.49 95.68C1351 95.68 1352.11 96.0467 1352.83 96.78C1353.55 97.5133 1353.91 98.5533 1353.91 99.9C1353.91 101.18 1353.52 102.22 1352.73 103.02C1351.95 103.807 1350.72 104.2 1349.05 104.2ZM1349.07 102.56C1350.03 102.56 1350.75 102.327 1351.23 101.86C1351.71 101.393 1351.95 100.767 1351.95 99.98C1351.95 99.1533 1351.75 98.5133 1351.35 98.06C1350.97 97.5933 1350.24 97.36 1349.17 97.36C1348.64 97.36 1348.11 97.4533 1347.59 97.64C1347.09 97.8133 1346.63 98.0467 1346.23 98.34V99.72C1346.23 101.613 1347.18 102.56 1349.07 102.56ZM1360.68 104.2C1357.32 104.2 1355.64 102.973 1355.64 100.52C1355.64 99.7867 1355.83 99.1333 1356.22 98.56C1356.62 97.9867 1357.18 97.58 1357.92 97.34C1357.25 97.0867 1356.76 96.7133 1356.46 96.22C1356.15 95.7133 1356 95.1733 1356 94.6C1356 93.4933 1356.38 92.6067 1357.14 91.94C1357.91 91.26 1359.09 90.92 1360.68 90.92C1362.3 90.92 1363.49 91.26 1364.24 91.94C1364.98 92.6067 1365.36 93.4933 1365.36 94.6C1365.36 95.2133 1365.2 95.7867 1364.9 96.32C1364.6 96.84 1364.08 97.24 1363.34 97.52C1364.16 97.76 1364.76 98.1333 1365.14 98.64C1365.51 99.1333 1365.7 99.76 1365.7 100.52C1365.7 102.973 1364.02 104.2 1360.68 104.2ZM1361.22 96.84C1361.95 96.6533 1362.48 96.4 1362.82 96.08C1363.16 95.76 1363.34 95.28 1363.34 94.64C1363.34 93.3067 1362.45 92.64 1360.68 92.64C1359.81 92.64 1359.15 92.8 1358.7 93.12C1358.24 93.44 1358.02 93.9467 1358.02 94.64C1358.02 95.6933 1358.61 96.3333 1359.8 96.56L1361.22 96.84ZM1360.68 102.5C1361.68 102.5 1362.42 102.34 1362.92 102.02C1363.42 101.687 1363.68 101.173 1363.68 100.48C1363.68 99.8533 1363.5 99.4 1363.14 99.12C1362.79 98.8267 1362.25 98.6067 1361.52 98.46L1359.88 98.12C1359.2 98.2667 1358.66 98.5133 1358.26 98.86C1357.86 99.1933 1357.66 99.72 1357.66 100.44C1357.66 101.16 1357.91 101.687 1358.42 102.02C1358.94 102.34 1359.69 102.5 1360.68 102.5ZM1368.77 104L1373.51 92.8H1367.23V91.12H1375.85V92.52L1370.99 104H1368.77ZM1381.7 104.2C1381.04 104.2 1380.48 104.16 1380 104.08C1379.52 104 1379.06 103.893 1378.64 103.76V101.88C1379.05 102.04 1379.49 102.16 1379.96 102.24C1380.44 102.32 1380.97 102.36 1381.56 102.36C1382.76 102.36 1383.64 102.073 1384.22 101.5C1384.79 100.927 1385.08 100.167 1385.08 99.22V98.42C1384.61 98.7533 1384.08 99.0067 1383.48 99.18C1382.88 99.3533 1382.32 99.44 1381.82 99.44C1380.32 99.44 1379.21 99.0733 1378.48 98.34C1377.76 97.6067 1377.4 96.5667 1377.4 95.22C1377.4 93.9533 1377.79 92.92 1378.58 92.12C1379.36 91.32 1380.59 90.92 1382.26 90.92C1383.87 90.92 1385.08 91.3267 1385.9 92.14C1386.72 92.94 1387.14 94.1933 1387.14 95.9V98.8C1387.14 99.8667 1386.92 100.807 1386.48 101.62C1386.04 102.433 1385.41 103.067 1384.6 103.52C1383.78 103.973 1382.82 104.2 1381.7 104.2ZM1382.14 97.78C1382.68 97.78 1383.21 97.6867 1383.72 97.5C1384.22 97.3133 1384.68 97.08 1385.08 96.8V95.4C1385.08 93.52 1384.13 92.58 1382.24 92.58C1381.28 92.58 1380.56 92.8133 1380.08 93.28C1379.6 93.7467 1379.36 94.3733 1379.36 95.16C1379.36 95.9733 1379.55 96.6133 1379.94 97.08C1380.34 97.5467 1381.07 97.78 1382.14 97.78Z" fill="#E5E7EB"/>
</g>
<defs>
<filter id="filter0_f_235_27117" x="-286" y="-295" width="1215" height="1215" filterUnits="userSpaceOnUse" color-interpolation-filters="sRGB">
<feFlood flood-opacity="0" result="BackgroundImageFix"/>
<feBlend mode="normal" in="SourceGraphic" in2="BackgroundImageFix" result="shape"/>
<feGaussianBlur stdDeviation="86.5" result="effect1_foregroundBlur_235_27117"/>
</filter>
<filter id="filter1_f_235_27117" x="324" y="-1625" width="2020" height="2020" filterUnits="userSpaceOnUse" color-interpolation-filters="sRGB">
<feFlood flood-opacity="0" result="BackgroundImageFix"/>
<feBlend mode="normal" in="SourceGraphic" in2="BackgroundImageFix" result="shape"/>
<feGaussianBlur stdDeviation="86.5" result="effect1_foregroundBlur_235_27117"/>
</filter>
<radialGradient id="paint0_diamond_235_27117" cx="0" cy="0" r="1" gradientUnits="userSpaceOnUse" gradientTransform="translate(115.5 -11) rotate(74.7961) scale(785.493)">
<stop stop-color="#9D01C3"/>
<stop offset="1" stop-color="#9D01C3" stop-opacity="0"/>
</radialGradient>
<radialGradient id="paint1_diamond_235_27117" cx="0" cy="0" r="1" gradientUnits="userSpaceOnUse" gradientTransform="translate(937.172 -1238.17) rotate(74.7961) scale(1513.14 1513.14)">
<stop stop-color="#9D01C3"/>
<stop offset="1" stop-color="#9D01C3" stop-opacity="0"/>
</radialGradient>
<clipPath id="clip0_235_27117">
<rect width="1440" height="145" fill="white"/>
</clipPath>
</defs>
</svg>
