<svg width="283" height="76" viewBox="0 0 283 76" fill="none" xmlns="http://www.w3.org/2000/svg">
<rect width="283" height="76" rx="38" fill="white"/>
<g filter="url(#filter0_i_498_1547)">
<circle cx="39" cy="38" r="31" fill="white"/>
</g>
<path d="M28 37.125C28 36.5037 28.5037 36 29.125 36H31.375C31.9963 36 32.5 36.5037 32.5 37.125V43.875C32.5 44.4963 31.9963 45 31.375 45H29.125C28.5037 45 28 44.4963 28 43.875V37.125Z" stroke="url(#paint0_angular_498_1547)" stroke-width="1.5" stroke-linecap="round" stroke-linejoin="round"/>
<path d="M34.75 32.625C34.75 32.0037 35.2537 31.5 35.875 31.5H38.125C38.7463 31.5 39.25 32.0037 39.25 32.625V43.875C39.25 44.4963 38.7463 45 38.125 45H35.875C35.2537 45 34.75 44.4963 34.75 43.875V32.625Z" stroke="url(#paint1_angular_498_1547)" stroke-width="1.5" stroke-linecap="round" stroke-linejoin="round"/>
<path d="M41.5 28.125C41.5 27.5037 42.0037 27 42.625 27H44.875C45.4963 27 46 27.5037 46 28.125V43.875C46 44.4963 45.4963 45 44.875 45H42.625C42.0037 45 41.5 44.4963 41.5 43.875V28.125Z" stroke="url(#paint2_angular_498_1547)" stroke-width="1.5" stroke-linecap="round" stroke-linejoin="round"/>
<path d="M90.368 47V31.544H93.608V44.504H101.216V47H90.368ZM108.319 47.24C106.351 47.24 104.791 46.752 103.639 45.776C102.487 44.784 101.911 43.288 101.911 41.288C101.911 39.48 102.391 38.048 103.351 36.992C104.327 35.92 105.775 35.384 107.695 35.384C109.455 35.384 110.799 35.848 111.727 36.776C112.671 37.688 113.143 38.888 113.143 40.376V42.44H104.911C105.087 43.352 105.503 43.976 106.159 44.312C106.831 44.648 107.775 44.816 108.991 44.816C109.599 44.816 110.215 44.76 110.839 44.648C111.479 44.536 112.023 44.392 112.471 44.216V46.52C111.943 46.76 111.327 46.936 110.623 47.048C109.919 47.176 109.151 47.24 108.319 47.24ZM104.911 40.448H110.311V39.824C110.311 39.168 110.119 38.656 109.735 38.288C109.351 37.904 108.703 37.712 107.791 37.712C106.719 37.712 105.967 37.928 105.535 38.36C105.119 38.792 104.911 39.488 104.911 40.448ZM119.911 47.24C118.599 47.24 117.623 46.896 116.983 46.208C116.359 45.52 116.047 44.584 116.047 43.4V38.12H114.439V35.624H116.047V33.176L119.287 32.216V35.624H122.167L121.975 38.12H119.287V43.184C119.287 43.808 119.431 44.24 119.719 44.48C120.007 44.704 120.455 44.816 121.063 44.816C121.511 44.816 121.975 44.736 122.455 44.576V46.808C122.103 46.952 121.719 47.056 121.303 47.12C120.887 47.2 120.423 47.24 119.911 47.24ZM123.029 36.248L124.373 31.304H127.157L125.477 36.248H123.029ZM132.345 47.24C131.497 47.24 130.689 47.176 129.921 47.048C129.153 46.936 128.537 46.792 128.073 46.616V43.928C128.633 44.152 129.265 44.328 129.969 44.456C130.673 44.568 131.321 44.624 131.913 44.624C132.713 44.624 133.273 44.576 133.593 44.48C133.929 44.384 134.097 44.168 134.097 43.832C134.097 43.448 133.841 43.168 133.329 42.992C132.833 42.816 132.089 42.568 131.097 42.248C130.057 41.896 129.257 41.472 128.697 40.976C128.137 40.48 127.857 39.744 127.857 38.768C127.857 37.68 128.249 36.848 129.033 36.272C129.833 35.68 131.113 35.384 132.873 35.384C133.577 35.384 134.241 35.44 134.865 35.552C135.489 35.648 136.017 35.768 136.449 35.912V38.576C136.017 38.368 135.521 38.216 134.961 38.12C134.401 38.008 133.881 37.952 133.401 37.952C132.713 37.952 132.161 38 131.745 38.096C131.345 38.192 131.145 38.4 131.145 38.72C131.145 39.072 131.361 39.32 131.793 39.464C132.241 39.608 132.929 39.824 133.857 40.112C134.769 40.384 135.481 40.68 135.993 41C136.505 41.32 136.865 41.704 137.073 42.152C137.281 42.584 137.385 43.128 137.385 43.784C137.385 46.088 135.705 47.24 132.345 47.24ZM148.699 47V34.04H143.947V31.544H156.667V34.04H151.939V47H148.699ZM156.415 47V35.624H159.415L159.559 36.8C160.071 36.48 160.703 36.192 161.455 35.936C162.223 35.664 162.975 35.48 163.711 35.384V37.832C163.279 37.896 162.807 37.992 162.295 38.12C161.783 38.248 161.295 38.392 160.831 38.552C160.367 38.712 159.975 38.88 159.655 39.056V47H156.415ZM168.217 47.24C167.497 47.24 166.825 47.112 166.201 46.856C165.593 46.584 165.097 46.192 164.713 45.68C164.345 45.152 164.161 44.496 164.161 43.712C164.161 42.592 164.553 41.696 165.337 41.024C166.137 40.352 167.313 40.016 168.865 40.016H172.225V39.704C172.225 39 172.025 38.504 171.625 38.216C171.241 37.928 170.457 37.784 169.273 37.784C167.977 37.784 166.729 37.984 165.529 38.384V36.104C166.057 35.896 166.697 35.728 167.449 35.6C168.217 35.456 169.049 35.384 169.945 35.384C171.657 35.384 172.977 35.736 173.905 36.44C174.849 37.128 175.321 38.24 175.321 39.776V47H172.513L172.345 45.968C171.897 46.368 171.345 46.68 170.689 46.904C170.033 47.128 169.209 47.24 168.217 47.24ZM169.105 45.104C169.825 45.104 170.449 44.984 170.977 44.744C171.505 44.504 171.921 44.2 172.225 43.832V42.032H168.937C167.673 42.032 167.041 42.552 167.041 43.592C167.041 44.6 167.729 45.104 169.105 45.104ZM182.683 47.24C181.675 47.24 180.771 47.064 179.971 46.712C179.187 46.344 178.571 45.752 178.123 44.936C177.675 44.104 177.451 43.008 177.451 41.648C177.451 40.288 177.699 39.144 178.195 38.216C178.691 37.288 179.355 36.584 180.187 36.104C181.019 35.624 181.931 35.384 182.923 35.384C184.171 35.384 185.235 35.672 186.115 36.248V30.824H189.355V47H186.571L186.379 45.944C185.883 46.376 185.339 46.704 184.747 46.928C184.171 47.136 183.483 47.24 182.683 47.24ZM183.571 44.864C184.579 44.864 185.427 44.52 186.115 43.832V38.648C185.443 38.056 184.659 37.76 183.763 37.76C181.747 37.76 180.739 39.056 180.739 41.648C180.739 42.864 180.987 43.704 181.483 44.168C181.979 44.632 182.675 44.864 183.571 44.864ZM197.78 47.24C195.812 47.24 194.252 46.752 193.1 45.776C191.948 44.784 191.372 43.288 191.372 41.288C191.372 39.48 191.852 38.048 192.812 36.992C193.788 35.92 195.236 35.384 197.156 35.384C198.916 35.384 200.26 35.848 201.188 36.776C202.132 37.688 202.604 38.888 202.604 40.376V42.44H194.372C194.548 43.352 194.964 43.976 195.62 44.312C196.292 44.648 197.236 44.816 198.452 44.816C199.06 44.816 199.676 44.76 200.3 44.648C200.94 44.536 201.484 44.392 201.932 44.216V46.52C201.404 46.76 200.788 46.936 200.084 47.048C199.38 47.176 198.612 47.24 197.78 47.24ZM194.372 40.448H199.772V39.824C199.772 39.168 199.58 38.656 199.196 38.288C198.812 37.904 198.164 37.712 197.252 37.712C196.18 37.712 195.428 37.928 194.996 38.36C194.58 38.792 194.372 39.488 194.372 40.448ZM210.134 47V31.544H212.942L220.262 41.84V31.544H223.502V47H220.694L213.374 36.704V47H210.134ZM231.923 47.24C229.795 47.24 228.235 46.728 227.243 45.704C226.251 44.664 225.755 43.2 225.755 41.312C225.755 39.424 226.251 37.968 227.243 36.944C228.251 35.904 229.811 35.384 231.923 35.384C234.051 35.384 235.611 35.904 236.603 36.944C237.611 37.968 238.115 39.424 238.115 41.312C238.115 43.2 237.619 44.664 236.627 45.704C235.635 46.728 234.067 47.24 231.923 47.24ZM231.923 44.48C232.963 44.48 233.707 44.248 234.155 43.784C234.603 43.304 234.827 42.48 234.827 41.312C234.827 40.144 234.603 39.328 234.155 38.864C233.707 38.384 232.963 38.144 231.923 38.144C230.899 38.144 230.163 38.384 229.715 38.864C229.267 39.328 229.043 40.144 229.043 41.312C229.043 42.48 229.267 43.304 229.715 43.784C230.163 44.248 230.899 44.48 231.923 44.48ZM241.81 47L238.81 35.624H242.05L243.778 43.016L245.674 37.088V35.624H248.146L250.306 43.016L251.986 35.624H255.202L252.226 47H249.25L247.066 40.352L244.834 47H241.81Z" fill="url(#paint3_linear_498_1547)"/>
<defs>
<filter id="filter0_i_498_1547" x="8" y="7" width="62" height="66" filterUnits="userSpaceOnUse" color-interpolation-filters="sRGB">
<feFlood flood-opacity="0" result="BackgroundImageFix"/>
<feBlend mode="normal" in="SourceGraphic" in2="BackgroundImageFix" result="shape"/>
<feColorMatrix in="SourceAlpha" type="matrix" values="0 0 0 0 0 0 0 0 0 0 0 0 0 0 0 0 0 0 127 0" result="hardAlpha"/>
<feOffset dy="4"/>
<feGaussianBlur stdDeviation="3.95"/>
<feComposite in2="hardAlpha" operator="arithmetic" k2="-1" k3="1"/>
<feColorMatrix type="matrix" values="0 0 0 0 0 0 0 0 0 0 0 0 0 0 0 0 0 0 0.15 0"/>
<feBlend mode="normal" in2="shape" result="effect1_innerShadow_498_1547"/>
</filter>
<radialGradient id="paint0_angular_498_1547" cx="0" cy="0" r="1" gradientUnits="userSpaceOnUse" gradientTransform="translate(37 36) rotate(90) scale(9)">
<stop stop-color="#B72CD3"/>
<stop offset="0.51" stop-color="#3DDE2F"/>
<stop offset="1" stop-color="#3312FF"/>
</radialGradient>
<radialGradient id="paint1_angular_498_1547" cx="0" cy="0" r="1" gradientUnits="userSpaceOnUse" gradientTransform="translate(37 36) rotate(90) scale(9)">
<stop stop-color="#B72CD3"/>
<stop offset="0.51" stop-color="#3DDE2F"/>
<stop offset="1" stop-color="#3312FF"/>
</radialGradient>
<radialGradient id="paint2_angular_498_1547" cx="0" cy="0" r="1" gradientUnits="userSpaceOnUse" gradientTransform="translate(37 36) rotate(90) scale(9)">
<stop stop-color="#B72CD3"/>
<stop offset="0.51" stop-color="#3DDE2F"/>
<stop offset="1" stop-color="#3312FF"/>
</radialGradient>
<linearGradient id="paint3_linear_498_1547" x1="89" y1="38.5" x2="268" y2="38.5" gradientUnits="userSpaceOnUse">
<stop stop-color="#878791"/>
<stop offset="1" stop-color="#28282B"/>
</linearGradient>
</defs>
</svg>
