<svg width="477" height="270" viewBox="0 0 477 270" fill="none" xmlns="http://www.w3.org/2000/svg">
<g filter="url(#filter0_d_375_1625)">
<rect x="97" y="92.9999" width="283" height="76" rx="38" fill="white"/>
<g filter="url(#filter1_i_375_1625)">
<circle cx="136" cy="131" r="31" fill="white"/>
</g>
<path d="M125 130.125C125 129.504 125.504 129 126.125 129H128.375C128.996 129 129.5 129.504 129.5 130.125V136.875C129.5 137.496 128.996 138 128.375 138H126.125C125.504 138 125 137.496 125 136.875V130.125Z" stroke="url(#paint0_angular_375_1625)" stroke-width="1.5" stroke-linecap="round" stroke-linejoin="round"/>
<path d="M131.75 125.625C131.75 125.004 132.254 124.5 132.875 124.5H135.125C135.746 124.5 136.25 125.004 136.25 125.625V136.875C136.25 137.496 135.746 138 135.125 138H132.875C132.254 138 131.75 137.496 131.75 136.875V125.625Z" stroke="url(#paint1_angular_375_1625)" stroke-width="1.5" stroke-linecap="round" stroke-linejoin="round"/>
<path d="M138.5 121.125C138.5 120.504 139.004 120 139.625 120H141.875C142.496 120 143 120.504 143 121.125V136.875C143 137.496 142.496 138 141.875 138H139.625C139.004 138 138.5 137.496 138.5 136.875V121.125Z" stroke="url(#paint2_angular_375_1625)" stroke-width="1.5" stroke-linecap="round" stroke-linejoin="round"/>
<path d="M203.678 140C202.638 140 201.902 139.784 201.47 139.352C201.054 138.92 200.846 138.24 200.846 137.312V127.04H204.086V136.472C204.086 137.144 204.414 137.48 205.07 137.48H205.886V140H203.678ZM213.701 140.24C211.765 140.24 210.309 139.792 209.333 138.896C208.357 138 207.869 136.776 207.869 135.224V134.408C207.869 133.864 207.973 133.376 208.181 132.944C208.389 132.512 208.621 132.128 208.877 131.792C209.149 131.456 209.389 131.144 209.597 130.856C209.805 130.568 209.909 130.296 209.909 130.04C209.909 129.8 209.853 129.64 209.741 129.56C209.629 129.48 209.429 129.44 209.141 129.44H207.581L207.845 127.04H211.205C212.533 127.04 213.197 127.656 213.197 128.888C213.197 129.432 213.093 129.928 212.885 130.376C212.677 130.808 212.429 131.224 212.141 131.624C211.869 132.024 211.629 132.448 211.421 132.896C211.213 133.328 211.109 133.824 211.109 134.384V135.416C211.109 136.952 211.973 137.72 213.701 137.72C215.461 137.72 216.341 136.92 216.341 135.32V127.04H219.581V135.176C219.581 136.728 219.061 137.96 218.021 138.872C216.981 139.784 215.541 140.24 213.701 140.24ZM213.622 125.264V123.128H211.75V120.92H215.806V123.056H220.942L220.822 125.264H213.622ZM227.015 140V132.032C227.015 131.168 226.847 130.504 226.511 130.04C226.175 129.56 225.503 129.32 224.495 129.32C223.967 129.32 223.407 129.384 222.815 129.512C222.223 129.624 221.695 129.768 221.231 129.944V127.568C221.711 127.344 222.303 127.16 223.007 127.016C223.711 126.872 224.415 126.8 225.119 126.8C226.943 126.8 228.255 127.192 229.055 127.976C229.855 128.744 230.255 129.944 230.255 131.576V140H227.015ZM237.222 140.24C236.406 140.24 235.654 140.112 234.966 139.856C234.278 139.584 233.726 139.152 233.31 138.56C232.91 137.952 232.71 137.152 232.71 136.16C232.71 134.864 233.15 133.872 234.03 133.184C234.91 132.48 236.174 132.128 237.822 132.128H241.494V131.504C241.494 130.704 241.27 130.144 240.822 129.824C240.374 129.488 239.582 129.32 238.446 129.32C237.662 129.32 236.918 129.376 236.214 129.488C235.526 129.584 234.838 129.744 234.15 129.968V127.544C234.806 127.336 235.566 127.16 236.43 127.016C237.294 126.872 238.142 126.8 238.974 126.8C239.406 126.8 239.814 126.824 240.198 126.872C240.582 126.904 240.942 126.96 241.278 127.04H245.79L245.622 129.512H244.158C244.35 129.816 244.494 130.168 244.59 130.568C244.686 130.968 244.734 131.392 244.734 131.84V140H241.494V134.504H238.014C237.326 134.504 236.782 134.624 236.382 134.864C235.982 135.104 235.782 135.536 235.782 136.16C235.782 136.752 235.958 137.16 236.31 137.384C236.662 137.608 237.254 137.72 238.086 137.72C238.39 137.72 238.686 137.704 238.974 137.672C239.278 137.64 239.534 137.592 239.742 137.528V139.904C239.438 140 239.062 140.08 238.614 140.144C238.182 140.208 237.718 140.24 237.222 140.24ZM241.366 146.336C240.39 146.336 239.622 146.144 239.062 145.76C238.502 145.376 238.222 144.888 238.222 144.296V143.168H236.902L237.022 141.224H240.478V143.528C240.478 144.04 240.774 144.296 241.366 144.296C241.974 144.296 242.278 144.04 242.278 143.528V141.224H244.582V143.768C244.582 144.456 244.326 145.056 243.814 145.568C243.302 146.08 242.486 146.336 241.366 146.336ZM241.363 125.264V121.304H244.604V125.264H241.363ZM254.216 140.24C252.312 140.24 250.808 139.792 249.704 138.896C248.6 137.984 248.048 136.616 248.048 134.792V127.04H251.288V134.84C251.288 136.76 252.264 137.72 254.216 137.72C256.168 137.72 257.144 136.76 257.144 134.84V127.04H260.384V134.792C260.384 136.616 259.832 137.984 258.728 138.896C257.624 139.792 256.12 140.24 254.216 140.24ZM254.211 125.264V121.448H256.851V123.056H262.827L262.707 125.264H254.211ZM277.947 141.704C277.211 141.704 276.379 141.632 275.451 141.488C274.539 141.344 273.715 141.072 272.979 140.672V138.176C273.459 138.416 273.995 138.616 274.587 138.776C275.179 138.92 275.763 139.032 276.339 139.112C276.915 139.176 277.411 139.208 277.827 139.208C278.819 139.208 279.619 139.104 280.227 138.896C280.835 138.688 281.139 138.4 281.139 138.032C281.139 137.744 281.011 137.52 280.755 137.36C280.419 137.552 279.995 137.72 279.483 137.864C278.987 138.008 278.411 138.08 277.755 138.08C275.851 138.08 274.387 137.632 273.363 136.736C272.339 135.824 271.827 134.456 271.827 132.632V132.104C271.827 131.096 271.595 130.384 271.131 129.968C270.683 129.536 269.963 129.32 268.971 129.32C268.251 129.32 267.587 129.424 266.979 129.632C266.387 129.84 265.907 130.104 265.539 130.424V130.76L268.203 131.48V133.448C267.563 133.608 267.131 133.872 266.907 134.24C266.699 134.592 266.595 135.144 266.595 135.896V136.592C266.595 136.912 266.667 137.144 266.811 137.288C266.955 137.416 267.179 137.48 267.483 137.48H268.755V140H265.827C265.091 140 264.491 139.76 264.027 139.28C263.579 138.8 263.355 138.192 263.355 137.456V135.872C263.355 135.136 263.475 134.488 263.715 133.928C263.971 133.352 264.467 132.952 265.203 132.728L262.755 132.08V128.984C263.411 128.424 264.283 127.92 265.371 127.472C266.475 127.024 267.731 126.8 269.139 126.8C270.355 126.8 271.395 126.968 272.259 127.304C273.123 127.64 273.787 128.2 274.251 128.984C274.715 129.768 274.947 130.832 274.947 132.176V132.68C274.947 133.656 275.171 134.384 275.619 134.864C276.067 135.328 276.779 135.56 277.755 135.56C278.731 135.56 279.443 135.328 279.891 134.864C280.339 134.384 280.563 133.656 280.563 132.68V127.04H283.803V132.632C283.803 134.024 283.483 135.144 282.843 135.992C283.131 136.248 283.371 136.584 283.563 137C283.755 137.4 283.851 137.832 283.851 138.296C283.851 139.384 283.323 140.224 282.267 140.816C281.211 141.408 279.771 141.704 277.947 141.704ZM292.265 140.24C290.329 140.24 288.873 139.792 287.897 138.896C286.921 138 286.433 136.776 286.433 135.224V134.408C286.433 133.864 286.537 133.376 286.745 132.944C286.953 132.512 287.185 132.128 287.441 131.792C287.713 131.456 287.953 131.144 288.161 130.856C288.369 130.568 288.473 130.296 288.473 130.04C288.473 129.8 288.417 129.64 288.305 129.56C288.193 129.48 287.993 129.44 287.705 129.44H286.145L286.409 127.04H289.769C291.097 127.04 291.761 127.656 291.761 128.888C291.761 129.432 291.657 129.928 291.449 130.376C291.241 130.808 290.993 131.224 290.705 131.624C290.433 132.024 290.193 132.448 289.985 132.896C289.777 133.328 289.673 133.824 289.673 134.384V135.416C289.673 136.952 290.537 137.72 292.265 137.72C294.025 137.72 294.905 136.92 294.905 135.32V133.808C294.905 133.2 294.801 132.768 294.593 132.512C294.385 132.256 294.017 132.128 293.489 132.128H292.817L292.961 129.872H293.393C293.921 129.872 294.305 129.736 294.545 129.464C294.785 129.192 294.905 128.76 294.905 128.168V126.8H298.145V128.096C298.145 128.832 298.033 129.432 297.809 129.896C297.585 130.344 297.145 130.712 296.489 131C297.161 131.304 297.601 131.696 297.809 132.176C298.033 132.64 298.145 133.224 298.145 133.928V135.176C298.145 136.728 297.625 137.96 296.585 138.872C295.545 139.784 294.105 140.24 292.265 140.24ZM287.649 125.264L287.817 123.056H295.497V121.112H298.137V125.264H287.649ZM303.897 140C302.857 140 302.121 139.784 301.689 139.352C301.273 138.92 301.065 138.24 301.065 137.312V127.04H304.305V136.472C304.305 137.144 304.633 137.48 305.289 137.48H306.105V140H303.897ZM308.376 140V127.04H311.352L311.496 128.312C312.072 127.848 312.736 127.48 313.488 127.208C314.256 126.936 315.088 126.8 315.984 126.8C317.344 126.8 318.408 127.216 319.176 128.048C319.96 128.88 320.352 130.024 320.352 131.48V140H317.112V131.672C317.112 130.84 316.912 130.24 316.512 129.872C316.128 129.504 315.552 129.32 314.784 129.32C314.192 129.32 313.6 129.448 313.008 129.704C312.432 129.96 311.968 130.28 311.616 130.664V140H308.376ZM327.58 140.24C326.684 140.24 325.82 140.176 324.988 140.048C324.172 139.92 323.508 139.752 322.996 139.544V136.928C323.604 137.184 324.268 137.384 324.988 137.528C325.724 137.656 326.388 137.72 326.98 137.72C328.02 137.72 328.772 137.64 329.236 137.48C329.716 137.32 329.956 136.992 329.956 136.496C329.956 136.112 329.828 135.816 329.572 135.608C329.332 135.4 328.956 135.216 328.444 135.056C327.932 134.88 327.276 134.656 326.476 134.384C325.308 133.968 324.388 133.504 323.716 132.992C323.06 132.464 322.732 131.688 322.732 130.664C322.732 129.512 323.18 128.584 324.076 127.88C324.972 127.16 326.324 126.8 328.132 126.8C328.884 126.8 329.636 126.856 330.388 126.968C331.14 127.08 331.756 127.216 332.236 127.376V129.968C331.708 129.744 331.1 129.584 330.412 129.488C329.74 129.376 329.132 129.32 328.588 129.32C327.836 129.32 327.18 129.408 326.62 129.584C326.076 129.744 325.804 130.08 325.804 130.592C325.804 130.912 325.94 131.168 326.212 131.36C326.5 131.552 326.9 131.728 327.412 131.888C327.94 132.048 328.564 132.256 329.284 132.512C330.18 132.816 330.9 133.136 331.444 133.472C332.004 133.808 332.404 134.216 332.644 134.696C332.9 135.176 333.028 135.776 333.028 136.496C333.028 137.76 332.54 138.704 331.564 139.328C330.604 139.936 329.276 140.24 327.58 140.24ZM340.226 140.24C339.186 140.24 338.258 140.016 337.442 139.568C336.626 139.12 335.978 138.424 335.498 137.48C335.034 136.52 334.802 135.288 334.802 133.784C334.802 131.576 335.37 129.864 336.506 128.648C337.658 127.416 339.346 126.8 341.57 126.8C343.122 126.8 344.378 127.064 345.338 127.592C346.298 128.104 346.994 128.768 347.426 129.584C347.874 130.4 348.098 131.264 348.098 132.176V140H344.858V132.392C344.858 131.784 344.762 131.256 344.57 130.808C344.378 130.344 344.034 129.984 343.538 129.728C343.058 129.456 342.386 129.32 341.522 129.32C339.09 129.32 337.874 130.808 337.874 133.784C337.874 135.24 338.13 136.264 338.642 136.856C339.154 137.432 339.874 137.72 340.802 137.72C341.106 137.72 341.402 137.704 341.69 137.672C341.994 137.64 342.25 137.592 342.458 137.528V139.904C342.17 140.016 341.85 140.096 341.498 140.144C341.146 140.208 340.722 140.24 340.226 140.24Z" fill="url(#paint3_linear_375_1625)"/>
</g>
<defs>
<filter id="filter0_d_375_1625" x="0.699997" y="0.699875" width="475.6" height="268.6" filterUnits="userSpaceOnUse" color-interpolation-filters="sRGB">
<feFlood flood-opacity="0" result="BackgroundImageFix"/>
<feColorMatrix in="SourceAlpha" type="matrix" values="0 0 0 0 0 0 0 0 0 0 0 0 0 0 0 0 0 0 127 0" result="hardAlpha"/>
<feOffset dy="4"/>
<feGaussianBlur stdDeviation="48.15"/>
<feComposite in2="hardAlpha" operator="out"/>
<feColorMatrix type="matrix" values="0 0 0 0 0.580392 0 0 0 0 0.247059 0 0 0 0 0.87451 0 0 0 0.5 0"/>
<feBlend mode="normal" in2="BackgroundImageFix" result="effect1_dropShadow_375_1625"/>
<feBlend mode="normal" in="SourceGraphic" in2="effect1_dropShadow_375_1625" result="shape"/>
</filter>
<filter id="filter1_i_375_1625" x="105" y="99.9999" width="62" height="66" filterUnits="userSpaceOnUse" color-interpolation-filters="sRGB">
<feFlood flood-opacity="0" result="BackgroundImageFix"/>
<feBlend mode="normal" in="SourceGraphic" in2="BackgroundImageFix" result="shape"/>
<feColorMatrix in="SourceAlpha" type="matrix" values="0 0 0 0 0 0 0 0 0 0 0 0 0 0 0 0 0 0 127 0" result="hardAlpha"/>
<feOffset dy="4"/>
<feGaussianBlur stdDeviation="3.95"/>
<feComposite in2="hardAlpha" operator="arithmetic" k2="-1" k3="1"/>
<feColorMatrix type="matrix" values="0 0 0 0 0 0 0 0 0 0 0 0 0 0 0 0 0 0 0.15 0"/>
<feBlend mode="normal" in2="shape" result="effect1_innerShadow_375_1625"/>
</filter>
<radialGradient id="paint0_angular_375_1625" cx="0" cy="0" r="1" gradientUnits="userSpaceOnUse" gradientTransform="translate(134 129) rotate(90) scale(9)">
<stop stop-color="#B72CD3"/>
<stop offset="0.51" stop-color="#3DDE2F"/>
<stop offset="1" stop-color="#3312FF"/>
</radialGradient>
<radialGradient id="paint1_angular_375_1625" cx="0" cy="0" r="1" gradientUnits="userSpaceOnUse" gradientTransform="translate(134 129) rotate(90) scale(9)">
<stop stop-color="#B72CD3"/>
<stop offset="0.51" stop-color="#3DDE2F"/>
<stop offset="1" stop-color="#3312FF"/>
</radialGradient>
<radialGradient id="paint2_angular_375_1625" cx="0" cy="0" r="1" gradientUnits="userSpaceOnUse" gradientTransform="translate(134 129) rotate(90) scale(9)">
<stop stop-color="#B72CD3"/>
<stop offset="0.51" stop-color="#3DDE2F"/>
<stop offset="1" stop-color="#3312FF"/>
</radialGradient>
<linearGradient id="paint3_linear_375_1625" x1="185" y1="131.5" x2="364" y2="131.5" gradientUnits="userSpaceOnUse">
<stop stop-color="#878791"/>
<stop offset="1" stop-color="#28282B"/>
</linearGradient>
</defs>
</svg>
