<svg width="32" height="32" viewBox="0 0 32 32" fill="none" xmlns="http://www.w3.org/2000/svg">
<path d="M12.5 14.5538C12.6521 14.466 12.7783 14.3397 12.8661 14.1876C12.9539 14.0356 13 13.8631 13 13.6875V4.6875C12.9991 4.52807 12.9601 4.37116 12.8863 4.22986C12.8124 4.08857 12.7058 3.96698 12.5754 3.87524C12.445 3.7835 12.2946 3.72426 12.1367 3.70248C11.9787 3.68069 11.8179 3.69699 11.6675 3.75C8.74872 4.78302 6.29415 6.8233 4.74502 9.50409C3.1959 12.1849 2.65382 15.3303 3.21625 18.375C3.2454 18.5324 3.31194 18.6806 3.41026 18.807C3.50858 18.9333 3.63581 19.0343 3.78125 19.1012C3.91232 19.1625 4.05531 19.1941 4.2 19.1938C4.37552 19.1938 4.54796 19.1477 4.7 19.06L12.5 14.5538ZM11 6.2025V13.11L5.015 16.5637C5 16.375 5 16.185 5 16C5.00177 13.973 5.56286 11.9857 6.62149 10.2571C7.68012 8.5284 9.19523 7.12539 11 6.2025ZM27.2925 9.565C27.2812 9.5425 27.27 9.51875 27.2563 9.49625C27.2425 9.47375 27.2313 9.455 27.2175 9.435C26.0713 7.47725 24.433 5.85335 22.4652 4.72451C20.4974 3.59567 18.2686 3.00116 16 3C15.7348 3 15.4804 3.10536 15.2929 3.29289C15.1054 3.48043 15 3.73478 15 4V15.4788L5.14875 21.2162C5.03443 21.2825 4.93438 21.3708 4.85438 21.4759C4.77438 21.5811 4.71601 21.7011 4.68266 21.8289C4.6493 21.9568 4.64161 22.09 4.66003 22.2208C4.67846 22.3517 4.72263 22.4776 4.79 22.5912C6.23534 25.0525 8.45051 26.9696 11.0937 28.0468C13.7368 29.1241 16.661 29.3015 19.415 28.5517C22.169 27.8019 24.5997 26.1666 26.332 23.8982C28.0642 21.6297 29.0018 18.8542 29 16C29.0029 13.7427 28.4142 11.524 27.2925 9.565ZM17 5.045C18.586 5.19099 20.1214 5.67945 21.5002 6.47666C22.8791 7.27387 24.0684 8.36083 24.9862 9.6625L17 14.3138V5.045ZM16 27C14.2543 26.9955 12.5344 26.5777 10.9812 25.7808C9.42796 24.9839 8.08553 23.8305 7.06375 22.415L16.4888 16.9263L16.5163 16.9088L25.9875 11.3925C26.7606 13.0684 27.0995 14.9119 26.9731 16.7532C26.8468 18.5945 26.2591 20.3745 25.2643 21.929C24.2695 23.4836 22.8995 24.7629 21.2805 25.6491C19.6616 26.5353 17.8456 26.9998 16 27Z" fill="white"/>
</svg>
