<svg width="25" height="25" viewBox="0 0 25 25" fill="none" xmlns="http://www.w3.org/2000/svg">
<path d="M16.959 9.60352C17.0316 9.67607 17.0893 9.76224 17.1286 9.85708C17.1679 9.95192 17.1881 10.0536 17.1881 10.1562C17.1881 10.2589 17.1679 10.3606 17.1286 10.4554C17.0893 10.5503 17.0316 10.6364 16.959 10.709L11.4902 16.1777C11.4177 16.2504 11.3315 16.308 11.2367 16.3473C11.1418 16.3866 11.0402 16.4069 10.9375 16.4069C10.8348 16.4069 10.7332 16.3866 10.6383 16.3473C10.5435 16.308 10.4573 16.2504 10.3848 16.1777L8.04102 13.834C7.89443 13.6874 7.81207 13.4886 7.81207 13.2812C7.81207 13.0739 7.89443 12.8751 8.04102 12.7285C8.18761 12.5819 8.38644 12.4996 8.59375 12.4996C8.80107 12.4996 8.9999 12.5819 9.14649 12.7285L10.9375 14.5205L15.8535 9.60352C15.9261 9.53088 16.0122 9.47325 16.1071 9.43394C16.2019 9.39462 16.3036 9.37439 16.4063 9.37439C16.5089 9.37439 16.6106 9.39462 16.7054 9.43394C16.8003 9.47325 16.8864 9.53088 16.959 9.60352ZM22.6563 12.5C22.6563 14.5087 22.0606 16.4723 20.9446 18.1425C19.8286 19.8127 18.2424 21.1144 16.3866 21.8832C14.5308 22.6519 12.4887 22.853 10.5186 22.4611C8.5485 22.0692 6.73883 21.1019 5.31845 19.6816C3.89807 18.2612 2.93079 16.4515 2.5389 14.4814C2.14702 12.5113 2.34815 10.4692 3.11685 8.61337C3.88556 6.75756 5.18731 5.17137 6.85749 4.05539C8.52768 2.9394 10.4913 2.34375 12.5 2.34375C15.1927 2.34659 17.7744 3.41754 19.6784 5.32159C21.5825 7.22564 22.6534 9.80727 22.6563 12.5ZM21.0938 12.5C21.0938 10.8003 20.5897 9.1388 19.6454 7.72557C18.7012 6.31233 17.359 5.21085 15.7887 4.56041C14.2184 3.90997 12.4905 3.73978 10.8234 4.07138C9.15642 4.40297 7.62516 5.22144 6.42331 6.4233C5.22145 7.62516 4.40297 9.15642 4.07138 10.8234C3.73979 12.4905 3.90997 14.2184 4.56041 15.7887C5.21086 17.359 6.31234 18.7011 7.72557 19.6454C9.13881 20.5897 10.8003 21.0938 12.5 21.0938C14.7784 21.0912 16.9628 20.1849 18.5738 18.5738C20.1849 16.9628 21.0912 14.7784 21.0938 12.5Z" fill="#4ADE80"/>
</svg>
