<svg width="300" height="300" viewBox="0 0 300 300" fill="none" xmlns="http://www.w3.org/2000/svg">
<path d="M203.508 115.242C204.379 116.113 205.071 117.147 205.543 118.285C206.015 119.423 206.257 120.643 206.257 121.875C206.257 123.107 206.015 124.327 205.543 125.465C205.071 126.603 204.379 127.637 203.508 128.508L137.883 194.133C137.012 195.004 135.978 195.696 134.84 196.168C133.702 196.64 132.482 196.882 131.25 196.882C130.018 196.882 128.798 196.64 127.66 196.168C126.522 195.696 125.488 195.004 124.617 194.133L96.4922 166.008C94.733 164.249 93.7448 161.863 93.7448 159.375C93.7448 156.887 94.733 154.501 96.4922 152.742C98.2513 150.983 100.637 149.995 103.125 149.995C105.613 149.995 107.999 150.983 109.758 152.742L131.25 174.246L190.242 115.242C191.113 114.371 192.147 113.679 193.285 113.207C194.423 112.735 195.643 112.493 196.875 112.493C198.107 112.493 199.327 112.735 200.465 113.207C201.603 113.679 202.637 114.371 203.508 115.242ZM271.875 150C271.875 174.105 264.727 197.668 251.335 217.71C237.944 237.752 218.909 253.373 196.64 262.598C174.37 271.822 149.865 274.236 126.223 269.533C102.582 264.831 80.8659 253.223 63.8214 236.179C46.7768 219.134 35.1694 197.418 30.4668 173.777C25.7642 150.135 28.1777 125.63 37.4022 103.36C46.6266 81.0907 62.2476 62.0564 82.2899 48.6646C102.332 35.2728 125.895 28.125 150 28.125C182.313 28.1591 213.292 41.0104 236.141 63.859C258.99 86.7076 271.841 117.687 271.875 150ZM253.125 150C253.125 129.604 247.077 109.666 235.745 92.7068C224.414 75.748 208.308 62.5302 189.464 54.7249C170.621 46.9196 149.886 44.8774 129.881 48.8565C109.877 52.8356 91.5019 62.6573 77.0796 77.0796C62.6573 91.5019 52.8356 109.877 48.8565 129.881C44.8774 149.886 46.9196 170.621 54.7249 189.464C62.5302 208.308 75.748 224.414 92.7068 235.745C109.666 247.077 129.604 253.125 150 253.125C177.341 253.094 203.553 242.219 222.886 222.886C242.219 203.553 253.094 177.341 253.125 150Z" fill="#C4B5FD"/>
</svg>
