<svg width="999" height="66" viewBox="0 0 999 66" fill="none" xmlns="http://www.w3.org/2000/svg">
<g filter="url(#filter0_d_535_3024)">
<mask id="path-1-inside-1_535_3024" fill="white">
<path d="M4 0H995V58H4V0Z"/>
</mask>
<path d="M4 59.5H6.98494V56.5H4V59.5ZM12.9548 59.5H18.9247V56.5H12.9548V59.5ZM24.8946 59.5H30.8645V56.5H24.8946V59.5ZM36.8343 59.5H42.8042V56.5H36.8343V59.5ZM48.7741 59.5H54.744V56.5H48.7741V59.5ZM60.7139 59.5H66.6837V56.5H60.7139V59.5ZM72.6536 59.5H78.6235V56.5H72.6536V59.5ZM84.5934 59.5H90.5633V56.5H84.5934V59.5ZM96.5331 59.5H102.503V56.5H96.5331V59.5ZM108.473 59.5H114.443V56.5H108.473V59.5ZM120.413 59.5H126.383V56.5H120.413V59.5ZM132.352 59.5H138.322V56.5H132.352V59.5ZM144.292 59.5H150.262V56.5H144.292V59.5ZM156.232 59.5H162.202V56.5H156.232V59.5ZM168.172 59.5H174.142V56.5H168.172V59.5ZM180.111 59.5H186.081V56.5H180.111V59.5ZM192.051 59.5H198.021V56.5H192.051V59.5ZM203.991 59.5H209.961V56.5H203.991V59.5ZM215.931 59.5H221.901V56.5H215.931V59.5ZM227.87 59.5H233.84V56.5H227.87V59.5ZM239.81 59.5H245.78V56.5H239.81V59.5ZM251.75 59.5H257.72V56.5H251.75V59.5ZM263.69 59.5H269.66V56.5H263.69V59.5ZM275.63 59.5H281.599V56.5H275.63V59.5ZM287.569 59.5H293.539V56.5H287.569V59.5ZM299.509 59.5H305.479V56.5H299.509V59.5ZM311.449 59.5H317.419V56.5H311.449V59.5ZM323.389 59.5H329.358V56.5H323.389V59.5ZM335.328 59.5H341.298V56.5H335.328V59.5ZM347.268 59.5H353.238V56.5H347.268V59.5ZM359.208 59.5H365.178V56.5H359.208V59.5ZM371.148 59.5H377.117V56.5H371.148V59.5ZM383.087 59.5H389.057V56.5H383.087V59.5ZM395.027 59.5H400.997V56.5H395.027V59.5ZM406.967 59.5H412.937V56.5H406.967V59.5ZM418.907 59.5H424.876V56.5H418.907V59.5ZM430.846 59.5H436.816V56.5H430.846V59.5ZM442.786 59.5H448.756V56.5H442.786V59.5ZM454.726 59.5H460.696V56.5H454.726V59.5ZM466.666 59.5H472.636V56.5H466.666V59.5ZM478.605 59.5H484.575V56.5H478.605V59.5ZM490.545 59.5H496.515V56.5H490.545V59.5ZM502.485 59.5H508.455V56.5H502.485V59.5ZM514.425 59.5H520.395V56.5H514.425V59.5ZM526.365 59.5H532.334V56.5H526.365V59.5ZM538.304 59.5H544.274V56.5H538.304V59.5ZM550.244 59.5H556.214V56.5H550.244V59.5ZM562.184 59.5H568.154V56.5H562.184V59.5ZM574.124 59.5H580.094V56.5H574.124V59.5ZM586.064 59.5H592.034V56.5H586.064V59.5ZM598.003 59.5H603.973V56.5H598.003V59.5ZM609.943 59.5H615.913V56.5H609.943V59.5ZM621.883 59.5H627.853V56.5H621.883V59.5ZM633.823 59.5H639.793V56.5H633.823V59.5ZM645.763 59.5H651.733V56.5H645.763V59.5ZM657.703 59.5H663.672V56.5H657.703V59.5ZM669.642 59.5H675.612V56.5H669.642V59.5ZM681.582 59.5H687.552V56.5H681.582V59.5ZM693.522 59.5H699.492V56.5H693.522V59.5ZM705.462 59.5H711.432V56.5H705.462V59.5ZM717.402 59.5H723.372V56.5H717.402V59.5ZM729.341 59.5H735.311V56.5H729.341V59.5ZM741.281 59.5H747.251V56.5H741.281V59.5ZM753.221 59.5H759.191V56.5H753.221V59.5ZM765.161 59.5H771.131V56.5H765.161V59.5ZM777.101 59.5H783.071V56.5H777.101V59.5ZM789.041 59.5H795.01V56.5H789.041V59.5ZM800.98 59.5H806.95V56.5H800.98V59.5ZM812.92 59.5H818.89V56.5H812.92V59.5ZM824.86 59.5H830.83V56.5H824.86V59.5ZM836.8 59.5H842.77V56.5H836.8V59.5ZM848.74 59.5H854.71V56.5H848.74V59.5ZM860.679 59.5H866.649V56.5H860.679V59.5ZM872.619 59.5H878.589V56.5H872.619V59.5ZM884.559 59.5H890.529V56.5H884.559V59.5ZM896.499 59.5H902.469V56.5H896.499V59.5ZM908.439 59.5H914.409V56.5H908.439V59.5ZM920.379 59.5H926.348V56.5H920.379V59.5ZM932.318 59.5H938.288V56.5H932.318V59.5ZM944.258 59.5H950.228V56.5H944.258V59.5ZM956.198 59.5H962.168V56.5H956.198V59.5ZM968.138 59.5H974.108V56.5H968.138V59.5ZM980.078 59.5H986.048V56.5H980.078V59.5ZM992.017 59.5H995V56.5H992.017V59.5ZM995 -1.5H992.015V1.5H995V-1.5ZM986.045 -1.5H980.075V1.5H986.045V-1.5ZM974.105 -1.5H968.136V1.5H974.105V-1.5ZM962.166 -1.5H956.196V1.5H962.166V-1.5ZM950.226 -1.5H944.256V1.5H950.226V-1.5ZM938.286 -1.5H932.316V1.5H938.286V-1.5ZM926.346 -1.5H920.377V1.5H926.346V-1.5ZM914.407 -1.5H908.437V1.5H914.407V-1.5ZM902.467 -1.5H896.497V1.5H902.467V-1.5ZM890.527 -1.5H884.557V1.5H890.527V-1.5ZM878.587 -1.5H872.617V1.5H878.587V-1.5ZM866.648 -1.5H860.678V1.5H866.648V-1.5ZM854.708 -1.5H848.738V1.5H854.708V-1.5ZM842.768 -1.5H836.798V1.5H842.768V-1.5ZM830.828 -1.5H824.858V1.5H830.828V-1.5ZM818.889 -1.5H812.919V1.5H818.889V-1.5ZM806.949 -1.5H800.979V1.5H806.949V-1.5ZM795.009 -1.5H789.039V1.5H795.009V-1.5ZM783.069 -1.5H777.099V1.5H783.069V-1.5ZM771.13 -1.5H765.16V1.5H771.13V-1.5ZM759.19 -1.5H753.22V1.5H759.19V-1.5ZM747.25 -1.5H741.28V1.5H747.25V-1.5ZM735.31 -1.5H729.34V1.5H735.31V-1.5ZM723.37 -1.5H717.401V1.5H723.37V-1.5ZM711.431 -1.5H705.461V1.5H711.431V-1.5ZM699.491 -1.5H693.521V1.5H699.491V-1.5ZM687.551 -1.5H681.581V1.5H687.551V-1.5ZM675.611 -1.5H669.642V1.5H675.611V-1.5ZM663.672 -1.5H657.702V1.5H663.672V-1.5ZM651.732 -1.5H645.762V1.5H651.732V-1.5ZM639.792 -1.5H633.822V1.5H639.792V-1.5ZM627.852 -1.5H621.883V1.5H627.852V-1.5ZM615.913 -1.5H609.943V1.5H615.913V-1.5ZM603.973 -1.5H598.003V1.5H603.973V-1.5ZM592.033 -1.5H586.063V1.5H592.033V-1.5ZM580.093 -1.5H574.124V1.5H580.093V-1.5ZM568.154 -1.5H562.184V1.5H568.154V-1.5ZM556.214 -1.5H550.244V1.5H556.214V-1.5ZM544.274 -1.5H538.304V1.5H544.274V-1.5ZM532.334 -1.5H526.365V1.5H532.334V-1.5ZM520.395 -1.5H514.425V1.5H520.395V-1.5ZM508.455 -1.5H502.485V1.5H508.455V-1.5ZM496.515 -1.5H490.545V1.5H496.515V-1.5ZM484.575 -1.5H478.605V1.5H484.575V-1.5ZM472.635 -1.5H466.666V1.5H472.635V-1.5ZM460.696 -1.5H454.726V1.5H460.696V-1.5ZM448.756 -1.5H442.786V1.5H448.756V-1.5ZM436.816 -1.5H430.846V1.5H436.816V-1.5ZM424.876 -1.5H418.906V1.5H424.876V-1.5ZM412.936 -1.5H406.966V1.5H412.936V-1.5ZM400.997 -1.5H395.027V1.5H400.997V-1.5ZM389.057 -1.5H383.087V1.5H389.057V-1.5ZM377.117 -1.5H371.147V1.5H377.117V-1.5ZM365.177 -1.5H359.207V1.5H365.177V-1.5ZM353.237 -1.5H347.267V1.5H353.237V-1.5ZM341.298 -1.5H335.328V1.5H341.298V-1.5ZM329.358 -1.5H323.388V1.5H329.358V-1.5ZM317.418 -1.5H311.448V1.5H317.418V-1.5ZM305.478 -1.5H299.508V1.5H305.478V-1.5ZM293.538 -1.5H287.568V1.5H293.538V-1.5ZM281.598 -1.5H275.629V1.5H281.598V-1.5ZM269.659 -1.5H263.689V1.5H269.659V-1.5ZM257.719 -1.5H251.749V1.5H257.719V-1.5ZM245.779 -1.5H239.809V1.5H245.779V-1.5ZM233.839 -1.5H227.869V1.5H233.839V-1.5ZM221.899 -1.5H215.929V1.5H221.899V-1.5ZM209.959 -1.5H203.99V1.5H209.959V-1.5ZM198.02 -1.5H192.05V1.5H198.02V-1.5ZM186.08 -1.5H180.11V1.5H186.08V-1.5ZM174.14 -1.5H168.17V1.5H174.14V-1.5ZM162.2 -1.5H156.23V1.5H162.2V-1.5ZM150.26 -1.5H144.29V1.5H150.26V-1.5ZM138.321 -1.5H132.351V1.5H138.321V-1.5ZM126.381 -1.5H120.411V1.5H126.381V-1.5ZM114.441 -1.5H108.471V1.5H114.441V-1.5ZM102.501 -1.5H96.5312V1.5H102.501V-1.5ZM90.5613 -1.5H84.5914V1.5H90.5613V-1.5ZM78.6215 -1.5H72.6515V1.5H78.6215V-1.5ZM66.6816 -1.5H60.7117V1.5H66.6816V-1.5ZM54.7418 -1.5H48.7719V1.5H54.7418V-1.5ZM42.802 -1.5H36.8321V1.5H42.802V-1.5ZM30.8622 -1.5H24.8922V1.5H30.8622V-1.5ZM18.9223 -1.5H12.9524V1.5H18.9223V-1.5ZM6.98253 -1.5H4V1.5H6.98253V-1.5ZM4 61H6.98494V55H4V61ZM12.9548 61H18.9247V55H12.9548V61ZM24.8946 61H30.8645V55H24.8946V61ZM36.8343 61H42.8042V55H36.8343V61ZM48.7741 61H54.744V55H48.7741V61ZM60.7139 61H66.6837V55H60.7139V61ZM72.6536 61H78.6235V55H72.6536V61ZM84.5934 61H90.5633V55H84.5934V61ZM96.5331 61H102.503V55H96.5331V61ZM108.473 61H114.443V55H108.473V61ZM120.413 61H126.383V55H120.413V61ZM132.352 61H138.322V55H132.352V61ZM144.292 61H150.262V55H144.292V61ZM156.232 61H162.202V55H156.232V61ZM168.172 61H174.142V55H168.172V61ZM180.111 61H186.081V55H180.111V61ZM192.051 61H198.021V55H192.051V61ZM203.991 61H209.961V55H203.991V61ZM215.931 61H221.901V55H215.931V61ZM227.87 61H233.84V55H227.87V61ZM239.81 61H245.78V55H239.81V61ZM251.75 61H257.72V55H251.75V61ZM263.69 61H269.66V55H263.69V61ZM275.63 61H281.599V55H275.63V61ZM287.569 61H293.539V55H287.569V61ZM299.509 61H305.479V55H299.509V61ZM311.449 61H317.419V55H311.449V61ZM323.389 61H329.358V55H323.389V61ZM335.328 61H341.298V55H335.328V61ZM347.268 61H353.238V55H347.268V61ZM359.208 61H365.178V55H359.208V61ZM371.148 61H377.117V55H371.148V61ZM383.087 61H389.057V55H383.087V61ZM395.027 61H400.997V55H395.027V61ZM406.967 61H412.937V55H406.967V61ZM418.907 61H424.876V55H418.907V61ZM430.846 61H436.816V55H430.846V61ZM442.786 61H448.756V55H442.786V61ZM454.726 61H460.696V55H454.726V61ZM466.666 61H472.636V55H466.666V61ZM478.605 61H484.575V55H478.605V61ZM490.545 61H496.515V55H490.545V61ZM502.485 61H508.455V55H502.485V61ZM514.425 61H520.395V55H514.425V61ZM526.365 61H532.334V55H526.365V61ZM538.304 61H544.274V55H538.304V61ZM550.244 61H556.214V55H550.244V61ZM562.184 61H568.154V55H562.184V61ZM574.124 61H580.094V55H574.124V61ZM586.064 61H592.034V55H586.064V61ZM598.003 61H603.973V55H598.003V61ZM609.943 61H615.913V55H609.943V61ZM621.883 61H627.853V55H621.883V61ZM633.823 61H639.793V55H633.823V61ZM645.763 61H651.733V55H645.763V61ZM657.703 61H663.672V55H657.703V61ZM669.642 61H675.612V55H669.642V61ZM681.582 61H687.552V55H681.582V61ZM693.522 61H699.492V55H693.522V61ZM705.462 61H711.432V55H705.462V61ZM717.402 61H723.372V55H717.402V61ZM729.341 61H735.311V55H729.341V61ZM741.281 61H747.251V55H741.281V61ZM753.221 61H759.191V55H753.221V61ZM765.161 61H771.131V55H765.161V61ZM777.101 61H783.071V55H777.101V61ZM789.041 61H795.01V55H789.041V61ZM800.98 61H806.95V55H800.98V61ZM812.92 61H818.89V55H812.92V61ZM824.86 61H830.83V55H824.86V61ZM836.8 61H842.77V55H836.8V61ZM848.74 61H854.71V55H848.74V61ZM860.679 61H866.649V55H860.679V61ZM872.619 61H878.589V55H872.619V61ZM884.559 61H890.529V55H884.559V61ZM896.499 61H902.469V55H896.499V61ZM908.439 61H914.409V55H908.439V61ZM920.379 61H926.348V55H920.379V61ZM932.318 61H938.288V55H932.318V61ZM944.258 61H950.228V55H944.258V61ZM956.198 61H962.168V55H956.198V61ZM968.138 61H974.108V55H968.138V61ZM980.078 61H986.048V55H980.078V61ZM992.017 61H995V55H992.017V61ZM995 -3H992.015V3H995V-3ZM986.045 -3H980.075V3H986.045V-3ZM974.105 -3H968.136V3H974.105V-3ZM962.166 -3H956.196V3H962.166V-3ZM950.226 -3H944.256V3H950.226V-3ZM938.286 -3H932.316V3H938.286V-3ZM926.346 -3H920.377V3H926.346V-3ZM914.407 -3H908.437V3H914.407V-3ZM902.467 -3H896.497V3H902.467V-3ZM890.527 -3H884.557V3H890.527V-3ZM878.587 -3H872.617V3H878.587V-3ZM866.648 -3H860.678V3H866.648V-3ZM854.708 -3H848.738V3H854.708V-3ZM842.768 -3H836.798V3H842.768V-3ZM830.828 -3H824.858V3H830.828V-3ZM818.889 -3H812.919V3H818.889V-3ZM806.949 -3H800.979V3H806.949V-3ZM795.009 -3H789.039V3H795.009V-3ZM783.069 -3H777.099V3H783.069V-3ZM771.13 -3H765.16V3H771.13V-3ZM759.19 -3H753.22V3H759.19V-3ZM747.25 -3H741.28V3H747.25V-3ZM735.31 -3H729.34V3H735.31V-3ZM723.37 -3H717.401V3H723.37V-3ZM711.431 -3H705.461V3H711.431V-3ZM699.491 -3H693.521V3H699.491V-3ZM687.551 -3H681.581V3H687.551V-3ZM675.611 -3H669.642V3H675.611V-3ZM663.672 -3H657.702V3H663.672V-3ZM651.732 -3H645.762V3H651.732V-3ZM639.792 -3H633.822V3H639.792V-3ZM627.852 -3H621.883V3H627.852V-3ZM615.913 -3H609.943V3H615.913V-3ZM603.973 -3H598.003V3H603.973V-3ZM592.033 -3H586.063V3H592.033V-3ZM580.093 -3H574.124V3H580.093V-3ZM568.154 -3H562.184V3H568.154V-3ZM556.214 -3H550.244V3H556.214V-3ZM544.274 -3H538.304V3H544.274V-3ZM532.334 -3H526.365V3H532.334V-3ZM520.395 -3H514.425V3H520.395V-3ZM508.455 -3H502.485V3H508.455V-3ZM496.515 -3H490.545V3H496.515V-3ZM484.575 -3H478.605V3H484.575V-3ZM472.635 -3H466.666V3H472.635V-3ZM460.696 -3H454.726V3H460.696V-3ZM448.756 -3H442.786V3H448.756V-3ZM436.816 -3H430.846V3H436.816V-3ZM424.876 -3H418.906V3H424.876V-3ZM412.936 -3H406.966V3H412.936V-3ZM400.997 -3H395.027V3H400.997V-3ZM389.057 -3H383.087V3H389.057V-3ZM377.117 -3H371.147V3H377.117V-3ZM365.177 -3H359.207V3H365.177V-3ZM353.237 -3H347.267V3H353.237V-3ZM341.298 -3H335.328V3H341.298V-3ZM329.358 -3H323.388V3H329.358V-3ZM317.418 -3H311.448V3H317.418V-3ZM305.478 -3H299.508V3H305.478V-3ZM293.538 -3H287.568V3H293.538V-3ZM281.598 -3H275.629V3H281.598V-3ZM269.659 -3H263.689V3H269.659V-3ZM257.719 -3H251.749V3H257.719V-3ZM245.779 -3H239.809V3H245.779V-3ZM233.839 -3H227.869V3H233.839V-3ZM221.899 -3H215.929V3H221.899V-3ZM209.959 -3H203.99V3H209.959V-3ZM198.02 -3H192.05V3H198.02V-3ZM186.08 -3H180.11V3H186.08V-3ZM174.14 -3H168.17V3H174.14V-3ZM162.2 -3H156.23V3H162.2V-3ZM150.26 -3H144.29V3H150.26V-3ZM138.321 -3H132.351V3H138.321V-3ZM126.381 -3H120.411V3H126.381V-3ZM114.441 -3H108.471V3H114.441V-3ZM102.501 -3H96.5312V3H102.501V-3ZM90.5613 -3H84.5914V3H90.5613V-3ZM78.6215 -3H72.6515V3H78.6215V-3ZM66.6816 -3H60.7117V3H66.6816V-3ZM54.7418 -3H48.7719V3H54.7418V-3ZM42.802 -3H36.8321V3H42.802V-3ZM30.8622 -3H24.8922V3H30.8622V-3ZM18.9223 -3H12.9524V3H18.9223V-3ZM6.98253 -3H4V3H6.98253V-3Z" fill="#616161" mask="url(#path-1-inside-1_535_3024)"/>
</g>
<defs>
<filter id="filter0_d_535_3024" x="0" y="0" width="999" height="66" filterUnits="userSpaceOnUse" color-interpolation-filters="sRGB">
<feFlood flood-opacity="0" result="BackgroundImageFix"/>
<feColorMatrix in="SourceAlpha" type="matrix" values="0 0 0 0 0 0 0 0 0 0 0 0 0 0 0 0 0 0 127 0" result="hardAlpha"/>
<feOffset dy="4"/>
<feGaussianBlur stdDeviation="2"/>
<feComposite in2="hardAlpha" operator="out"/>
<feColorMatrix type="matrix" values="0 0 0 0 0 0 0 0 0 0 0 0 0 0 0 0 0 0 0.25 0"/>
<feBlend mode="normal" in2="BackgroundImageFix" result="effect1_dropShadow_535_3024"/>
<feBlend mode="normal" in="SourceGraphic" in2="effect1_dropShadow_535_3024" result="shape"/>
</filter>
</defs>
</svg>
