<svg width="315" height="184" viewBox="0 0 315 184" fill="none" xmlns="http://www.w3.org/2000/svg">
<rect width="315" height="184" rx="30" fill="url(#paint0_linear_918_2284)"/>
<mask id="mask0_918_2284" style="mask-type:alpha" maskUnits="userSpaceOnUse" x="0" y="0" width="315" height="184">
<rect width="315" height="184" rx="30" fill="#ED713C"/>
</mask>
<g mask="url(#mask0_918_2284)">
<ellipse opacity="0.1" cx="24.5" cy="213" rx="160.5" ry="113" fill="black"/>
<ellipse opacity="0.08" cx="290.5" cy="-29" rx="160.5" ry="113" fill="black"/>
</g>
<path d="M246.163 157L248.711 153.626L246.261 150.364H248.305L249.733 152.296L251.161 150.364H253.205L250.769 153.626L253.303 157H251.245L249.733 154.97L248.221 157H246.163ZM254.223 157L256.771 153.626L254.321 150.364H256.365L257.793 152.296L259.221 150.364H261.265L258.829 153.626L261.363 157H259.305L257.793 154.97L256.281 157H254.223ZM262.793 157L266.069 147.732H268.001L264.725 157H262.793ZM269.387 157L271.935 153.626L269.485 150.364H271.529L272.957 152.296L274.385 150.364H276.429L273.993 153.626L276.527 157H274.469L272.957 154.97L271.445 157H269.387ZM277.448 157L279.996 153.626L277.546 150.364H279.59L281.018 152.296L282.446 150.364H284.49L282.054 153.626L284.588 157H282.53L281.018 154.97L279.506 157H277.448Z" fill="white"/>
<path opacity="0.9" d="M30.364 157L32.912 153.626L30.462 150.364H32.506L33.934 152.296L35.362 150.364H37.406L34.97 153.626L37.504 157H35.446L33.934 154.97L32.422 157H30.364ZM38.4245 157L40.9725 153.626L38.5225 150.364H40.5665L41.9945 152.296L43.4225 150.364H45.4665L43.0305 153.626L45.5645 157H43.5065L41.9945 154.97L40.4825 157H38.4245ZM46.4851 157L49.0331 153.626L46.5831 150.364H48.6271L50.0551 152.296L51.4831 150.364H53.5271L51.0911 153.626L53.6251 157H51.5671L50.0551 154.97L48.5431 157H46.4851ZM54.5456 157L57.0936 153.626L54.6436 150.364H56.6876L58.1156 152.296L59.5436 150.364H61.5876L59.1516 153.626L61.6856 157H59.6276L58.1156 154.97L56.6036 157H54.5456ZM66.5378 157L69.0858 153.626L66.6358 150.364H68.6798L70.1078 152.296L71.5358 150.364H73.5798L71.1438 153.626L73.6778 157H71.6198L70.1078 154.97L68.5958 157H66.5378ZM74.5984 157L77.1464 153.626L74.6964 150.364H76.7404L78.1684 152.296L79.5964 150.364H81.6404L79.2044 153.626L81.7384 157H79.6804L78.1684 154.97L76.6564 157H74.5984ZM82.6589 157L85.2069 153.626L82.7569 150.364H84.8009L86.2289 152.296L87.6569 150.364H89.7009L87.2649 153.626L89.7989 157H87.7409L86.2289 154.97L84.7169 157H82.6589ZM90.7195 157L93.2675 153.626L90.8175 150.364H92.8615L94.2895 152.296L95.7175 150.364H97.7615L95.3255 153.626L97.8595 157H95.8015L94.2895 154.97L92.7775 157H90.7195ZM102.712 157L105.26 153.626L102.81 150.364H104.854L106.282 152.296L107.71 150.364H109.754L107.318 153.626L109.852 157H107.794L106.282 154.97L104.77 157H102.712ZM110.772 157L113.32 153.626L110.87 150.364H112.914L114.342 152.296L115.77 150.364H117.814L115.378 153.626L117.912 157H115.854L114.342 154.97L112.83 157H110.772ZM118.833 157L121.381 153.626L118.931 150.364H120.975L122.403 152.296L123.831 150.364H125.875L123.439 153.626L125.973 157H123.915L122.403 154.97L120.891 157H118.833ZM126.893 157L129.441 153.626L126.991 150.364H129.035L130.463 152.296L131.891 150.364H133.935L131.499 153.626L134.033 157H131.975L130.463 154.97L128.951 157H126.893ZM138.885 157L141.433 153.626L138.983 150.364H141.027L142.455 152.296L143.883 150.364H145.927L143.491 153.626L146.025 157H143.967L142.455 154.97L140.943 157H138.885ZM146.946 157L149.494 153.626L147.044 150.364H149.088L150.516 152.296L151.944 150.364H153.988L151.552 153.626L154.086 157H152.028L150.516 154.97L149.004 157H146.946ZM155.007 157L157.555 153.626L155.105 150.364H157.149L158.577 152.296L160.005 150.364H162.049L159.613 153.626L162.147 157H160.089L158.577 154.97L157.065 157H155.007ZM163.067 157L165.615 153.626L163.165 150.364H165.209L166.637 152.296L168.065 150.364H170.109L167.673 153.626L170.207 157H168.149L166.637 154.97L165.125 157H163.067Z" fill="white"/>
<path d="M256.417 27.9741H268.584V49.8366H256.417V27.9741Z" fill="#FF5F00"/>
<path d="M248.189 60.8409V58.5234C248.189 57.6348 247.648 57.0556 246.721 57.0556C246.258 57.0556 245.756 57.2101 245.408 57.7123C245.138 57.2873 244.751 57.0556 244.172 57.0556C243.786 57.0556 243.4 57.1714 243.09 57.5963V57.1328H242.279V60.8409H243.09V58.7937C243.09 58.1372 243.438 57.828 243.979 57.828C244.52 57.828 244.79 58.1757 244.79 58.7937V60.8409H245.601V58.7937C245.601 58.1372 245.987 57.828 246.49 57.828C247.03 57.828 247.301 58.1757 247.301 58.7937V60.8409H248.189ZM260.202 57.1328H258.889V56.0127H258.078V57.1328H257.344V57.8666H258.077V59.5663C258.077 60.4162 258.425 60.9182 259.352 60.9182C259.7 60.9182 260.086 60.8024 260.357 60.6479L260.125 59.9525C259.893 60.107 259.623 60.1457 259.429 60.1457C259.043 60.1457 258.889 59.914 258.889 59.5276V57.8666H260.202V57.1328ZM267.077 57.0554C266.614 57.0554 266.305 57.2873 266.112 57.5963V57.1328H265.301V60.8409H266.112V58.7551C266.112 58.1372 266.382 57.7895 266.884 57.7895C267.039 57.7895 267.232 57.8282 267.386 57.8668L267.618 57.0943C267.464 57.0556 267.232 57.0556 267.077 57.0556V57.0554ZM256.687 57.4418C256.301 57.1714 255.76 57.0556 255.18 57.0556C254.254 57.0556 253.636 57.5191 253.636 58.253C253.636 58.8711 254.099 59.2186 254.91 59.3346L255.296 59.3733C255.721 59.4503 255.953 59.5663 255.953 59.7595C255.953 60.0298 255.644 60.223 255.103 60.223C254.562 60.223 254.138 60.0298 253.867 59.8367L253.481 60.4547C253.906 60.7637 254.485 60.9182 255.064 60.9182C256.146 60.9182 256.764 60.4162 256.764 59.7208C256.764 59.0641 256.262 58.7164 255.489 58.6007L255.103 58.562C254.756 58.5232 254.485 58.4462 254.485 58.2144C254.485 57.944 254.756 57.7895 255.18 57.7895C255.644 57.7895 256.108 57.9825 256.339 58.0985L256.687 57.4418ZM278.241 57.0556C277.777 57.0556 277.468 57.2873 277.275 57.5963V57.1328H276.464V60.8409H277.275V58.7551C277.275 58.1372 277.545 57.7895 278.047 57.7895C278.202 57.7895 278.395 57.8282 278.549 57.8668L278.781 57.0943C278.627 57.0556 278.395 57.0556 278.241 57.0556ZM267.889 58.9869C267.889 60.107 268.661 60.9182 269.859 60.9182C270.399 60.9182 270.785 60.8024 271.172 60.4934L270.785 59.8367C270.477 60.0685 270.168 60.1843 269.82 60.1843C269.163 60.1843 268.7 59.7208 268.7 58.9869C268.7 58.2917 269.163 57.828 269.82 57.7895C270.168 57.7895 270.477 57.9053 270.785 58.1372L271.172 57.4805C270.785 57.1714 270.399 57.0556 269.859 57.0556C268.661 57.0556 267.889 57.8668 267.889 58.9869ZM275.382 58.9869V57.1328H274.571V57.5963C274.301 57.2488 273.914 57.0556 273.412 57.0556C272.369 57.0556 271.558 57.8668 271.558 58.9869C271.558 60.107 272.369 60.9182 273.412 60.9182C273.953 60.9182 274.339 60.7251 274.571 60.3774V60.8409H275.382V58.9869ZM272.408 58.9869C272.408 58.3302 272.833 57.7895 273.528 57.7895C274.185 57.7895 274.648 58.2917 274.648 58.9869C274.648 59.6435 274.185 60.1843 273.528 60.1843C272.833 60.1455 272.408 59.6435 272.408 58.9869ZM262.713 57.0556C261.631 57.0556 260.858 57.828 260.858 58.9869C260.858 60.1457 261.631 60.9182 262.751 60.9182C263.292 60.9182 263.833 60.7637 264.258 60.4162L263.871 59.8367C263.562 60.0685 263.176 60.223 262.79 60.223C262.288 60.223 261.786 59.9912 261.67 59.3344H264.412V59.0256C264.451 57.828 263.756 57.0556 262.713 57.0556H262.713ZM262.713 57.7508C263.215 57.7508 263.563 58.06 263.64 58.6394H261.708C261.786 58.1372 262.133 57.7508 262.713 57.7508ZM282.837 58.9869V55.665H282.026V57.5963C281.755 57.2488 281.369 57.0556 280.867 57.0556C279.824 57.0556 279.013 57.8668 279.013 58.9869C279.013 60.107 279.824 60.9182 280.867 60.9182C281.408 60.9182 281.794 60.7251 282.026 60.3774V60.8409H282.837V58.9869ZM279.863 58.9869C279.863 58.3302 280.288 57.7895 280.983 57.7895C281.64 57.7895 282.103 58.2917 282.103 58.9869C282.103 59.6435 281.64 60.1843 280.983 60.1843C280.288 60.1455 279.863 59.6435 279.863 58.9869ZM252.747 58.9869V57.1328H251.936V57.5963C251.665 57.2488 251.279 57.0556 250.777 57.0556C249.734 57.0556 248.923 57.8668 248.923 58.9869C248.923 60.107 249.734 60.9182 250.777 60.9182C251.318 60.9182 251.704 60.7251 251.936 60.3774V60.8409H252.747V58.9869ZM249.734 58.9869C249.734 58.3302 250.159 57.7895 250.854 57.7895C251.511 57.7895 251.975 58.2917 251.975 58.9869C251.975 59.6435 251.511 60.1843 250.854 60.1843C250.159 60.1455 249.734 59.6435 249.734 58.9869Z" fill="white"/>
<path d="M257.189 38.9055C257.189 34.4635 259.275 30.5236 262.48 27.9742C260.124 26.1201 257.15 25 253.906 25C246.219 25 240 31.2188 240 38.9055C240 46.5921 246.219 52.811 253.906 52.811C257.15 52.811 260.124 51.6909 262.48 49.8367C259.275 47.326 257.189 43.3475 257.189 38.9055Z" fill="#EB001B"/>
<path d="M285 38.9055C285 46.5921 278.781 52.811 271.094 52.811C267.849 52.811 264.875 51.6909 262.519 49.8367C265.764 47.2874 267.811 43.3475 267.811 38.9055C267.811 34.4635 265.725 30.5236 262.519 27.9742C264.875 26.1201 267.849 25 271.094 25C278.781 25 285 31.2575 285 38.9055H285Z" fill="#F79E1B"/>
<path d="M37.336 77.408V75H31.596V56.968H37.336V54.56H40.08V56.968H40.724C42.5347 56.968 43.8787 57.3973 44.756 58.256C45.652 59.096 46.1 60.2907 46.1 61.84C46.1 62.8107 45.9133 63.6227 45.54 64.276C45.1667 64.9107 44.6627 65.4053 44.028 65.76C44.868 66.0213 45.5307 66.46 46.016 67.076C46.52 67.6733 46.772 68.56 46.772 69.736C46.772 71.472 46.2773 72.788 45.288 73.684C44.3173 74.5613 42.908 75 41.06 75H40.08V77.408H37.336ZM35.376 64.444H37.336V59.768H35.376V64.444ZM40.08 64.444C40.9573 64.444 41.592 64.248 41.984 63.856C42.376 63.4453 42.572 62.876 42.572 62.148C42.572 61.3827 42.3853 60.804 42.012 60.412C41.6573 60.02 41.0133 59.8053 40.08 59.768V64.444ZM35.376 72.228H37.336V67.188H35.376V72.228ZM40.08 72.228H40.164C41.116 72.228 41.816 72.032 42.264 71.64C42.712 71.248 42.936 70.5573 42.936 69.568C42.936 68.8027 42.7213 68.224 42.292 67.832C41.8813 67.4213 41.144 67.2067 40.08 67.188V72.228ZM48.5288 75L53.6248 68.252L48.7248 61.728H52.8128L55.6688 65.592L58.5248 61.728H62.6128L57.7408 68.252L62.8088 75H58.6928L55.6688 70.94L52.6448 75H48.5288ZM63.9579 78.36L64.8259 72.732H68.0739L66.6739 78.36H63.9579ZM69.8296 75L74.9256 68.252L70.0256 61.728H74.1136L76.9696 65.592L79.8256 61.728H83.9136L79.0416 68.252L84.1096 75H79.9936L76.9696 70.94L73.9456 75H69.8296ZM84.9507 75L90.0467 68.252L85.1467 61.728H89.2347L92.0907 65.592L94.9467 61.728H99.0347L94.1627 68.252L99.2307 75H95.1147L92.0907 70.94L89.0667 75H84.9507ZM100.072 75L105.168 68.252L100.268 61.728H104.356L107.212 65.592L110.068 61.728H114.156L109.284 68.252L114.352 75H110.236L107.212 70.94L104.188 75H100.072ZM115.501 78.36L116.369 72.732H119.617L118.217 78.36H115.501ZM121.373 75L126.469 68.252L121.569 61.728H125.657L128.513 65.592L131.369 61.728H135.457L130.585 68.252L135.653 75H131.537L128.513 70.94L125.489 75H121.373ZM136.494 75L141.59 68.252L136.69 61.728H140.778L143.634 65.592L146.49 61.728H150.578L145.706 68.252L150.774 75H146.658L143.634 70.94L140.61 75H136.494ZM151.615 75L156.711 68.252L151.811 61.728H155.899L158.755 65.592L161.611 61.728H165.699L160.827 68.252L165.895 75H161.779L158.755 70.94L155.731 75H151.615Z" fill="white"/>
<path opacity="0.54" d="M34.046 41.14C33.3833 41.14 32.7767 41.0653 32.226 40.916C31.6753 40.7667 31.2367 40.5147 30.91 40.16C30.5833 39.796 30.42 39.3107 30.42 38.704C30.42 38.3773 30.4947 38.0693 30.644 37.78C30.8027 37.4813 31.0453 37.2433 31.372 37.066C31.1013 36.9447 30.8773 36.7533 30.7 36.492C30.532 36.2307 30.448 35.9133 30.448 35.54C30.448 34.8027 30.6813 34.2473 31.148 33.874C31.6147 33.4913 32.2167 33.3 32.954 33.3C33.2433 33.3 33.4907 33.3187 33.696 33.356C33.9013 33.384 34.088 33.4307 34.256 33.496V34.882C33.9853 34.8073 33.6633 34.77 33.29 34.77C32.9447 34.77 32.6833 34.8307 32.506 34.952C32.3287 35.064 32.24 35.26 32.24 35.54C32.24 35.848 32.338 36.0627 32.534 36.184C32.73 36.296 33.024 36.352 33.416 36.352H34.2L34.27 37.738H33.402C32.6087 37.738 32.212 38.06 32.212 38.704C32.212 39.0213 32.352 39.264 32.632 39.432C32.9213 39.5907 33.3647 39.67 33.962 39.67C34.5687 39.67 35.0167 39.544 35.306 39.292C35.5953 39.04 35.74 38.676 35.74 38.2V33.44H37.63V38.032C37.63 39.124 37.3173 39.9173 36.692 40.412C36.076 40.8973 35.194 41.14 34.046 41.14ZM42.1439 41.14C41.5186 41.14 40.9352 41.084 40.3939 40.972C39.8526 40.8507 39.3952 40.7107 39.0219 40.552V36.576H42.2279L42.3119 37.962H40.8139V39.488C40.9912 39.544 41.2012 39.5907 41.4439 39.628C41.6959 39.656 41.9339 39.67 42.1579 39.67C42.9232 39.67 43.4599 39.488 43.7679 39.124C44.0759 38.76 44.2299 38.1347 44.2299 37.248C44.2299 36.6133 44.1459 36.1187 43.9779 35.764C43.8192 35.4 43.5532 35.1433 43.1799 34.994C42.8159 34.8447 42.3166 34.77 41.6819 34.77C41.2712 34.77 40.8419 34.8027 40.3939 34.868C39.9552 34.924 39.5306 35.0173 39.1199 35.148V33.734C39.5399 33.594 40.0206 33.4867 40.5619 33.412C41.1032 33.3373 41.6306 33.3 42.1439 33.3C43.5066 33.3 44.4912 33.6407 45.0979 34.322C45.7139 34.994 46.0219 35.9693 46.0219 37.248C46.0219 38.4987 45.7139 39.46 45.0979 40.132C44.4912 40.804 43.5066 41.14 42.1439 41.14ZM50.225 41.14C49.6183 41.14 49.077 41.0093 48.601 40.748C48.125 40.4867 47.747 40.0807 47.467 39.53C47.1963 38.97 47.061 38.2513 47.061 37.374C47.061 36.086 47.3923 35.0873 48.055 34.378C48.727 33.6593 49.7116 33.3 51.009 33.3C51.9143 33.3 52.647 33.454 53.207 33.762C53.767 34.0607 54.173 34.448 54.425 34.924C54.6863 35.4 54.817 35.904 54.817 36.436V41H52.927V36.562C52.927 36.2073 52.871 35.8993 52.759 35.638C52.647 35.3673 52.4463 35.1573 52.157 35.008C51.877 34.8493 51.485 34.77 50.981 34.77C49.5623 34.77 48.853 35.638 48.853 37.374C48.853 38.2233 49.0023 38.8207 49.301 39.166C49.5996 39.502 50.0196 39.67 50.561 39.67C50.7383 39.67 50.911 39.6607 51.079 39.642C51.2563 39.6233 51.4056 39.5953 51.527 39.558V40.944C51.359 41.0093 51.1723 41.056 50.967 41.084C50.7616 41.1213 50.5143 41.14 50.225 41.14ZM58.1815 41C57.5748 41 57.1455 40.874 56.8935 40.622C56.6508 40.37 56.5295 39.9733 56.5295 39.432V33.44H58.4195V38.942C58.4195 39.334 58.6108 39.53 58.9935 39.53H59.4695V41H58.1815ZM63.6361 41.14C63.3841 41.14 63.1134 41.1213 62.8241 41.084C62.5441 41.0467 62.2968 40.9953 62.0821 40.93L59.9541 35.75H61.7881L63.4541 39.796C64.1541 39.796 64.6581 39.5627 64.9661 39.096C65.2834 38.62 65.4421 37.9153 65.4421 36.982C65.4421 36.422 65.3861 35.9833 65.2741 35.666C65.1714 35.3487 64.9988 35.1247 64.7561 34.994C64.5134 34.854 64.1774 34.784 63.7481 34.784H63.1741V33.44H64.0141C65.1248 33.44 65.9368 33.734 66.4501 34.322C66.9728 34.9007 67.2341 35.7873 67.2341 36.982C67.2341 37.962 67.0801 38.76 66.7721 39.376C66.4641 39.9827 66.0394 40.4307 65.4981 40.72C64.9661 41 64.3454 41.14 63.6361 41.14ZM60.3929 32.404L60.4909 31.116H66.5109V32.404H60.3929ZM70.7949 41.14C69.9829 41.14 69.3436 40.8973 68.8769 40.412C68.4102 39.9173 68.1769 39.2313 68.1769 38.354V33.44H70.0669V38.242C70.0669 38.7553 70.1789 39.124 70.4029 39.348C70.6362 39.5627 70.9769 39.67 71.4249 39.67C71.7796 39.67 72.1249 39.5953 72.4609 39.446C72.7969 39.2967 73.0676 39.11 73.2729 38.886V33.44H75.1629V41H73.4269L73.3429 40.258C73.0069 40.5287 72.6289 40.7433 72.2089 40.902C71.7889 41.0607 71.3176 41.14 70.7949 41.14ZM76.8312 41V36.31C76.8312 35.3953 77.1112 34.6673 77.6712 34.126C78.2405 33.5753 79.1505 33.3 80.4012 33.3C81.6519 33.3 82.5572 33.5753 83.1172 34.126C83.6772 34.6673 83.9572 35.3953 83.9572 36.31V41H82.0672V36.17C82.0672 35.7033 81.9179 35.3533 81.6192 35.12C81.3299 34.8867 80.9239 34.77 80.4012 34.77C79.2812 34.77 78.7212 35.2367 78.7212 36.17V37.528C78.8985 37.3973 79.0945 37.29 79.3092 37.206C79.5332 37.122 79.7759 37.08 80.0372 37.08H80.9472L81.0032 38.578H79.9952C79.7339 38.578 79.5005 38.6153 79.2952 38.69C79.0899 38.7553 78.8985 38.8533 78.7212 38.984V41H76.8312ZM88.4642 41.14C88.2122 41.14 87.9416 41.1213 87.6522 41.084C87.3722 41.0467 87.1249 40.9953 86.9102 40.93L84.7822 35.75H86.6162L88.2822 39.796C88.9822 39.796 89.4862 39.5627 89.7942 39.096C90.1116 38.62 90.2702 37.9153 90.2702 36.982C90.2702 36.422 90.2142 35.9833 90.1022 35.666C89.9996 35.3487 89.8269 35.1247 89.5842 34.994C89.3416 34.854 89.0056 34.784 88.5762 34.784H88.0022V33.44H88.8422C89.9529 33.44 90.7649 33.734 91.2782 34.322C91.8009 34.9007 92.0622 35.7873 92.0622 36.982C92.0622 37.962 91.9082 38.76 91.6002 39.376C91.2922 39.9827 90.8676 40.4307 90.3262 40.72C89.7942 41 89.1736 41.14 88.4642 41.14ZM94.699 41C94.0924 41 93.663 40.874 93.411 40.622C93.1684 40.37 93.047 39.9733 93.047 39.432V33.44H94.937V38.942C94.937 39.334 95.1284 39.53 95.511 39.53H95.987V41H94.699ZM97.3117 41V33.44H99.2017V35.736H101.078C101.563 35.736 101.894 35.6333 102.072 35.428C102.258 35.2133 102.352 34.8913 102.352 34.462V33.44H104.242V34.392C104.242 34.8587 104.162 35.274 104.004 35.638C103.854 35.9927 103.574 36.2493 103.164 36.408C103.556 36.5573 103.822 36.7907 103.962 37.108C104.111 37.416 104.186 37.7753 104.186 38.186V41H102.296V38.396C102.296 37.92 102.202 37.5887 102.016 37.402C101.838 37.2153 101.512 37.122 101.036 37.122H99.2017V41H97.3117ZM108.251 41.14C107.775 41.14 107.336 41.0653 106.935 40.916C106.533 40.7573 106.211 40.5053 105.969 40.16C105.735 39.8053 105.619 39.3387 105.619 38.76C105.619 38.004 105.875 37.4253 106.389 37.024C106.902 36.6133 107.639 36.408 108.601 36.408H110.743V36.044C110.743 35.5773 110.612 35.2507 110.351 35.064C110.089 34.868 109.627 34.77 108.965 34.77C108.507 34.77 108.073 34.8027 107.663 34.868C107.261 34.924 106.86 35.0173 106.459 35.148V33.734C106.841 33.6127 107.285 33.51 107.789 33.426C108.293 33.342 108.787 33.3 109.273 33.3C110.402 33.3 111.242 33.538 111.793 34.014C112.353 34.49 112.633 35.232 112.633 36.24V41H110.743V37.794H108.713C108.311 37.794 107.994 37.864 107.761 38.004C107.527 38.144 107.411 38.396 107.411 38.76C107.411 39.1053 107.513 39.3433 107.719 39.474C107.924 39.6047 108.269 39.67 108.755 39.67C108.932 39.67 109.105 39.6607 109.273 39.642C109.45 39.6233 109.599 39.5953 109.721 39.558V40.944C109.543 41 109.324 41.0467 109.063 41.084C108.811 41.1213 108.54 41.14 108.251 41.14ZM106.508 32.404L106.606 31.116H109.168V29.982H110.498V31.116H111.296V29.982H112.626V32.404H106.508ZM117.134 41.14C116.509 41.14 115.925 41.084 115.384 40.972C114.843 40.8507 114.385 40.7107 114.012 40.552V36.576H117.218L117.302 37.962H115.804V39.488C115.981 39.544 116.191 39.5907 116.434 39.628C116.686 39.656 116.924 39.67 117.148 39.67C117.913 39.67 118.45 39.488 118.758 39.124C119.066 38.76 119.22 38.1347 119.22 37.248C119.22 36.6133 119.136 36.1187 118.968 35.764C118.809 35.4 118.543 35.1433 118.17 34.994C117.806 34.8447 117.307 34.77 116.672 34.77C116.261 34.77 115.832 34.8027 115.384 34.868C114.945 34.924 114.521 35.0173 114.11 35.148V33.734C114.53 33.594 115.011 33.4867 115.552 33.412C116.093 33.3373 116.621 33.3 117.134 33.3C118.497 33.3 119.481 33.6407 120.088 34.322C120.704 34.994 121.012 35.9693 121.012 37.248C121.012 38.4987 120.704 39.46 120.088 40.132C119.481 40.804 118.497 41.14 117.134 41.14Z" fill="white"/>
<path opacity="0.54" d="M31.78 138C31.3467 138 31.04 137.91 30.86 137.73C30.6867 137.55 30.6 137.267 30.6 136.88V132.6H31.95V136.53C31.95 136.81 32.0867 136.95 32.36 136.95H32.7V138H31.78ZM35.3562 138.1C35.0162 138.1 34.7028 138.047 34.4162 137.94C34.1295 137.827 33.8995 137.647 33.7262 137.4C33.5595 137.147 33.4762 136.813 33.4762 136.4C33.4762 135.86 33.6595 135.447 34.0262 135.16C34.3928 134.867 34.9195 134.72 35.6062 134.72H37.1362V134.46C37.1362 134.127 37.0428 133.893 36.8562 133.76C36.6695 133.62 36.3395 133.55 35.8662 133.55C35.5395 133.55 35.2295 133.573 34.9362 133.62C34.6495 133.66 34.3628 133.727 34.0762 133.82V132.81C34.3495 132.723 34.6662 132.65 35.0262 132.59C35.3862 132.53 35.7395 132.5 36.0862 132.5C36.8928 132.5 37.4928 132.67 37.8862 133.01C38.2862 133.35 38.4862 133.88 38.4862 134.6V138H37.1362V135.71H35.6862C35.3995 135.71 35.1728 135.76 35.0062 135.86C34.8395 135.96 34.7562 136.14 34.7562 136.4C34.7562 136.647 34.8295 136.817 34.9762 136.91C35.1228 137.003 35.3695 137.05 35.7162 137.05C35.8428 137.05 35.9662 137.043 36.0862 137.03C36.2128 137.017 36.3195 136.997 36.4062 136.97V137.96C36.2795 138 36.1228 138.033 35.9362 138.06C35.7562 138.087 35.5628 138.1 35.3562 138.1ZM41.9816 138.1C41.1749 138.1 40.5682 137.913 40.1616 137.54C39.7549 137.167 39.5516 136.657 39.5516 136.01V135.67C39.5516 135.443 39.5949 135.24 39.6816 135.06C39.7682 134.88 39.8649 134.72 39.9716 134.58C40.0849 134.44 40.1849 134.31 40.2716 134.19C40.3582 134.07 40.4016 133.957 40.4016 133.85C40.4016 133.75 40.3782 133.683 40.3316 133.65C40.2849 133.617 40.2016 133.6 40.0816 133.6H39.4316L39.5416 132.6H40.9416C41.4949 132.6 41.7716 132.857 41.7716 133.37C41.7716 133.597 41.7282 133.803 41.6416 133.99C41.5549 134.17 41.4516 134.343 41.3316 134.51C41.2182 134.677 41.1182 134.853 41.0316 135.04C40.9449 135.22 40.9016 135.427 40.9016 135.66V136.09C40.9016 136.73 41.2616 137.05 41.9816 137.05C42.7149 137.05 43.0816 136.717 43.0816 136.05V132.6H44.4316V135.99C44.4316 136.637 44.2149 137.15 43.7816 137.53C43.3482 137.91 42.7482 138.1 41.9816 138.1ZM48.1888 138.1C47.3955 138.1 46.7688 137.913 46.3088 137.54C45.8488 137.16 45.6188 136.59 45.6188 135.83V132.6H46.9688V135.85C46.9688 136.65 47.3755 137.05 48.1888 137.05C49.0022 137.05 49.4088 136.65 49.4088 135.85V132.6H50.7588V135.83C50.7588 136.59 50.5288 137.16 50.0688 137.54C49.6088 137.913 48.9822 138.1 48.1888 138.1ZM48.187 131.86V130.27H49.287V130.94H51.777L51.727 131.86H48.187ZM54.007 138.1C53.5736 138.1 53.187 138.007 52.847 137.82C52.507 137.633 52.237 137.343 52.037 136.95C51.8436 136.55 51.747 136.037 51.747 135.41C51.747 134.457 51.9136 133.733 52.247 133.24C52.587 132.747 53.0436 132.5 53.617 132.5C53.9036 132.5 54.127 132.547 54.287 132.64C54.447 132.733 54.5803 132.857 54.687 133.01C54.8203 132.857 55.0036 132.733 55.237 132.64C55.477 132.547 55.7203 132.5 55.967 132.5C56.4403 132.5 56.787 132.643 57.007 132.93C57.2336 133.217 57.347 133.593 57.347 134.06V138H55.997V134.27C55.997 134.037 55.9636 133.86 55.897 133.74C55.837 133.613 55.717 133.55 55.537 133.55C55.417 133.55 55.307 133.59 55.207 133.67C55.1136 133.743 55.047 133.857 55.007 134.01H54.357C54.2903 133.857 54.2203 133.743 54.147 133.67C54.0736 133.59 53.967 133.55 53.827 133.55C53.5136 133.55 53.3003 133.723 53.187 134.07C53.0803 134.41 53.027 134.857 53.027 135.41C53.027 136.017 53.1336 136.443 53.347 136.69C53.5603 136.93 53.8603 137.05 54.247 137.05C54.3736 137.05 54.497 137.043 54.617 137.03C54.7436 137.017 54.8503 136.997 54.937 136.97V137.96C54.817 138.007 54.6836 138.04 54.537 138.06C54.3903 138.087 54.2136 138.1 54.007 138.1ZM60.3588 138.1C59.9854 138.1 59.6254 138.073 59.2788 138.02C58.9388 137.967 58.6621 137.897 58.4488 137.81V136.72C58.7021 136.827 58.9788 136.91 59.2788 136.97C59.5854 137.023 59.8621 137.05 60.1088 137.05C60.5421 137.05 60.8554 137.017 61.0488 136.95C61.2488 136.883 61.3488 136.747 61.3488 136.54C61.3488 136.38 61.2954 136.257 61.1888 136.17C61.0888 136.083 60.9321 136.007 60.7188 135.94C60.5054 135.867 60.2321 135.773 59.8988 135.66C59.4121 135.487 59.0288 135.293 58.7488 135.08C58.4754 134.86 58.3388 134.537 58.3388 134.11C58.3388 133.63 58.5254 133.243 58.8988 132.95C59.2721 132.65 59.8354 132.5 60.5888 132.5C60.9021 132.5 61.2154 132.523 61.5288 132.57C61.8421 132.617 62.0988 132.673 62.2988 132.74V133.82C62.0788 133.727 61.8254 133.66 61.5388 133.62C61.2588 133.573 61.0054 133.55 60.7788 133.55C60.4654 133.55 60.1921 133.587 59.9588 133.66C59.7321 133.727 59.6188 133.867 59.6188 134.08C59.6188 134.213 59.6754 134.32 59.7888 134.4C59.9088 134.48 60.0754 134.553 60.2888 134.62C60.5088 134.687 60.7688 134.773 61.0688 134.88C61.4421 135.007 61.7421 135.14 61.9688 135.28C62.2021 135.42 62.3688 135.59 62.4688 135.79C62.5754 135.99 62.6288 136.24 62.6288 136.54C62.6288 137.067 62.4254 137.46 62.0188 137.72C61.6188 137.973 61.0654 138.1 60.3588 138.1Z" fill="white"/>
<path opacity="0.54" d="M239.93 138.1C239.283 138.1 238.71 137.993 238.21 137.78V136.75C238.417 136.837 238.64 136.91 238.88 136.97C239.12 137.023 239.363 137.05 239.61 137.05C240.237 137.05 240.683 136.92 240.95 136.66C241.223 136.4 241.36 135.947 241.36 135.3C241.36 134.653 241.223 134.2 240.95 133.94C240.683 133.68 240.237 133.55 239.61 133.55C239.363 133.55 239.12 133.577 238.88 133.63C238.64 133.683 238.417 133.757 238.21 133.85V132.82C238.71 132.607 239.283 132.5 239.93 132.5C240.843 132.5 241.523 132.74 241.97 133.22C242.417 133.693 242.64 134.387 242.64 135.3C242.64 136.213 242.417 136.91 241.97 137.39C241.523 137.863 240.843 138.1 239.93 138.1ZM239.722 131.86V130.27H240.822V130.94H243.312L243.262 131.86H239.722ZM245.352 138.1C244.772 138.1 244.315 137.927 243.982 137.58C243.649 137.227 243.482 136.737 243.482 136.11V132.6H244.832V136.03C244.832 136.397 244.912 136.66 245.072 136.82C245.239 136.973 245.482 137.05 245.802 137.05C246.055 137.05 246.302 136.997 246.542 136.89C246.782 136.783 246.975 136.65 247.122 136.49V132.6H248.472V138H247.232L247.172 137.47C246.932 137.663 246.662 137.817 246.362 137.93C246.062 138.043 245.725 138.1 245.352 138.1ZM249.664 138V132.6H251.014V134.24H252.354C252.7 134.24 252.937 134.167 253.064 134.02C253.197 133.867 253.264 133.637 253.264 133.33V132.6H254.614V133.28C254.614 133.613 254.557 133.91 254.444 134.17C254.337 134.423 254.137 134.607 253.844 134.72C254.124 134.827 254.314 134.993 254.414 135.22C254.52 135.44 254.574 135.697 254.574 135.99V138H253.224V136.14C253.224 135.8 253.157 135.563 253.024 135.43C252.897 135.297 252.664 135.23 252.324 135.23H251.014V138H249.664ZM258.887 138.1C258.514 138.1 258.177 138.043 257.877 137.93C257.577 137.817 257.307 137.663 257.067 137.47L257.007 138H255.767V132.6H257.117V136.49C257.264 136.65 257.457 136.783 257.697 136.89C257.944 136.997 258.191 137.05 258.437 137.05C258.757 137.05 258.997 136.973 259.157 136.82C259.324 136.66 259.407 136.397 259.407 136.03V132.6H260.757V136.11C260.757 136.737 260.591 137.227 260.257 137.58C259.924 137.927 259.467 138.1 258.887 138.1ZM264.009 138.1C263.576 138.1 263.189 138.007 262.849 137.82C262.509 137.633 262.239 137.343 262.039 136.95C261.846 136.55 261.749 136.037 261.749 135.41C261.749 134.49 261.986 133.777 262.459 133.27C262.939 132.757 263.642 132.5 264.569 132.5C265.216 132.5 265.739 132.61 266.139 132.83C266.539 133.043 266.829 133.32 267.009 133.66C267.196 134 267.289 134.36 267.289 134.74V138H265.939V134.83C265.939 134.577 265.899 134.357 265.819 134.17C265.739 133.977 265.596 133.827 265.389 133.72C265.189 133.607 264.909 133.55 264.549 133.55C263.536 133.55 263.029 134.17 263.029 135.41C263.029 136.017 263.136 136.443 263.349 136.69C263.562 136.93 263.862 137.05 264.249 137.05C264.376 137.05 264.499 137.043 264.619 137.03C264.746 137.017 264.852 136.997 264.939 136.97V137.96C264.819 138.007 264.686 138.04 264.539 138.06C264.392 138.087 264.216 138.1 264.009 138.1ZM270.512 138.1C270.065 138.1 269.649 138.06 269.262 137.98C268.875 137.893 268.549 137.793 268.282 137.68V134.84H270.572L270.632 135.83H269.562V136.92C269.689 136.96 269.839 136.993 270.012 137.02C270.192 137.04 270.362 137.05 270.522 137.05C271.069 137.05 271.452 136.92 271.672 136.66C271.892 136.4 272.002 135.953 272.002 135.32C272.002 134.867 271.942 134.513 271.822 134.26C271.709 134 271.519 133.817 271.252 133.71C270.992 133.603 270.635 133.55 270.182 133.55C269.889 133.55 269.582 133.573 269.262 133.62C268.949 133.66 268.645 133.727 268.352 133.82V132.81C268.652 132.71 268.995 132.633 269.382 132.58C269.769 132.527 270.145 132.5 270.512 132.5C271.485 132.5 272.189 132.743 272.622 133.23C273.062 133.71 273.282 134.407 273.282 135.32C273.282 136.213 273.062 136.9 272.622 137.38C272.189 137.86 271.485 138.1 270.512 138.1ZM276.134 138V134.68C276.134 134.32 276.064 134.043 275.924 133.85C275.784 133.65 275.504 133.55 275.084 133.55C274.864 133.55 274.631 133.577 274.384 133.63C274.138 133.677 273.918 133.737 273.724 133.81V132.82C273.924 132.727 274.171 132.65 274.464 132.59C274.758 132.53 275.051 132.5 275.344 132.5C276.104 132.5 276.651 132.663 276.984 132.99C277.318 133.31 277.484 133.81 277.484 134.49V138H276.134ZM280.997 138.1C280.524 138.1 280.091 138.047 279.697 137.94C279.304 137.833 278.991 137.653 278.757 137.4C278.524 137.14 278.407 136.793 278.407 136.36C278.407 136.127 278.461 135.907 278.567 135.7C278.681 135.487 278.854 135.317 279.087 135.19C278.894 135.103 278.734 134.967 278.607 134.78C278.487 134.593 278.427 134.367 278.427 134.1C278.427 133.573 278.594 133.177 278.927 132.91C279.261 132.637 279.691 132.5 280.217 132.5C280.424 132.5 280.601 132.513 280.747 132.54C280.894 132.56 281.027 132.593 281.147 132.64V133.63C280.954 133.577 280.724 133.55 280.457 133.55C280.211 133.55 280.024 133.593 279.897 133.68C279.771 133.76 279.707 133.9 279.707 134.1C279.707 134.32 279.777 134.473 279.917 134.56C280.057 134.64 280.267 134.68 280.547 134.68H281.107L281.157 135.67H280.537C279.971 135.67 279.687 135.9 279.687 136.36C279.687 136.587 279.787 136.76 279.987 136.88C280.194 136.993 280.511 137.05 280.937 137.05C281.371 137.05 281.691 136.96 281.897 136.78C282.104 136.6 282.207 136.34 282.207 136V132.6H283.557V135.88C283.557 136.66 283.334 137.227 282.887 137.58C282.447 137.927 281.817 138.1 280.997 138.1ZM282.412 140.53V139.37H281.812L281.862 138.51H283.552V140.53H282.412Z" fill="white"/>
<defs>
<linearGradient id="paint0_linear_918_2284" x1="158.586" y1="-30.5053" x2="165.299" y2="207.036" gradientUnits="userSpaceOnUse">
<stop stop-color="#D8B4FE"/>
<stop offset="1" stop-color="#A78BFA"/>
</linearGradient>
</defs>
</svg>
