<svg width="580" height="432" viewBox="0 0 580 432" fill="none" xmlns="http://www.w3.org/2000/svg">
<path d="M290 432C414.215 432 514.912 426.123 514.912 418.874C514.912 411.625 414.215 405.748 290 405.748C165.784 405.748 65.0874 411.625 65.0874 418.874C65.0874 426.123 165.784 432 290 432Z" fill="#FBFBFB"/>
<path d="M405.13 125.729L393.623 121.091C393.623 121.091 378.438 148.769 374.088 150.172C368.172 152.074 355.923 157.362 348.661 158.289C347.675 159.449 346.063 163.055 346.213 164.365C355.969 167.624 377.406 163.299 382 159.889C392.451 152.155 405.13 125.729 405.13 125.729Z" fill="#E58A7B"/>
<path d="M408.668 119.433C410.814 127.353 399.191 143.285 399.191 143.285L383.96 134.751C383.96 134.751 386.814 128.199 390.294 121.532C395.873 110.76 406.22 110.4 408.668 119.433Z" fill="#4CAF4F"/>
<path opacity="0.2" d="M408.668 119.433C410.814 127.353 399.191 143.285 399.191 143.285L383.96 134.751C383.96 134.751 386.814 128.199 390.294 121.532C395.873 110.76 406.22 110.4 408.668 119.433Z" fill="black"/>
<path opacity="0.2" d="M390.003 138.16L396.001 141.522L397.056 123.12C393.565 125.799 391.105 133.869 390.003 138.16Z" fill="black"/>
<path d="M398.646 113.473C398.646 113.473 386.79 139.841 393.704 188.936H440.417C441.16 181.77 438.7 146.798 447.598 113.032C442.473 112.031 437.288 111.369 432.077 111.05C425.467 110.667 418.84 110.667 412.229 111.05C407.647 111.515 403.106 112.325 398.646 113.473Z" fill="#4CAF4F"/>
<path opacity="0.2" d="M398.646 113.473C398.646 113.473 386.79 139.841 393.704 188.936H440.417C441.16 181.77 438.7 146.798 447.598 113.032C442.473 112.031 437.288 111.369 432.077 111.05C425.467 110.667 418.84 110.667 412.229 111.05C407.647 111.515 403.106 112.325 398.646 113.473Z" fill="black"/>
<g style="mix-blend-mode:multiply">
<path d="M387.811 419.917C387.742 421.17 405.455 422.179 427.367 422.179C449.28 422.179 467.12 421.17 467.19 419.917C467.26 418.665 449.558 417.668 427.634 417.668C405.71 417.668 387.892 418.677 387.811 419.917Z" fill="#E8ECF1"/>
</g>
<path d="M418.993 387.013L410.708 390.219L417.844 408.648L426.129 405.442L418.993 387.013Z" fill="#E58A7B"/>
<path d="M455.938 411.001H447.203L444.001 390.79H452.736L455.938 411.001Z" fill="#E58A7B"/>
<path d="M446.6 409.992H456.413C456.584 409.992 456.748 410.053 456.878 410.164C457.007 410.274 457.094 410.427 457.121 410.595L458.386 418.352C458.412 418.547 458.397 418.745 458.34 418.933C458.283 419.121 458.187 419.294 458.057 419.442C457.927 419.589 457.767 419.707 457.587 419.787C457.408 419.867 457.213 419.908 457.017 419.906C453.595 419.848 451.948 419.639 447.632 419.639C444.976 419.639 439.512 419.917 435.823 419.917C432.135 419.917 431.891 416.3 433.411 415.963C440.231 414.491 442.876 412.485 445.15 410.537C445.551 410.185 446.066 409.991 446.6 409.992Z" fill="#263238"/>
<path d="M417.6 407L426.88 404.287C427.046 404.24 427.222 404.252 427.381 404.319C427.539 404.387 427.669 404.506 427.75 404.658L431.23 411.615C431.311 411.792 431.352 411.984 431.351 412.178C431.35 412.372 431.307 412.563 431.224 412.739C431.141 412.915 431.021 413.07 430.872 413.194C430.722 413.319 430.548 413.409 430.36 413.459C426.985 414.386 424.723 414.955 420.5 416.184C417.589 417.03 414.619 418.41 411.742 419.326C409.747 419.964 405.061 419.987 402.636 419.987C399.052 419.987 398.251 416.207 399.794 416.033C403.68 415.604 404.202 415.801 406.348 414.723C409.86 413.188 413.042 410.992 415.721 408.252C416.226 407.677 416.874 407.245 417.6 407Z" fill="#263238"/>
<path d="M350.123 158.243L340.518 154.219L336.562 164.864C340.499 165.464 344.504 165.464 348.441 164.864L350.123 158.243Z" fill="#E58A7B"/>
<path d="M333.372 153.941L333.117 161.014L336.562 164.841L340.518 154.196L333.372 153.941Z" fill="#E58A7B"/>
<path d="M420.129 388.578L411.818 391.785L415.499 401.315L423.81 398.108L420.129 388.578Z" fill="#CF6F64"/>
<path d="M452.736 390.79H444.001L445.66 401.214H454.395L452.736 390.79Z" fill="#CF6F64"/>
<path opacity="0.2" d="M392.219 175.659C392.393 177.758 392.59 179.903 392.846 182.106L427.576 170.836C433 169.229 437.713 165.822 440.939 161.177C441.078 158.081 441.252 154.822 441.519 151.425C441.635 149.778 441.774 148.085 441.925 146.369C442.076 144.653 442.285 142.752 442.505 140.919L392.219 175.659Z" fill="black"/>
<path d="M431.427 88.7051C429.791 95.0942 427.866 106.794 432.077 111.05C432.077 111.05 429.13 117.531 417.263 117.531C406.417 117.531 412.229 111.05 412.229 111.05C419.444 109.357 419.572 104.092 418.621 99.1062L431.427 88.7051Z" fill="#E58A7B"/>
<path d="M426.207 92.949L418.632 99.1062C418.867 100.252 419.003 101.416 419.038 102.585C421.254 104.788 425.697 99.2105 426.149 96.358C426.379 95.235 426.399 94.0792 426.207 92.949Z" fill="#CF6F64"/>
<path d="M405.606 88.624C406.133 89.5372 406.842 90.3319 407.691 90.9583C408.539 91.5848 409.507 92.0296 410.536 92.265C413.32 92.8795 414.712 90.3169 413.946 87.7427C413.262 85.4236 410.976 82.3045 408.146 82.8379C407.54 82.9627 406.972 83.2309 406.491 83.6201C406.01 84.0093 405.629 84.5081 405.38 85.0747C405.131 85.6413 405.022 86.2592 405.061 86.8768C405.1 87.4943 405.287 88.0934 405.606 88.624Z" fill="#CF6F64"/>
<path d="M410.211 68.1811C405.873 70.1639 404.341 87.3948 409.793 89.9458C415.245 92.4968 418.424 64.4126 410.211 68.1811Z" fill="#263238"/>
<path d="M432.75 79.0924C431.706 87.7426 431.59 92.833 426.95 97.2625C425.512 98.7324 423.696 99.7765 421.702 100.28C419.707 100.783 417.613 100.725 415.65 100.113C413.686 99.5014 411.93 98.3591 410.575 96.8125C409.221 95.2658 408.32 93.375 407.972 91.3488C406.568 83.5798 408.506 70.7437 417.182 67.2998C419.006 66.496 421.01 66.1943 422.99 66.4258C424.969 66.6574 426.85 67.4139 428.438 68.6169C430.026 69.8199 431.263 71.4256 432.021 73.2675C432.779 75.1094 433.031 77.1206 432.75 79.0924Z" fill="#E58A7B"/>
<path d="M418.493 72.657C424.919 71.0221 429.641 69.9089 427.947 75.2544C425.708 82.3972 423.017 89.3081 426.625 89.6211C428.829 89.8183 438.573 85.6903 437.331 81.5043C436.253 77.8634 440.811 76.8662 441.623 75.0225C444.628 68.3435 436.032 69.2248 437.563 65.1663C439.095 61.1079 426.071 55.5404 421.431 58.7988C416.035 59.3382 416.574 57.7199 405.782 65.1663C396.409 70.3147 404.063 76.356 418.493 72.657Z" fill="#263238"/>
<path d="M436.16 88.624C434.891 90.459 432.985 91.7568 430.812 92.265C427.947 92.8795 426.845 90.3169 427.924 87.7427C428.887 85.4236 431.531 82.3045 434.269 82.8379C437.007 83.3713 437.633 86.3513 436.16 88.624Z" fill="#E58A7B"/>
<path d="M393.704 188.936C393.704 188.936 385.862 259.088 385.247 285.712C384.621 313.402 411.823 399.799 411.823 399.799L425.743 394.002C425.743 394.002 409.503 315.06 411.823 287.868C414.282 258.219 424.444 188.982 424.444 188.982L393.704 188.936Z" fill="#4CAF4F"/>
<path opacity="0.2" d="M413.192 208.196C406.94 221.16 411.15 246.797 414.538 261.987C415.825 251.262 417.356 239.62 418.806 228.848C418.667 212.289 417.38 199.5 413.192 208.196Z" fill="black"/>
<path d="M425.128 389.41C425.198 389.41 426.776 393.839 426.776 393.839L410.721 400.588L408.192 395.88L425.128 389.41Z" fill="#4CAF4F"/>
<path d="M410.28 188.936C410.28 188.936 416.277 255.656 420.245 280.644C424.606 308.021 441.705 399.196 441.705 399.196H457.701C457.701 399.196 448.119 310.236 446.31 283.126C444.338 253.72 440.417 188.936 440.417 188.936H410.28Z" fill="#4CAF4F"/>
<path d="M457.945 395.034C458.015 395.034 458.479 399.498 458.479 399.498H440.893L439.64 394.373L457.945 395.034Z" fill="#4CAF4F"/>
<path opacity="0.2" d="M451.82 389.746C451.784 389.746 451.749 389.734 451.721 389.71C451.693 389.687 451.675 389.654 451.669 389.618C451.576 388.807 442.934 308.45 441.31 284.1C439.547 257.685 435.998 199.094 435.963 198.502C435.961 198.483 435.964 198.464 435.97 198.445C435.976 198.427 435.986 198.411 435.999 198.396C436.012 198.382 436.028 198.371 436.046 198.363C436.064 198.355 436.083 198.351 436.102 198.352C436.14 198.351 436.177 198.366 436.205 198.392C436.233 198.417 436.25 198.453 436.253 198.491C436.253 199.082 439.837 257.627 441.6 284.088C443.224 308.439 451.866 388.737 451.948 389.607C451.951 389.626 451.95 389.646 451.945 389.665C451.941 389.683 451.932 389.701 451.92 389.716C451.908 389.732 451.893 389.744 451.876 389.753C451.858 389.762 451.839 389.768 451.82 389.769V389.746Z" fill="black"/>
<path d="M452.087 124.442L440.023 121.23C440.023 121.23 428.191 150.346 424.003 152.236C418.319 154.834 403.924 163.832 397.799 168.087C397.462 169.537 397.729 173.375 398.495 174.43C408.935 172.528 428.922 164.841 433.098 160.933C442.621 152.016 452.087 124.442 452.087 124.442Z" fill="#E58A7B"/>
<path d="M443.665 411.522C443.077 411.569 442.49 411.409 442.007 411.07C441.857 410.935 441.745 410.764 441.682 410.573C441.619 410.382 441.607 410.178 441.647 409.98C441.654 409.857 441.695 409.738 441.764 409.636C441.834 409.534 441.929 409.453 442.041 409.401C443.016 408.902 445.742 410.63 446.055 410.827C446.089 410.848 446.116 410.88 446.131 410.917C446.145 410.955 446.147 410.997 446.136 411.035C446.126 411.076 446.106 411.113 446.078 411.144C446.049 411.174 446.013 411.197 445.974 411.209C445.218 411.395 444.444 411.5 443.665 411.522ZM442.505 409.714C442.417 409.694 442.326 409.694 442.239 409.714C442.194 409.736 442.157 409.771 442.132 409.814C442.108 409.858 442.096 409.907 442.099 409.957C442.068 410.092 442.074 410.233 442.114 410.365C442.155 410.497 442.23 410.617 442.331 410.711C442.784 411.117 443.921 411.163 445.417 410.873C444.526 410.286 443.523 409.892 442.471 409.714H442.505Z" fill="#4CAF4F"/>
<path d="M445.915 411.209C445.885 411.219 445.853 411.219 445.823 411.209C444.953 410.722 443.317 408.809 443.561 407.835C443.597 407.681 443.684 407.543 443.808 407.444C443.933 407.345 444.086 407.291 444.245 407.29C444.401 407.269 444.559 407.282 444.709 407.328C444.859 407.374 444.998 407.452 445.115 407.557C446.078 408.38 446.136 410.908 446.136 411.035C446.141 411.074 446.134 411.112 446.115 411.146C446.096 411.18 446.067 411.206 446.031 411.221C445.992 411.229 445.952 411.225 445.915 411.209ZM444.361 407.673H444.28C444.013 407.673 443.978 407.824 443.967 407.882C443.827 408.45 444.86 409.899 445.718 410.583C445.714 409.604 445.411 408.649 444.848 407.847C444.714 407.729 444.54 407.667 444.361 407.673Z" fill="#4CAF4F"/>
<path d="M412.867 410.073C412.158 410.32 411.385 410.32 410.675 410.073C410.514 409.986 410.377 409.859 410.278 409.705C410.178 409.551 410.12 409.375 410.107 409.192C410.092 409.077 410.107 408.961 410.149 408.853C410.192 408.746 410.261 408.651 410.35 408.577C411.278 407.742 415.071 408.577 415.501 408.74C415.541 408.75 415.577 408.774 415.603 408.808C415.628 408.842 415.641 408.883 415.64 408.925C415.642 408.969 415.63 409.012 415.608 409.049C415.585 409.086 415.552 409.116 415.512 409.134C414.658 409.519 413.773 409.833 412.867 410.073ZM410.977 408.693C410.844 408.72 410.72 408.78 410.617 408.867C410.58 408.895 410.552 408.932 410.535 408.975C410.519 409.019 410.515 409.065 410.524 409.111C410.532 409.232 410.57 409.35 410.635 409.453C410.699 409.557 410.789 409.642 410.895 409.702C411.51 410.027 412.937 409.772 414.781 408.995C413.539 408.681 412.253 408.58 410.977 408.693Z" fill="#4CAF4F"/>
<path d="M415.477 409.134H415.385C414.225 408.925 411.905 407.591 411.835 406.594C411.835 406.362 411.939 406.038 412.496 405.852C412.684 405.785 412.884 405.757 413.083 405.769C413.283 405.781 413.477 405.833 413.656 405.922C414.909 406.536 415.57 408.763 415.605 408.867C415.613 408.902 415.612 408.939 415.602 408.973C415.592 409.008 415.573 409.039 415.547 409.064C415.53 409.092 415.506 409.116 415.477 409.134ZM412.728 406.2H412.612C412.253 406.328 412.253 406.478 412.253 406.525C412.253 407.128 413.935 408.229 415.106 408.6C414.836 407.669 414.265 406.853 413.482 406.281C413.249 406.163 412.981 406.134 412.728 406.2Z" fill="#4CAF4F"/>
<path d="M398.785 167.403L386.686 172.969L385.282 176.448L389.748 179.451C389.748 179.451 398.1 178.547 400.478 173.178L398.785 167.403Z" fill="#E58A7B"/>
<path d="M399.295 174.627C399.025 172.304 398.257 170.065 397.045 168.064L398.959 166.626C400.399 168.932 401.317 171.524 401.65 174.221L399.295 174.627Z" fill="#263238"/>
<path d="M401.36 169.05C401.616 169.452 401.741 169.923 401.72 170.399C401.698 170.875 401.53 171.333 401.239 171.711C400.948 172.088 400.548 172.366 400.093 172.508C399.638 172.65 399.15 172.648 398.696 172.503C398.242 172.358 397.843 172.077 397.555 171.697C397.266 171.318 397.102 170.859 397.084 170.383C397.066 169.907 397.195 169.436 397.453 169.036C397.712 168.636 398.088 168.325 398.529 168.146C399.025 167.893 399.601 167.846 400.131 168.016C400.661 168.185 401.102 168.557 401.36 169.05Z" fill="#263238"/>
<path d="M378.508 177.468L380.12 179.092L390.978 174.453L386.686 172.969L378.508 177.468Z" fill="#E58A7B"/>
<path opacity="0.2" d="M425.128 389.41C425.198 389.41 426.776 393.839 426.776 393.839L410.721 400.588L408.192 395.88L425.128 389.41Z" fill="black"/>
<path opacity="0.2" d="M457.945 395.034C458.015 395.034 458.479 399.498 458.479 399.498H440.893L439.64 394.373L457.945 395.034Z" fill="black"/>
<path d="M455.231 121.103C458.421 131.388 445.951 145.453 445.951 145.453L428.725 138.426C430.766 132.482 433.121 126.649 435.777 120.952C441.067 109.554 452.006 110.725 455.231 121.103Z" fill="#4CAF4F"/>
<path opacity="0.2" d="M455.231 121.103C458.421 131.388 445.951 145.453 445.951 145.453L428.725 138.426C430.766 132.482 433.121 126.649 435.777 120.952C441.067 109.554 452.006 110.725 455.231 121.103Z" fill="black"/>
<path d="M284.061 18.0542H276.648V19.2485H284.061V18.0542Z" fill="#4CAF4F"/>
<path d="M380.014 65.3248L379.117 85.2256L380.31 85.2793L381.207 65.3786L380.014 65.3248Z" fill="#4CAF4F"/>
<path d="M377.708 23.4114H240.828L228.091 308.335H364.971L377.708 23.4114Z" fill="#4CAF4F"/>
<path opacity="0.56" d="M373.624 27.3306H236.744L224.007 312.254H360.887L373.624 27.3306Z" fill="#FAFAFA"/>
<path opacity="0.07" d="M369.541 31.2383H232.661L219.913 316.162H356.793L369.541 31.2383Z" fill="#4CAF4F"/>
<path d="M332.507 73.4539C332.208 79.7982 329.951 85.8942 326.046 90.905C323.156 94.6899 319.437 97.7626 315.174 99.8872C310.911 102.012 306.218 103.132 301.454 103.161C297.605 103.191 293.79 102.432 290.246 100.932C286.701 99.4319 283.501 97.2222 280.843 94.4391C278.184 91.656 276.124 88.3583 274.79 84.7493C273.455 81.1402 272.873 77.2961 273.081 73.4539C273.489 65.4809 276.928 57.9648 282.696 52.4428C288.464 46.9207 296.124 43.8098 304.111 43.7463C307.963 43.7104 311.781 44.4645 315.33 45.962C318.88 47.4595 322.084 49.6686 324.745 52.4528C327.406 55.2369 329.468 58.5371 330.803 62.1492C332.139 65.7614 332.718 69.6089 332.507 73.4539Z" fill="white"/>
<path d="M335.302 49.9616C335.226 51.6486 334.626 53.2699 333.585 54.5998C332.815 55.6051 331.825 56.4212 330.691 56.9859C329.558 57.5506 328.31 57.8489 327.043 57.8581C325.816 57.8656 324.605 57.5725 323.517 57.0045C322.429 56.4366 321.497 55.6109 320.802 54.5998C319.882 53.2335 319.426 51.6071 319.503 49.9616C319.615 47.8448 320.531 45.8504 322.063 44.3852C323.596 42.9201 325.63 42.0944 327.751 42.0767C328.774 42.0674 329.788 42.2676 330.73 42.6649C331.673 43.0622 332.524 43.6483 333.232 44.387C333.939 45.1257 334.488 46.0014 334.844 46.9602C335.2 47.9189 335.356 48.9404 335.302 49.9616Z" fill="#4CAF4F"/>
<path d="M311.445 71.9067C316.301 67.1606 316.558 59.5532 312.021 54.9151C307.483 50.2769 299.869 50.3645 295.014 55.1106C290.159 59.8566 289.901 67.464 294.438 72.1022C298.976 76.7403 306.59 76.6528 311.445 71.9067Z" fill="#4CAF4F"/>
<path d="M326.046 90.905C323.156 94.6899 319.437 97.7626 315.174 99.8872C310.911 102.012 306.218 103.132 301.454 103.161C296.835 103.201 292.278 102.103 288.183 99.9656C284.089 97.8282 280.583 94.7165 277.976 90.905C283.614 85.2928 292.534 81.6287 302.417 81.6287C312.3 81.6287 320.908 85.2928 326.046 90.905Z" fill="#4CAF4F"/>
<path opacity="0.1" d="M311.445 71.9067C316.301 67.1606 316.558 59.5532 312.021 54.9151C307.483 50.2769 299.869 50.3645 295.014 55.1106C290.159 59.8566 289.901 67.464 294.438 72.1022C298.976 76.7403 306.59 76.6528 311.445 71.9067Z" fill="white"/>
<path opacity="0.1" d="M326.046 90.905C323.156 94.6899 319.437 97.7626 315.174 99.8872C310.911 102.012 306.218 103.132 301.454 103.161C296.835 103.201 292.278 102.103 288.183 99.9656C284.089 97.8282 280.583 94.7165 277.976 90.905C283.614 85.2928 292.534 81.6287 302.417 81.6287C312.3 81.6287 320.908 85.2928 326.046 90.905Z" fill="white"/>
<path d="M151.275 182.559C150.173 184.971 149.013 187.626 148.004 190.2C146.995 192.774 145.963 195.43 145.069 198.073C143.246 203.284 141.857 208.636 140.917 214.075L140.661 215.78C140.637 216.072 140.665 216.367 140.743 216.649C141.016 217.61 141.448 218.519 142.019 219.34C143.508 221.462 145.236 223.408 147.169 225.137C149.207 227.032 151.344 228.816 153.572 230.483C155.799 232.199 158.143 233.869 160.451 235.446L158.282 239.516C152.77 237.115 147.538 234.117 142.68 230.576C140.088 228.686 137.749 226.473 135.72 223.989C134.517 222.511 133.579 220.836 132.947 219.038C132.58 217.915 132.392 216.741 132.391 215.559C132.391 215.281 132.391 214.875 132.391 214.678V214.11L132.507 212.95C133.172 206.909 134.442 200.95 136.3 195.163C137.205 192.311 138.167 189.47 139.269 186.698C140.371 183.927 141.508 181.214 142.912 178.396L151.275 182.559Z" fill="#E58A7B"/>
<path d="M158.816 234.727L167.017 230.576L164.894 239.574C164.894 239.574 159.268 241.151 156.658 238.414L158.816 234.727Z" fill="#E58A7B"/>
<path d="M174.522 232.048L172.341 239.493L164.894 239.574L167.017 230.576L174.522 232.048Z" fill="#E58A7B"/>
<path d="M163.444 147.656C164.499 153.048 165.555 162.939 161.773 166.545C161.773 166.545 163.258 172.019 173.292 172.019C184.324 172.019 178.559 166.545 178.559 166.545C172.538 165.108 172.689 160.643 173.745 156.446L163.444 147.656Z" fill="#E58A7B"/>
<path d="M160.509 135.365C161.066 144.375 161.112 148.202 165.66 152.828C172.515 159.785 183.466 157.142 185.612 148.19C187.549 140.073 186.319 126.715 177.492 123.132C175.554 122.334 173.445 122.044 171.363 122.288C169.282 122.532 167.297 123.303 165.597 124.528C163.897 125.752 162.537 127.39 161.647 129.287C160.757 131.183 160.365 133.275 160.509 135.365Z" fill="#E58A7B"/>
<path d="M161.402 125.231C156.878 126.877 150.846 125.648 153.213 139.598C155.718 154.37 151.867 159.229 151.867 159.229C151.867 159.229 169.024 162.881 186.54 159.008C186.54 159.008 181.192 149.663 182.688 142.775C184.602 134.078 183.094 130.866 183.094 130.866C183.094 130.866 167.759 122.912 161.402 125.231Z" fill="#263238"/>
<path d="M180.542 140.061C180.547 141.774 181.038 143.451 181.958 144.897C183.187 146.775 184.637 146.056 184.997 144.062C185.322 142.311 185.078 139.215 183.512 138.009C181.946 136.803 180.566 137.986 180.542 140.061Z" fill="#E58A7B"/>
<path d="M157.47 126.75C156.171 123.097 162.365 117.474 175.473 119.793C188.581 122.112 189.15 133.023 189.15 133.023L186.505 129.869L186.621 133.185L173.153 135.771L157.47 126.75Z" fill="#263238"/>
<path d="M158.584 167.16C158.506 166.631 158.639 166.092 158.953 165.659C159.267 165.225 159.738 164.932 160.266 164.841C164.349 164.168 173.629 162.8 178.292 163.449C181.772 163.936 182.677 165.954 182.828 167.612C182.851 167.903 182.812 168.195 182.714 168.469C182.615 168.743 182.459 168.993 182.255 169.201C182.052 169.41 181.807 169.573 181.535 169.679C181.264 169.785 180.973 169.831 180.682 169.815L160.521 168.911C160.045 168.887 159.593 168.7 159.24 168.381C158.887 168.061 158.655 167.63 158.584 167.16Z" fill="#4CAF4F"/>
<path opacity="0.6" d="M158.584 167.16C158.506 166.631 158.639 166.092 158.953 165.659C159.267 165.225 159.738 164.932 160.266 164.841C164.349 164.168 173.629 162.8 178.292 163.449C181.772 163.936 182.677 165.954 182.828 167.612C182.851 167.903 182.812 168.195 182.714 168.469C182.615 168.743 182.459 168.993 182.255 169.201C182.052 169.41 181.807 169.573 181.535 169.679C181.264 169.785 180.973 169.831 180.682 169.815L160.521 168.911C160.045 168.887 159.593 168.7 159.24 168.381C158.887 168.061 158.655 167.63 158.584 167.16Z" fill="black"/>
<path d="M170.242 369.733L177.724 374.927L190.24 357.963L182.758 352.78L170.242 369.733Z" fill="#E58A7B"/>
<path d="M152.795 369.396L160.695 373.895L171.773 355.957L163.873 351.458L152.795 369.396Z" fill="#E58A7B"/>
<path d="M190.228 357.963L183.779 366.706L176.297 361.523L182.746 352.78L190.228 357.963Z" fill="#CF6F64"/>
<path d="M163.861 351.458L171.773 355.969L166.066 365.21L158.154 360.7L163.861 351.458Z" fill="#CF6F64"/>
<path d="M176.552 223.792C176.552 223.792 205.761 260.585 200.274 295.777C195.854 324.197 170.218 362.682 170.218 362.682L158.166 356.699C166.661 339.683 173.911 322.074 179.858 304.01C181.692 298.401 182.227 292.45 181.423 286.604C180.619 280.759 178.498 275.172 175.218 270.267C160.416 248.664 136.706 261.524 152.656 223.792H176.552Z" fill="#4CAF4F"/>
<path opacity="0.6" d="M176.552 223.792C176.552 223.792 205.761 260.585 200.274 295.777C195.854 324.197 170.218 362.682 170.218 362.682L158.166 356.699C166.661 339.683 173.911 322.074 179.858 304.01C181.692 298.401 182.227 292.45 181.423 286.604C180.619 280.759 178.498 275.172 175.218 270.267C160.416 248.664 136.706 261.524 152.656 223.792H176.552Z" fill="black"/>
<path opacity="0.4" d="M190.878 247.424L186.632 243.203C186.632 243.539 194.857 294.292 197.165 308.555C198.527 304.388 199.57 300.124 200.286 295.8C203 278.534 197.328 260.898 190.878 247.424Z" fill="black"/>
<path d="M189.59 223.792C189.59 223.792 224.762 270.035 225.759 297.76C226.583 320.951 187.479 365.883 187.479 365.883L176.111 358.531C176.111 358.531 198.998 326.621 204.763 300.554C202.536 274.719 155.44 223.792 155.44 223.792H189.59Z" fill="#4CAF4F"/>
<path opacity="0.6" d="M189.59 223.792C189.59 223.792 224.762 270.035 225.759 297.76C226.583 320.951 187.479 365.883 187.479 365.883L176.111 358.531C176.111 358.531 198.998 326.621 204.763 300.554C202.536 274.719 155.44 223.792 155.44 223.792H189.59Z" fill="black"/>
<path d="M146.079 168.609C142.32 169.502 138.713 183.162 138.713 183.162L153.41 192.972C153.41 192.972 158.305 182.165 156.589 177.434C154.814 172.506 150.8 167.485 146.079 168.609Z" fill="#4CAF4F"/>
<path opacity="0.2" d="M148.956 177.41L147.935 189.319L153.399 192.983C154.907 189.588 156.024 186.032 156.728 182.385L148.956 177.41Z" fill="black"/>
<path d="M193.94 168.876C193.94 168.876 198.279 170.395 189.59 223.781H152.633C153.259 208.707 153.271 199.43 146.079 168.609C151.253 167.543 156.499 166.854 161.773 166.546C167.361 166.145 172.971 166.145 178.559 166.546C185.774 167.206 193.94 168.876 193.94 168.876Z" fill="#4CAF4F"/>
<path d="M197.699 177.41C198.534 179.729 199.416 182.222 200.344 184.623C201.272 187.023 202.153 189.493 203.093 191.928L205.935 199.21L206.654 201.03L207.025 201.935L207.199 202.387C207.199 202.468 207.199 202.468 207.199 202.457C206.987 202.158 206.71 201.912 206.387 201.738C205.929 201.468 205.411 201.313 204.879 201.285C204.438 201.272 203.998 201.355 203.592 201.529C203.058 201.772 203.058 201.877 203.07 201.865C203.166 201.788 203.252 201.698 203.325 201.598C203.967 200.756 204.523 199.851 204.984 198.897C205.529 197.83 206.051 196.694 206.573 195.546C207.594 193.227 208.533 190.826 209.473 188.403C210.413 185.979 211.306 183.533 212.176 181.063L214.821 173.665L219.287 174.825C218.405 180.112 217.268 185.26 215.899 190.502C215.238 193.111 214.461 195.696 213.579 198.305C213.139 199.616 212.651 200.914 212.095 202.248C211.514 203.695 210.8 205.085 209.96 206.399C209.652 206.841 209.31 207.26 208.939 207.651C208.347 208.291 207.628 208.8 206.828 209.147C206.118 209.452 205.35 209.594 204.578 209.565C203.713 209.532 202.871 209.281 202.13 208.834C201.256 208.289 200.531 207.536 200.019 206.643C199.845 206.341 199.694 206.04 199.59 205.819L199.369 205.379L198.929 204.474L198.047 202.677C196.887 200.265 195.727 197.83 194.718 195.383C193.709 192.937 192.641 190.455 191.644 187.962C190.646 185.469 189.753 182.976 188.906 180.286L197.699 177.41Z" fill="#E58A7B"/>
<path d="M193.941 168.876C198.383 169.931 203.383 183.057 203.383 183.057L190.171 194.293C190.171 194.293 181.621 179.985 183.35 175.265C185.148 170.349 188.141 167.496 193.941 168.876Z" fill="#4CAF4F"/>
<path d="M216.92 169.514L221.56 165.641L224.785 170.662L222.407 174.848C222.407 174.848 218.625 178.327 215.284 176.552C214.754 175.361 214.627 174.029 214.922 172.759C215.217 171.489 215.919 170.35 216.92 169.514Z" fill="#E58A7B"/>
<path d="M229.935 165.653L229.587 166.917L222.245 168.146L221.525 165.641L229.935 165.653Z" fill="#E58A7B"/>
<path d="M188.384 366.474L175.137 357.917L177.515 353.789L192.398 362.938L188.384 366.474Z" fill="#4CAF4F"/>
<path d="M165.88 373.292C164.718 373.15 163.601 372.755 162.609 372.133C162.568 372.119 162.532 372.092 162.507 372.057C162.482 372.021 162.469 371.979 162.469 371.936C162.469 371.892 162.482 371.85 162.507 371.815C162.532 371.779 162.568 371.753 162.609 371.739C162.969 371.623 166.089 370.66 166.994 371.402C167.095 371.487 167.173 371.597 167.218 371.721C167.262 371.846 167.273 371.98 167.249 372.11C167.233 372.318 167.164 372.52 167.048 372.694C166.932 372.869 166.774 373.011 166.588 373.107C166.37 373.225 166.128 373.289 165.88 373.292ZM163.27 372.017C164.72 372.759 165.88 373.026 166.437 372.747C166.558 372.68 166.66 372.583 166.733 372.466C166.806 372.348 166.848 372.213 166.855 372.075C166.855 371.889 166.855 371.808 166.75 371.762C166.263 371.368 164.523 371.669 163.247 372.017H163.27Z" fill="#263238"/>
<path d="M162.69 372.214C162.629 372.213 162.571 372.188 162.528 372.144C162.511 372.112 162.501 372.076 162.501 372.04C162.501 372.004 162.511 371.968 162.528 371.936C162.528 371.831 163.282 369.315 164.465 368.747C164.616 368.678 164.78 368.642 164.946 368.642C165.112 368.642 165.277 368.678 165.428 368.747C165.591 368.798 165.732 368.903 165.828 369.044C165.925 369.184 165.972 369.353 165.961 369.524C165.88 370.567 163.757 372.005 162.783 372.249L162.69 372.214ZM164.941 369.048C164.828 369.052 164.717 369.08 164.616 369.13C163.897 369.477 163.305 370.834 163.015 371.657C164.036 371.228 165.439 370.092 165.486 369.454C165.486 369.35 165.486 369.222 165.219 369.106C165.132 369.06 165.038 369.028 164.941 369.014V369.048Z" fill="#263238"/>
<path d="M182.433 378.302C181.123 378.302 179.301 376.62 178.304 375.588C178.278 375.553 178.265 375.51 178.265 375.467C178.265 375.423 178.278 375.38 178.304 375.345C178.327 375.307 178.359 375.277 178.398 375.257C178.437 375.236 178.48 375.227 178.524 375.229C178.988 375.229 183.013 375.832 183.582 376.968C183.642 377.07 183.674 377.186 183.674 377.304C183.674 377.423 183.642 377.539 183.582 377.641C183.497 377.818 183.368 377.97 183.208 378.084C183.047 378.197 182.861 378.268 182.665 378.29L182.433 378.302ZM179.069 375.751C180.531 377.165 181.819 377.954 182.549 377.861C182.677 377.844 182.799 377.796 182.905 377.722C183.01 377.647 183.095 377.547 183.153 377.432C183.179 377.392 183.192 377.346 183.192 377.299C183.192 377.251 183.179 377.205 183.153 377.165C182.851 376.539 180.705 376.006 179.069 375.751Z" fill="#263238"/>
<path d="M179.197 375.693C178.937 375.7 178.676 375.681 178.42 375.635C178.384 375.629 178.35 375.615 178.322 375.592C178.293 375.57 178.271 375.541 178.257 375.507C178.24 375.473 178.231 375.435 178.231 375.397C178.231 375.359 178.24 375.321 178.257 375.287C178.327 375.206 179.893 373.316 181.378 373.188C181.798 373.155 182.214 373.288 182.538 373.559C182.99 373.953 182.967 374.301 182.851 374.521C182.561 375.31 180.554 375.693 179.197 375.693ZM178.895 375.264C180.195 375.333 182.271 374.904 182.538 374.336C182.538 374.336 182.631 374.15 182.329 373.895C182.209 373.791 182.069 373.712 181.917 373.665C181.765 373.617 181.605 373.6 181.447 373.617C180.447 373.896 179.556 374.475 178.895 375.275V375.264Z" fill="#263238"/>
<path d="M163.003 370.962L153.166 368.179C152.997 368.127 152.814 368.141 152.654 368.215C152.493 368.29 152.366 368.422 152.296 368.585L148.979 376.041C148.901 376.231 148.864 376.437 148.871 376.643C148.879 376.849 148.929 377.051 149.02 377.236C149.111 377.421 149.24 377.585 149.399 377.717C149.558 377.849 149.743 377.945 149.942 378C153.422 378.905 155.092 379.16 159.419 380.4C162.087 381.143 165.892 382.522 169.569 383.566C173.246 384.61 174.476 381.027 173.049 380.261C166.599 376.852 166.089 374.464 164.326 371.913C164.01 371.451 163.542 371.114 163.003 370.962Z" fill="#4CAF4F"/>
<path d="M178.57 374.232L170.172 368.434C170.03 368.33 169.854 368.282 169.679 368.3C169.503 368.317 169.341 368.397 169.221 368.527L163.653 374.51C163.517 374.665 163.416 374.846 163.356 375.043C163.296 375.24 163.279 375.447 163.305 375.651C163.331 375.855 163.401 376.051 163.509 376.226C163.617 376.401 163.761 376.552 163.931 376.667C166.889 378.65 168.42 379.45 172.121 382.012C174.441 383.589 178.93 387.091 182.062 389.271C185.194 391.451 187.526 388.459 186.412 387.277C181.424 381.954 180.334 378.615 179.51 375.588C179.367 375.039 179.034 374.559 178.57 374.232Z" fill="#4CAF4F"/>
<path d="M171.761 363.448L156.623 355.922L158.189 351.818L174.359 359.749L171.761 363.448Z" fill="#4CAF4F"/>
<path d="M152.076 221.612L150.8 224.952C150.672 225.207 150.974 225.474 151.403 225.474H189.776C190.112 225.474 190.391 225.311 190.414 225.103L190.739 221.786C190.739 221.566 190.472 221.369 190.112 221.369H152.679C152.567 221.358 152.453 221.375 152.348 221.417C152.243 221.46 152.15 221.526 152.076 221.612Z" fill="#4CAF4F"/>
<path opacity="0.4" d="M152.076 221.612L150.8 224.952C150.672 225.207 150.974 225.474 151.403 225.474H189.776C190.112 225.474 190.391 225.311 190.414 225.103L190.739 221.786C190.739 221.566 190.472 221.369 190.112 221.369H152.679C152.567 221.358 152.453 221.375 152.348 221.417C152.243 221.46 152.15 221.526 152.076 221.612Z" fill="white"/>
<path d="M158.12 225.798H157.11C156.913 225.798 156.762 225.694 156.774 225.566L157.25 221.265C157.25 221.149 157.435 221.044 157.632 221.044H158.642C158.839 221.044 158.99 221.149 158.978 221.265L158.502 225.566C158.491 225.694 158.317 225.798 158.12 225.798Z" fill="#4CAF4F"/>
<path d="M181.784 225.798H180.786C180.589 225.798 180.438 225.694 180.45 225.566L180.914 221.265C180.914 221.149 181.111 221.044 181.308 221.044H182.306C182.503 221.044 182.665 221.149 182.642 221.265L182.178 225.566C182.12 225.694 181.993 225.798 181.784 225.798Z" fill="#4CAF4F"/>
<g style="mix-blend-mode:multiply">
<path d="M157.238 422.167C174.401 422.167 188.314 421.16 188.314 419.918C188.314 418.675 174.401 417.668 157.238 417.668C140.075 417.668 126.162 418.675 126.162 419.918C126.162 421.16 140.075 422.167 157.238 422.167Z" fill="#F5F5F5"/>
</g>
<path d="M176.169 416.74C170.671 415.14 164.569 413.088 160.881 410.943C160.776 410.873 160.66 410.838 160.556 410.78V385.897H171.68C172.525 385.847 173.318 385.476 173.898 384.861C174.478 384.245 174.802 383.432 174.802 382.586C174.802 381.74 174.478 380.927 173.898 380.311C173.318 379.696 172.525 379.326 171.68 379.276H160.614V265.849H153.932V379.276H142.877C142.426 379.249 141.974 379.315 141.549 379.469C141.124 379.623 140.735 379.863 140.406 380.173C140.077 380.483 139.814 380.857 139.635 381.272C139.456 381.687 139.364 382.134 139.364 382.586C139.364 383.038 139.456 383.485 139.635 383.9C139.814 384.315 140.077 384.689 140.406 384.999C140.735 385.309 141.124 385.549 141.549 385.703C141.974 385.857 142.426 385.923 142.877 385.897H153.932V410.746C153.828 410.746 153.723 410.838 153.619 410.908C149.872 413.088 143.817 415.14 138.319 416.706C137.947 416.818 137.628 417.059 137.419 417.386C137.211 417.713 137.126 418.104 137.181 418.488C137.235 418.872 137.426 419.224 137.718 419.48C138.009 419.736 138.383 419.879 138.771 419.883H175.717C176.088 419.858 176.439 419.706 176.711 419.453C176.983 419.201 177.161 418.862 177.214 418.494C177.267 418.127 177.192 417.752 177.002 417.433C176.812 417.114 176.518 416.869 176.169 416.74Z" fill="#E0E0E0"/>
<path d="M177.875 254.3H136.625C133.306 254.3 130.616 256.989 130.616 260.306V272.563C130.616 275.88 133.306 278.569 136.625 278.569H177.875C181.193 278.569 183.883 275.88 183.883 272.563V260.306C183.883 256.989 181.193 254.3 177.875 254.3Z" fill="#4CAF4F"/>
<path d="M136.242 278.581V280.691C136.242 282.431 138.133 283.845 140.453 283.845H174.093C176.413 283.845 178.304 282.431 178.304 280.691V278.581H136.242Z" fill="#4CAF4F"/>
<path opacity="0.3" d="M136.242 278.581V280.691C136.242 282.431 138.133 283.845 140.453 283.845H174.093C176.413 283.845 178.304 282.431 178.304 280.691V278.581H136.242Z" fill="white"/>
<path d="M274.258 117.334C274.315 116.272 275.192 115.44 276.256 115.44H325.971C327.117 115.44 328.028 116.401 327.968 117.545L325.781 158.858C325.725 159.92 324.848 160.753 323.784 160.753H274.069C272.923 160.753 272.011 159.791 272.072 158.647L274.258 117.334Z" fill="#ECFFED"/>
<path d="M267.827 243.561C267.884 242.5 268.762 241.668 269.824 241.668H320.572C321.719 241.668 322.631 242.631 322.569 243.776L320.341 285.089C320.283 286.15 319.406 286.981 318.343 286.981H267.596C266.449 286.981 265.537 286.019 265.599 284.874L267.827 243.561Z" fill="#ECFFED"/>
<path d="M271.065 179.907C271.122 178.846 271.999 178.015 273.062 178.015H323.81C324.957 178.015 325.869 178.977 325.807 180.122L323.578 221.435C323.521 222.496 322.644 223.327 321.581 223.327H270.833C269.687 223.327 268.775 222.365 268.836 221.22L271.065 179.907Z" fill="#ECFFED"/>
<path d="M402.272 129.718L411.01 123.993L415.235 130.263C415.235 130.263 414.536 130.718 413.983 130.687C413.431 130.656 412.668 130.194 412.668 130.194L410.358 127.082L405.319 130.362L408.573 135.523C409.177 136.79 409.017 137.417 407.964 138.406L402.272 129.718Z" fill="#A2F9AB"/>
<circle cx="411.33" cy="133.267" r="1.59941" transform="rotate(11.9334 411.33 133.267)" fill="#A2F9AB"/>
<path d="M427.721 135.096L422.046 126.326L415.646 130.35C415.646 130.35 416.101 131.049 416.619 131.244C417.137 131.44 418.021 131.326 418.021 131.326L421.394 129.414L424.674 134.452L419.61 137.856C418.545 138.77 418.437 139.408 419 140.739L427.721 135.096Z" fill="#A2F9AB"/>
<circle cx="1.59941" cy="1.59941" r="1.59941" transform="matrix(-0.978389 -0.206775 -0.206775 0.978389 419.897 133.443)" fill="#A2F9AB"/>
</svg>
