<svg width="160" height="36" viewBox="0 0 160 36" fill="none" xmlns="http://www.w3.org/2000/svg">
<path d="M83.168 26.24C82.176 26.24 81.248 26.168 80.384 26.024C79.536 25.88 78.8 25.672 78.176 25.4V22.544C78.88 22.832 79.64 23.064 80.456 23.24C81.272 23.416 82.072 23.504 82.856 23.504C83.976 23.504 84.8 23.4 85.328 23.192C85.856 22.984 86.12 22.512 86.12 21.776C86.12 21.312 86.008 20.944 85.784 20.672C85.56 20.4 85.168 20.16 84.608 19.952C84.064 19.728 83.288 19.48 82.28 19.208C80.664 18.76 79.528 18.2 78.872 17.528C78.216 16.856 77.888 15.928 77.888 14.744C77.888 13.32 78.408 12.224 79.448 11.456C80.488 10.688 82 10.304 83.984 10.304C84.912 10.304 85.776 10.368 86.576 10.496C87.376 10.624 88.024 10.776 88.52 10.952V13.808C87.208 13.312 85.84 13.064 84.416 13.064C83.408 13.064 82.616 13.176 82.04 13.4C81.464 13.608 81.176 14.056 81.176 14.744C81.176 15.144 81.28 15.464 81.488 15.704C81.696 15.944 82.048 16.16 82.544 16.352C83.056 16.544 83.768 16.76 84.68 17C85.944 17.336 86.92 17.736 87.608 18.2C88.296 18.664 88.768 19.192 89.024 19.784C89.296 20.376 89.432 21.04 89.432 21.776C89.432 23.12 88.92 24.2 87.896 25.016C86.872 25.832 85.296 26.24 83.168 26.24ZM95.7633 26.24C94.4033 26.24 93.3393 25.864 92.5713 25.112C91.8193 24.344 91.4433 23.224 91.4433 21.752V14.624H94.6833V21.68C94.6833 22.448 94.8673 23.008 95.2353 23.36C95.6033 23.696 96.1553 23.864 96.8913 23.864C97.4513 23.864 97.9633 23.752 98.4273 23.528C98.9073 23.304 99.3153 23.024 99.6513 22.688V14.624H102.891V26H99.8913L99.7713 24.92C99.2913 25.304 98.7233 25.624 98.0673 25.88C97.4273 26.12 96.6593 26.24 95.7633 26.24ZM105.649 26V14.624H108.649L108.769 15.704C109.233 15.352 109.817 15.048 110.521 14.792C111.241 14.52 111.993 14.384 112.777 14.384C114.281 14.384 115.377 14.736 116.065 15.44C116.753 16.144 117.097 17.232 117.097 18.704V26H113.857V18.872C113.857 18.104 113.697 17.56 113.377 17.24C113.073 16.92 112.497 16.76 111.649 16.76C111.153 16.76 110.649 16.872 110.137 17.096C109.641 17.32 109.225 17.6 108.889 17.936V26H105.649ZM119.735 26V9.824H122.975V18.728L127.223 14.624H130.919L126.335 19.28L131.183 26H127.751L124.295 20.984L122.975 22.256V26H119.735ZM136.873 26.24C135.513 26.24 134.449 25.864 133.681 25.112C132.929 24.344 132.553 23.224 132.553 21.752V14.624H135.793V21.68C135.793 22.448 135.977 23.008 136.345 23.36C136.713 23.696 137.265 23.864 138.001 23.864C138.561 23.864 139.073 23.752 139.537 23.528C140.017 23.304 140.425 23.024 140.761 22.688V14.624H144.001V26H141.001L140.881 24.92C140.401 25.304 139.833 25.624 139.177 25.88C138.537 26.12 137.769 26.24 136.873 26.24ZM153.455 26.24C152.655 26.24 151.959 26.136 151.367 25.928C150.775 25.704 150.231 25.376 149.735 24.944L149.567 26H146.759V9.824H149.999V15.248C150.463 14.96 150.983 14.744 151.559 14.6C152.135 14.456 152.735 14.384 153.359 14.384C154.991 14.384 156.279 14.848 157.223 15.776C158.183 16.688 158.663 18.168 158.663 20.216C158.663 22.264 158.191 23.784 157.247 24.776C156.319 25.752 155.055 26.24 153.455 26.24ZM152.543 23.864C153.583 23.864 154.311 23.56 154.727 22.952C155.159 22.344 155.375 21.432 155.375 20.216C155.375 18.952 155.143 18.064 154.679 17.552C154.231 17.024 153.511 16.76 152.519 16.76C152.023 16.76 151.551 16.832 151.103 16.976C150.671 17.12 150.303 17.328 149.999 17.6V22.832C150.319 23.168 150.695 23.424 151.127 23.6C151.575 23.776 152.047 23.864 152.543 23.864Z" fill="#63D96F"/>
<path d="M0 18.3722L17.2735 1L30.0065 13.3382C30.0065 13.3382 28.6246 14.7201 27.3414 14.9175C26.0583 15.1149 24.0841 14.4239 24.0841 14.4239L17.2735 8.40291L7.30421 18.3722L17.2735 28.6375C19.2731 31.2502 19.2103 32.7657 17.2735 35.5469L0 18.3722Z" fill="#63D96F"/>
<circle cx="22.5057" cy="22.1229" r="3.75081" fill="#63D96F"/>
<path d="M61.001 18.3722L43.7275 1L30.9945 13.3382C30.9945 13.3382 32.3764 14.7201 33.6596 14.9175C34.9427 15.1149 36.9168 14.4239 36.9168 14.4239L43.7275 8.40291L53.6968 18.3722L43.7275 28.6375C41.7279 31.2502 41.7907 32.7657 43.7275 35.5469L61.001 18.3722Z" fill="#63D96F"/>
<circle cx="3.75081" cy="3.75081" r="3.75081" transform="matrix(-1 0 0 1 42.2461 18.3721)" fill="#63D96F"/>
</svg>
