<svg width="269" height="269" viewBox="0 0 269 269" fill="none" xmlns="http://www.w3.org/2000/svg">
<path d="M218.562 33.625H50.4375C45.9785 33.625 41.7022 35.3963 38.5493 38.5493C35.3963 41.7022 33.625 45.9785 33.625 50.4375V218.562C33.625 223.021 35.3963 227.298 38.5493 230.451C41.7022 233.604 45.9785 235.375 50.4375 235.375H218.562C223.021 235.375 227.298 233.604 230.451 230.451C233.604 227.298 235.375 223.021 235.375 218.562V50.4375C235.375 45.9785 233.604 41.7022 230.451 38.5493C227.298 35.3963 223.021 33.625 218.562 33.625ZM218.562 218.562H50.4375V50.4375H218.562V218.562ZM184.938 134.5C184.938 136.729 184.052 138.868 182.475 140.444C180.899 142.021 178.761 142.906 176.531 142.906H142.906V176.531C142.906 178.761 142.021 180.899 140.444 182.475C138.868 184.052 136.729 184.938 134.5 184.938C132.271 184.938 130.132 184.052 128.556 182.475C126.979 180.899 126.094 178.761 126.094 176.531V142.906H92.4688C90.2393 142.906 88.1011 142.021 86.5246 140.444C84.9482 138.868 84.0625 136.729 84.0625 134.5C84.0625 132.271 84.9482 130.132 86.5246 128.556C88.1011 126.979 90.2393 126.094 92.4688 126.094H126.094V92.4688C126.094 90.2393 126.979 88.1011 128.556 86.5246C130.132 84.9482 132.271 84.0625 134.5 84.0625C136.729 84.0625 138.868 84.9482 140.444 86.5246C142.021 88.1011 142.906 90.2393 142.906 92.4688V126.094H176.531C178.761 126.094 180.899 126.979 182.475 128.556C184.052 130.132 184.938 132.271 184.938 134.5Z" fill="#343330"/>
</svg>
