<svg width="145" height="184" viewBox="0 0 145 184" fill="none" xmlns="http://www.w3.org/2000/svg">
<rect width="145" height="184" rx="30" fill="url(#paint0_linear_918_2258)"/>
<mask id="mask0_918_2258" style="mask-type:alpha" maskUnits="userSpaceOnUse" x="0" y="0" width="145" height="184">
<rect width="145" height="184" rx="30" fill="#ED713C"/>
</mask>
<g mask="url(#mask0_918_2258)">
<circle opacity="0.1" cx="-28" cy="193" r="95" fill="black" stroke="black" stroke-width="36"/>
<path opacity="0.1" d="M278 -26.5C278 42.2781 232.434 92 183 92C133.566 92 88 42.2781 88 -26.5C88 -95.2781 133.566 -145 183 -145C232.434 -145 278 -95.2781 278 -26.5Z" fill="black" stroke="black" stroke-width="36"/>
</g>
<path d="M99.0565 153L101.059 150.349L99.1335 147.786H100.74L101.862 149.304L102.984 147.786H104.59L102.676 150.349L104.667 153H103.05L101.862 151.405L100.674 153H99.0565ZM104.997 153L106.999 150.349L105.074 147.786H106.68L107.802 149.304L108.924 147.786H110.53L108.616 150.349L110.607 153H108.99L107.802 151.405L106.614 153H104.997ZM111.338 153L113.912 145.718H115.43L112.856 153H111.338ZM116.126 153L118.128 150.349L116.203 147.786H117.809L118.931 149.304L120.053 147.786H121.659L119.745 150.349L121.736 153H120.119L118.931 151.405L117.743 153H116.126ZM122.066 153L124.068 150.349L122.143 147.786H123.749L124.871 149.304L125.993 147.786H127.599L125.685 150.349L127.676 153H126.059L124.871 151.405L123.683 153H122.066Z" fill="white"/>
<path d="M67.338 115L69.704 111.867L67.429 108.838H69.327L70.653 110.632L71.979 108.838H73.877L71.615 111.867L73.968 115H72.057L70.653 113.115L69.249 115H67.338ZM74.3585 115L76.7245 111.867L74.4495 108.838H76.3475L77.6735 110.632L78.9995 108.838H80.8975L78.6355 111.867L80.9885 115H79.0775L77.6735 113.115L76.2695 115H74.3585ZM81.379 115L83.745 111.867L81.47 108.838H83.368L84.694 110.632L86.02 108.838H87.918L85.656 111.867L88.009 115H86.098L84.694 113.115L83.29 115H81.379ZM88.3995 115L90.7655 111.867L88.4905 108.838H90.3885L91.7145 110.632L93.0405 108.838H94.9385L92.6765 111.867L95.0295 115H93.1185L91.7145 113.115L90.3105 115H88.3995Z" fill="white"/>
<circle cx="49" cy="112" r="2" fill="white"/>
<circle cx="29" cy="112" r="2" fill="white"/>
<circle cx="39" cy="112" r="2" fill="white"/>
<circle cx="19" cy="112" r="2" fill="white"/>
<rect x="17" y="137" width="33" height="22" rx="5" fill="url(#paint1_radial_918_2258)"/>
<path fill-rule="evenodd" clip-rule="evenodd" d="M33.4999 137.219L29.8333 142.968C29.8333 142.968 31.2999 147.999 29.8333 152.311L33.4999 158.779L37.1666 152.311C37.1666 152.311 35.6999 148.718 37.1666 142.968C37.1666 142.968 33.4999 137.219 33.4999 137.219Z" stroke="#C7C7B6" stroke-width="1.3" stroke-linejoin="bevel"/>
<path d="M17 143.232H29.8333" stroke="#C7C7B6" stroke-width="1.3" stroke-linejoin="bevel"/>
<path d="M36.7996 143.232H49.9996" stroke="#C7C7B6" stroke-width="1.3" stroke-linejoin="bevel"/>
<path d="M17 152.032H29.8333" stroke="#C7C7B6" stroke-width="1.3" stroke-linejoin="bevel"/>
<path d="M36.7996 152.032H49.9996" stroke="#C7C7B6" stroke-width="1.3" stroke-linejoin="bevel"/>
<path opacity="0.5" d="M20.768 93.12C19.816 93.12 19.064 92.896 18.512 92.448C17.96 91.992 17.684 91.308 17.684 90.396V86.52H19.304V90.42C19.304 91.38 19.792 91.86 20.768 91.86C21.744 91.86 22.232 91.38 22.232 90.42V86.52H23.852V90.396C23.852 91.308 23.576 91.992 23.024 92.448C22.472 92.896 21.72 93.12 20.768 93.12ZM20.7657 85.632V83.724H22.0857V84.528H25.0738L25.0138 85.632H20.7657ZM27.7498 93.12C27.2298 93.12 26.7658 93.008 26.3577 92.784C25.9498 92.56 25.6258 92.212 25.3857 91.74C25.1538 91.26 25.0378 90.644 25.0378 89.892C25.0378 88.748 25.2378 87.88 25.6378 87.288C26.0458 86.696 26.5938 86.4 27.2818 86.4C27.6258 86.4 27.8938 86.456 28.0858 86.568C28.2778 86.68 28.4378 86.828 28.5658 87.012C28.7258 86.828 28.9458 86.68 29.2258 86.568C29.5138 86.456 29.8058 86.4 30.1018 86.4C30.6698 86.4 31.0858 86.572 31.3498 86.916C31.6218 87.26 31.7578 87.712 31.7578 88.272V93H30.1378V88.524C30.1378 88.244 30.0978 88.032 30.0178 87.888C29.9458 87.736 29.8018 87.66 29.5858 87.66C29.4418 87.66 29.3098 87.708 29.1898 87.804C29.0778 87.892 28.9978 88.028 28.9498 88.212H28.1698C28.0898 88.028 28.0058 87.892 27.9178 87.804C27.8298 87.708 27.7018 87.66 27.5338 87.66C27.1578 87.66 26.9018 87.868 26.7658 88.284C26.6378 88.692 26.5738 89.228 26.5738 89.892C26.5738 90.62 26.7018 91.132 26.9578 91.428C27.2138 91.716 27.5738 91.86 28.0378 91.86C28.1898 91.86 28.3378 91.852 28.4818 91.836C28.6338 91.82 28.7618 91.796 28.8658 91.764V92.952C28.7218 93.008 28.5618 93.048 28.3858 93.072C28.2098 93.104 27.9978 93.12 27.7498 93.12ZM35.3719 93.12C34.9239 93.12 34.4919 93.088 34.0759 93.024C33.6679 92.96 33.3359 92.876 33.0799 92.772V91.464C33.3839 91.592 33.7159 91.692 34.0759 91.764C34.4439 91.828 34.7759 91.86 35.0719 91.86C35.5919 91.86 35.9679 91.82 36.1999 91.74C36.4399 91.66 36.5599 91.496 36.5599 91.248C36.5599 91.056 36.4959 90.908 36.3679 90.804C36.2479 90.7 36.0599 90.608 35.8039 90.528C35.5479 90.44 35.2199 90.328 34.8199 90.192C34.2359 89.984 33.7759 89.752 33.4399 89.496C33.1119 89.232 32.9479 88.844 32.9479 88.332C32.9479 87.756 33.1719 87.292 33.6199 86.94C34.0679 86.58 34.7439 86.4 35.6479 86.4C36.0239 86.4 36.3999 86.428 36.7759 86.484C37.1519 86.54 37.4599 86.608 37.6999 86.688V87.984C37.4359 87.872 37.1319 87.792 36.7879 87.744C36.4519 87.688 36.1479 87.66 35.8759 87.66C35.4999 87.66 35.1719 87.704 34.8919 87.792C34.6199 87.872 34.4839 88.04 34.4839 88.296C34.4839 88.456 34.5519 88.584 34.6879 88.68C34.8319 88.776 35.0319 88.864 35.2879 88.944C35.5519 89.024 35.8639 89.128 36.2239 89.256C36.6719 89.408 37.0319 89.568 37.3039 89.736C37.5839 89.904 37.7839 90.108 37.9039 90.348C38.0319 90.588 38.0959 90.888 38.0959 91.248C38.0959 91.88 37.8519 92.352 37.3639 92.664C36.8839 92.968 36.2199 93.12 35.3719 93.12ZM40.6751 93C40.1551 93 39.7871 92.892 39.5711 92.676C39.3631 92.46 39.2591 92.12 39.2591 91.656V86.52H40.8791V91.236C40.8791 91.572 41.0431 91.74 41.3711 91.74H41.7791V93H40.6751ZM42.9145 93V88.98C42.9145 88.196 43.1545 87.572 43.6345 87.108C44.1225 86.636 44.9025 86.4 45.9745 86.4C47.0465 86.4 47.8225 86.636 48.3025 87.108C48.7825 87.572 49.0225 88.196 49.0225 88.98V93H47.4025V88.86C47.4025 88.46 47.2745 88.16 47.0185 87.96C46.7705 87.76 46.4225 87.66 45.9745 87.66C45.0145 87.66 44.5345 88.06 44.5345 88.86V90.024C44.6865 89.912 44.8545 89.82 45.0385 89.748C45.2305 89.676 45.4385 89.64 45.6625 89.64H46.4425L46.4905 90.924H45.6265C45.4025 90.924 45.2025 90.956 45.0265 91.02C44.8505 91.076 44.6865 91.16 44.5345 91.272V93H42.9145ZM52.6336 93.12C52.1856 93.12 51.7536 93.088 51.3376 93.024C50.9296 92.96 50.5976 92.876 50.3416 92.772V91.464C50.6456 91.592 50.9776 91.692 51.3376 91.764C51.7056 91.828 52.0376 91.86 52.3336 91.86C52.8536 91.86 53.2296 91.82 53.4616 91.74C53.7016 91.66 53.8216 91.496 53.8216 91.248C53.8216 91.056 53.7576 90.908 53.6296 90.804C53.5096 90.7 53.3216 90.608 53.0656 90.528C52.8096 90.44 52.4816 90.328 52.0816 90.192C51.4976 89.984 51.0376 89.752 50.7016 89.496C50.3736 89.232 50.2096 88.844 50.2096 88.332C50.2096 87.756 50.4336 87.292 50.8816 86.94C51.3296 86.58 52.0056 86.4 52.9096 86.4C53.2856 86.4 53.6616 86.428 54.0376 86.484C54.4136 86.54 54.7216 86.608 54.9616 86.688V87.984C54.6976 87.872 54.3936 87.792 54.0496 87.744C53.7136 87.688 53.4096 87.66 53.1376 87.66C52.7616 87.66 52.4336 87.704 52.1536 87.792C51.8816 87.872 51.7456 88.04 51.7456 88.296C51.7456 88.456 51.8136 88.584 51.9496 88.68C52.0936 88.776 52.2936 88.864 52.5496 88.944C52.8136 89.024 53.1256 89.128 53.4856 89.256C53.9336 89.408 54.2936 89.568 54.5656 89.736C54.8456 89.904 55.0456 90.108 55.1656 90.348C55.2936 90.588 55.3576 90.888 55.3576 91.248C55.3576 91.88 55.1136 92.352 54.6256 92.664C54.1456 92.968 53.4816 93.12 52.6336 93.12ZM58.9568 93.12C58.4368 93.12 57.9728 93.008 57.5648 92.784C57.1568 92.56 56.8328 92.212 56.5928 91.74C56.3608 91.26 56.2448 90.644 56.2448 89.892C56.2448 88.788 56.5288 87.932 57.0968 87.324C57.6728 86.708 58.5168 86.4 59.6288 86.4C60.4048 86.4 61.0328 86.532 61.5128 86.796C61.9928 87.052 62.3408 87.384 62.5568 87.792C62.7808 88.2 62.8928 88.632 62.8928 89.088V93H61.2728V89.196C61.2728 88.892 61.2248 88.628 61.1288 88.404C61.0328 88.172 60.8608 87.992 60.6128 87.864C60.3728 87.728 60.0368 87.66 59.6048 87.66C58.3888 87.66 57.7808 88.404 57.7808 89.892C57.7808 90.62 57.9088 91.132 58.1648 91.428C58.4208 91.716 58.7808 91.86 59.2448 91.86C59.3968 91.86 59.5448 91.852 59.6888 91.836C59.8408 91.82 59.9688 91.796 60.0728 91.764V92.952C59.9288 93.008 59.7688 93.048 59.5928 93.072C59.4168 93.104 59.2048 93.12 58.9568 93.12ZM57.6526 85.632L57.7366 84.528H62.8966V85.632H57.6526ZM66.7966 93.12C66.2766 93.12 65.8126 93.008 65.4046 92.784C64.9966 92.56 64.6726 92.212 64.4326 91.74C64.2006 91.26 64.0846 90.644 64.0846 89.892C64.0846 88.748 64.2846 87.88 64.6846 87.288C65.0926 86.696 65.6406 86.4 66.3286 86.4C66.6726 86.4 66.9406 86.456 67.1326 86.568C67.3246 86.68 67.4846 86.828 67.6126 87.012C67.7726 86.828 67.9926 86.68 68.2726 86.568C68.5606 86.456 68.8526 86.4 69.1486 86.4C69.7166 86.4 70.1326 86.572 70.3966 86.916C70.6686 87.26 70.8046 87.712 70.8046 88.272V93H69.1846V88.524C69.1846 88.244 69.1446 88.032 69.0646 87.888C68.9926 87.736 68.8486 87.66 68.6326 87.66C68.4886 87.66 68.3566 87.708 68.2366 87.804C68.1246 87.892 68.0446 88.028 67.9966 88.212H67.2166C67.1366 88.028 67.0526 87.892 66.9646 87.804C66.8766 87.708 66.7486 87.66 66.5806 87.66C66.2046 87.66 65.9486 87.868 65.8126 88.284C65.6846 88.692 65.6206 89.228 65.6206 89.892C65.6206 90.62 65.7486 91.132 66.0046 91.428C66.2606 91.716 66.6206 91.86 67.0846 91.86C67.2366 91.86 67.3846 91.852 67.5286 91.836C67.6806 91.82 67.8086 91.796 67.9126 91.764V92.952C67.7686 93.008 67.6086 93.048 67.4326 93.072C67.2566 93.104 67.0446 93.12 66.7966 93.12Z" fill="white"/>
<path d="M33.4165 22.9741H45.5838V44.8366H33.4165V22.9741Z" fill="#C4B5FD"/>
<path d="M34.1888 33.9055C34.1888 29.4635 36.2746 25.5236 39.4805 22.9742C37.1244 21.1201 34.1503 20 30.9057 20C23.2188 20 17 26.2188 17 33.9055C17 41.5921 23.2188 47.811 30.9055 47.811C34.1501 47.811 37.1243 46.6909 39.4805 44.8367C36.2746 42.326 34.1888 38.3475 34.1888 33.9055Z" fill="#A78BFA"/>
<path d="M61.9995 33.9055C61.9995 41.5921 55.7808 47.811 48.094 47.811C44.8494 47.811 41.8752 46.6909 39.519 44.8367C42.7636 42.2874 44.8109 38.3475 44.8109 33.9055C44.8109 29.4635 42.7249 25.5236 39.519 22.9742C41.8751 21.1201 44.8494 20 48.094 20C55.7808 20 61.9997 26.2575 61.9997 33.9055H61.9995Z" fill="#A78BFA"/>
<defs>
<linearGradient id="paint0_linear_918_2258" x1="73" y1="-30.5053" x2="87.5401" y2="206.333" gradientUnits="userSpaceOnUse">
<stop stop-color="#D8B4FE"/>
<stop offset="1" stop-color="#A78BFA"/>
</linearGradient>
<radialGradient id="paint1_radial_918_2258" cx="0" cy="0" r="1" gradientUnits="userSpaceOnUse" gradientTransform="translate(35.9503 145.014) rotate(141.302) scale(22.37 22.2003)">
<stop stop-color="white"/>
<stop offset="1" stop-color="#DDDCDA"/>
</radialGradient>
</defs>
</svg>
