<svg width="32" height="32" viewBox="0 0 32 32" fill="none" xmlns="http://www.w3.org/2000/svg">
<path d="M29.8999 12.1612C29.7788 11.788 29.5506 11.4586 29.2436 11.2141C28.9367 10.9696 28.5646 10.8208 28.1737 10.7862L20.7499 10.1462L17.8399 3.22624C17.6884 2.86314 17.4329 2.55298 17.1054 2.33482C16.778 2.11665 16.3934 2.00024 15.9999 2.00024C15.6065 2.00024 15.2218 2.11665 14.8944 2.33482C14.567 2.55298 14.3114 2.86314 14.1599 3.22624L11.2587 10.1462L3.82618 10.79C3.43372 10.823 3.05974 10.9711 2.75113 11.2158C2.44251 11.4604 2.21301 11.7908 2.0914 12.1654C1.96978 12.54 1.96147 12.9421 2.0675 13.3214C2.17353 13.7007 2.38919 14.0403 2.68743 14.2975L8.32618 19.225L6.63618 26.5425C6.54682 26.9254 6.57232 27.3262 6.70949 27.6947C6.84666 28.0632 7.08943 28.3831 7.40742 28.6144C7.72542 28.8457 8.10455 28.9782 8.4974 28.9951C8.89025 29.0121 9.27939 28.913 9.61618 28.71L15.9912 24.835L22.3799 28.71C22.7167 28.913 23.1059 29.0121 23.4987 28.9951C23.8916 28.9782 24.2707 28.8457 24.5887 28.6144C24.9067 28.3831 25.1494 28.0632 25.2866 27.6947C25.4238 27.3262 25.4493 26.9254 25.3599 26.5425L23.6712 19.2175L29.3087 14.2975C29.6069 14.0394 29.8221 13.6989 29.9273 13.3188C30.0325 12.9387 30.023 12.5359 29.8999 12.1612ZM27.9974 12.7862L22.3599 17.7062C22.0856 17.9449 21.8814 18.2539 21.7696 18.5999C21.6577 18.9459 21.6422 19.3159 21.7249 19.67L23.4187 27L17.0349 23.125C16.7235 22.9353 16.3658 22.835 16.0012 22.835C15.6365 22.835 15.2789 22.9353 14.9674 23.125L8.59243 27L10.2749 19.675C10.3576 19.3209 10.3422 18.9509 10.2303 18.6049C10.1184 18.2589 9.9143 17.9499 9.63993 17.7112L3.99993 12.7937C3.99947 12.79 3.99947 12.7862 3.99993 12.7825L11.4299 12.14C11.7927 12.108 12.1398 11.9776 12.4339 11.7628C12.728 11.5481 12.9578 11.2571 13.0987 10.9212L15.9999 4.00999L18.8999 10.9212C19.0408 11.2571 19.2706 11.5481 19.5647 11.7628C19.8588 11.9776 20.2059 12.108 20.5687 12.14L27.9999 12.7825C27.9999 12.7825 27.9999 12.79 27.9999 12.7912L27.9974 12.7862Z" fill="white"/>
</svg>
