<svg width="32" height="32" viewBox="0 0 32 32" fill="none" xmlns="http://www.w3.org/2000/svg">
<path d="M14.6563 19.74C15.9966 18.8477 17.0141 17.5479 17.5584 16.0326C18.1028 14.5173 18.145 12.867 17.6789 11.3259C17.2129 9.78472 16.2632 8.43447 14.9703 7.47479C13.6775 6.51511 12.1102 5.99696 10.5001 5.99696C8.88997 5.99696 7.32261 6.51511 6.02978 7.47479C4.73694 8.43447 3.78726 9.78472 3.32118 11.3259C2.85509 12.867 2.89734 14.5173 3.44168 16.0326C3.98603 17.5479 5.00356 18.8477 6.34381 19.74C3.91943 20.6336 1.84894 22.287 0.441312 24.4538C0.367332 24.5637 0.315945 24.6873 0.290139 24.8173C0.264332 24.9473 0.264621 25.0811 0.290989 25.2109C0.317356 25.3408 0.369276 25.4642 0.44373 25.5738C0.518185 25.6834 0.613688 25.7772 0.72469 25.8496C0.835692 25.922 0.959977 25.9716 1.09032 25.9955C1.22067 26.0195 1.35447 26.0173 1.48396 25.9891C1.61344 25.9608 1.73603 25.9072 1.84458 25.8311C1.95314 25.7551 2.04551 25.6583 2.11631 25.5463C3.0243 24.1497 4.26676 23.0022 5.73086 22.2077C7.19496 21.4133 8.83432 20.9972 10.5001 20.9972C12.1658 20.9972 13.8052 21.4133 15.2693 22.2077C16.7334 23.0022 17.9758 24.1497 18.8838 25.5463C19.0305 25.7642 19.2571 25.9158 19.5145 25.968C19.772 26.0203 20.0397 25.9691 20.2598 25.8256C20.4799 25.6821 20.6346 25.4577 20.6906 25.201C20.7465 24.9443 20.6992 24.6759 20.5588 24.4538C19.1512 22.287 17.0807 20.6336 14.6563 19.74ZM5.00006 13.5C5.00006 12.4122 5.32263 11.3488 5.92698 10.4444C6.53133 9.5399 7.39031 8.83495 8.3953 8.41867C9.4003 8.00239 10.5062 7.89347 11.5731 8.10569C12.64 8.31791 13.62 8.84173 14.3891 9.61092C15.1583 10.3801 15.6822 11.3601 15.8944 12.427C16.1066 13.4939 15.9977 14.5998 15.5814 15.6048C15.1651 16.6098 14.4602 17.4687 13.5557 18.0731C12.6512 18.6774 11.5879 19 10.5001 19C9.04188 18.9984 7.64389 18.4184 6.6128 17.3873C5.58171 16.3562 5.00172 14.9582 5.00006 13.5ZM31.2676 25.8375C31.0454 25.9824 30.7749 26.033 30.5154 25.9784C30.2559 25.9238 30.0287 25.7684 29.8838 25.5463C28.9769 24.1489 27.7346 23.0008 26.2702 22.2067C24.8058 21.4126 23.1659 20.9978 21.5001 21C21.2348 21 20.9805 20.8947 20.793 20.7071C20.6054 20.5196 20.5001 20.2652 20.5001 20C20.5001 19.7348 20.6054 19.4804 20.793 19.2929C20.9805 19.1054 21.2348 19 21.5001 19C22.31 18.9992 23.1098 18.8196 23.8423 18.4739C24.5748 18.1282 25.2219 17.625 25.7373 17.0002C26.2528 16.3755 26.6239 15.6445 26.8242 14.8597C27.0244 14.0749 27.0488 13.2555 26.8957 12.4602C26.7426 11.6648 26.4157 10.9131 25.9383 10.2588C25.461 9.60438 24.845 9.06352 24.1344 8.6748C23.4239 8.28608 22.6362 8.0591 21.8277 8.01009C21.0192 7.96107 20.2099 8.09123 19.4576 8.39126C19.3349 8.44428 19.2028 8.47219 19.0692 8.47332C18.9356 8.47445 18.8031 8.44878 18.6795 8.39783C18.556 8.34688 18.4439 8.27169 18.3499 8.17669C18.2559 8.0817 18.1819 7.96882 18.1323 7.84474C18.0827 7.72066 18.0584 7.58789 18.0609 7.45428C18.0635 7.32067 18.0928 7.18892 18.1471 7.06682C18.2015 6.94472 18.2797 6.83476 18.3772 6.74341C18.4748 6.65207 18.5897 6.5812 18.7151 6.53501C20.4369 5.84832 22.352 5.82361 24.091 6.46564C25.83 7.10767 27.2696 8.37095 28.1321 10.0118C28.9946 11.6526 29.2189 13.5547 28.7617 15.3512C28.3045 17.1476 27.1982 18.7111 25.6563 19.74C28.0807 20.6336 30.1512 22.287 31.5588 24.4538C31.7037 24.6759 31.7543 24.9464 31.6997 25.2059C31.6451 25.4654 31.4897 25.6926 31.2676 25.8375Z" fill="white"/>
</svg>
