<svg width="48" height="48" viewBox="0 0 48 48" fill="none" xmlns="http://www.w3.org/2000/svg">
<path d="M24 4.5C20.1433 4.5 16.3731 5.64366 13.1664 7.78634C9.95963 9.92903 7.46027 12.9745 5.98436 16.5377C4.50845 20.1008 4.12228 24.0216 4.8747 27.8043C5.62711 31.5869 7.4843 35.0615 10.2114 37.7886C12.9386 40.5157 16.4131 42.3729 20.1957 43.1253C23.9784 43.8777 27.8992 43.4916 31.4623 42.0156C35.0255 40.5397 38.071 38.0404 40.2137 34.8336C42.3564 31.6269 43.5 27.8567 43.5 24C43.4945 18.83 41.4383 13.8732 37.7826 10.2174C34.1268 6.56167 29.1701 4.50546 24 4.5ZM13.89 37.0312C14.9751 35.3342 16.47 33.9375 18.2369 32.9701C20.0037 32.0027 21.9857 31.4956 24 31.4956C26.0144 31.4956 27.9963 32.0027 29.7632 32.9701C31.53 33.9375 33.0249 35.3342 34.11 37.0312C31.2194 39.2794 27.6619 40.4999 24 40.4999C20.3381 40.4999 16.7806 39.2794 13.89 37.0312ZM18 22.5C18 21.3133 18.3519 20.1533 19.0112 19.1666C19.6705 18.1799 20.6076 17.4108 21.7039 16.9567C22.8003 16.5026 24.0067 16.3838 25.1706 16.6153C26.3344 16.8468 27.4035 17.4182 28.2426 18.2574C29.0818 19.0965 29.6532 20.1656 29.8847 21.3295C30.1162 22.4933 29.9974 23.6997 29.5433 24.7961C29.0892 25.8925 28.3201 26.8295 27.3334 27.4888C26.3467 28.1481 25.1867 28.5 24 28.5C22.4087 28.5 20.8826 27.8679 19.7574 26.7426C18.6321 25.6174 18 24.0913 18 22.5ZM36.33 34.9519C34.6571 32.5276 32.3047 30.6522 29.5688 29.5613C31.0384 28.4037 32.1108 26.817 32.6369 25.0217C33.1629 23.2264 33.1164 21.3118 32.5039 19.5441C31.8914 17.7765 30.7432 16.2437 29.2191 15.1588C27.6951 14.0739 25.8708 13.491 24 13.491C22.1292 13.491 20.305 14.0739 18.7809 15.1588C17.2568 16.2437 16.1086 17.7765 15.4961 19.5441C14.8836 21.3118 14.8371 23.2264 15.3631 25.0217C15.8892 26.817 16.9616 28.4037 18.4313 29.5613C15.6953 30.6522 13.3429 32.5276 11.67 34.9519C9.55607 32.5747 8.17439 29.6371 7.69134 26.4928C7.20829 23.3485 7.64447 20.1317 8.94735 17.2296C10.2502 14.3274 12.3643 11.8638 15.0349 10.1354C17.7055 8.40693 20.8189 7.48734 24 7.48734C27.1812 7.48734 30.2945 8.40693 32.9651 10.1354C35.6357 11.8638 37.7498 14.3274 39.0527 17.2296C40.3555 20.1317 40.7917 23.3485 40.3087 26.4928C39.8256 29.6371 38.4439 32.5747 36.33 34.9519Z" fill="white"/>
</svg>
