<svg width="43" height="43" viewBox="0 0 43 43" fill="none" xmlns="http://www.w3.org/2000/svg">
<path d="M35.2077 36.911C32.0694 32.7692 27.0972 30.0938 21.5 30.0938C15.9028 30.0938 10.9306 32.7692 7.79231 36.911M35.2077 36.911C39.4518 33.1333 42.125 27.6288 42.125 21.5C42.125 10.1091 32.8909 0.875 21.5 0.875C10.1091 0.875 0.875 10.1091 0.875 21.5C0.875 27.6288 3.54823 33.1333 7.79231 36.911M35.2077 36.911C31.5638 40.1544 26.762 42.125 21.5 42.125C16.238 42.125 11.4362 40.1544 7.79231 36.911M28.375 16.3438C28.375 20.1407 25.297 23.2188 21.5 23.2188C17.703 23.2188 14.625 20.1407 14.625 16.3438C14.625 12.5468 17.703 9.46875 21.5 9.46875C25.297 9.46875 28.375 12.5468 28.375 16.3438Z" stroke="white" stroke-width="1.5" stroke-linecap="round" stroke-linejoin="round"/>
</svg>
