<svg width="40" height="40" viewBox="0 0 40 40" fill="none" xmlns="http://www.w3.org/2000/svg">
<path d="M3.78845 9.37539C5.11063 8.20823 6.84752 7.5 8.74982 7.5H31.2498C33.1521 7.5 34.889 8.20823 36.2112 9.37539C35.9038 6.90876 33.7997 5 31.2498 5H8.74982C6.19992 5 4.09584 6.90876 3.78845 9.37539Z" fill="#F5F3FF"/>
<path d="M3.78845 14.3754C5.11063 13.2082 6.84752 12.5 8.74982 12.5H31.2498C33.1521 12.5 34.889 13.2082 36.2112 14.3754C35.9038 11.9088 33.7997 10 31.2498 10H8.74982C6.19992 10 4.09584 11.9088 3.78845 14.3754Z" fill="#F5F3FF"/>
<path d="M8.75 15C5.98858 15 3.75 17.2386 3.75 20V30C3.75 32.7614 5.98858 35 8.75 35H31.25C34.0114 35 36.25 32.7614 36.25 30V20C36.25 17.2386 34.0114 15 31.25 15H25C24.3096 15 23.75 15.5596 23.75 16.25C23.75 18.3211 22.0711 20 20 20C17.9289 20 16.25 18.3211 16.25 16.25C16.25 15.5596 15.6904 15 15 15H8.75Z" fill="#F5F3FF"/>
</svg>
