<svg width="300" height="300" viewBox="0 0 300 300" fill="none" xmlns="http://www.w3.org/2000/svg">
<path d="M194.133 119.133L163.254 150L194.133 180.867C195.004 181.738 195.695 182.772 196.166 183.91C196.638 185.048 196.88 186.268 196.88 187.5C196.88 188.732 196.638 189.952 196.166 191.09C195.695 192.228 195.004 193.262 194.133 194.133C193.262 195.004 192.228 195.695 191.09 196.166C189.952 196.638 188.732 196.88 187.5 196.88C186.268 196.88 185.048 196.638 183.91 196.166C182.772 195.695 181.738 195.004 180.867 194.133L150 163.254L119.133 194.133C118.262 195.004 117.228 195.695 116.09 196.166C114.952 196.638 113.732 196.88 112.5 196.88C111.268 196.88 110.048 196.638 108.91 196.166C107.772 195.695 106.738 195.004 105.867 194.133C104.996 193.262 104.305 192.228 103.834 191.09C103.362 189.952 103.12 188.732 103.12 187.5C103.12 186.268 103.362 185.048 103.834 183.91C104.305 182.772 104.996 181.738 105.867 180.867L136.746 150L105.867 119.133C104.108 117.374 103.12 114.988 103.12 112.5C103.12 110.012 104.108 107.626 105.867 105.867C107.626 104.108 110.012 103.12 112.5 103.12C114.988 103.12 117.374 104.108 119.133 105.867L150 136.746L180.867 105.867C181.738 104.996 182.772 104.305 183.91 103.834C185.048 103.362 186.268 103.12 187.5 103.12C188.732 103.12 189.952 103.362 191.09 103.834C192.228 104.305 193.262 104.996 194.133 105.867C195.004 106.738 195.695 107.772 196.166 108.91C196.638 110.048 196.88 111.268 196.88 112.5C196.88 113.732 196.638 114.952 196.166 116.09C195.695 117.228 195.004 118.262 194.133 119.133ZM271.875 150C271.875 174.105 264.727 197.668 251.335 217.71C237.944 237.752 218.909 253.373 196.64 262.598C174.37 271.822 149.865 274.236 126.223 269.533C102.582 264.831 80.8659 253.223 63.8214 236.179C46.7768 219.134 35.1694 197.418 30.4668 173.777C25.7642 150.135 28.1777 125.63 37.4022 103.36C46.6266 81.0907 62.2476 62.0564 82.2899 48.6646C102.332 35.2728 125.895 28.125 150 28.125C182.313 28.1591 213.292 41.0104 236.141 63.859C258.99 86.7077 271.841 117.687 271.875 150ZM253.125 150C253.125 129.604 247.077 109.666 235.745 92.7068C224.414 75.748 208.308 62.5302 189.464 54.7249C170.621 46.9196 149.886 44.8774 129.881 48.8565C109.877 52.8356 91.5019 62.6573 77.0796 77.0796C62.6573 91.5019 52.8356 109.877 48.8565 129.881C44.8774 149.886 46.9196 170.621 54.7249 189.464C62.5302 208.308 75.748 224.414 92.7068 235.745C109.666 247.077 129.604 253.125 150 253.125C177.341 253.094 203.553 242.219 222.886 222.886C242.219 203.553 253.094 177.341 253.125 150Z" fill="#F87171"/>
</svg>
